<svg width="77" height="77" viewBox="0 0 77 77" fill="none" xmlns="http://www.w3.org/2000/svg">
<path d="M48.5316 19.1048H28.2768C23.2082 19.1048 19.0844 23.2286 19.0844 28.2972V48.7379C19.0844 53.8064 23.2082 57.9303 28.2768 57.9303H48.5316C53.6002 57.9303 57.7241 53.8064 57.7241 48.7379V28.2972C57.7241 23.2286 53.6002 19.1048 48.5316 19.1048ZM38.4429 50.7569C31.5723 50.7569 25.983 45.2269 25.983 38.4297C25.983 31.6326 31.5731 26.1026 38.4429 26.1026C45.3126 26.1026 50.9028 31.6326 50.9028 38.4297C50.9028 45.2269 45.3134 50.7569 38.4429 50.7569ZM51.1245 28.5299C49.5052 28.5299 48.1928 27.2175 48.1928 25.5982C48.1928 23.9789 49.5052 22.6665 51.1245 22.6665C52.7437 22.6665 54.0562 23.9789 54.0562 25.5982C54.0562 27.2175 52.7437 28.5299 51.1245 28.5299Z" fill="url(#paint0_linear)"/>
<path d="M38.5 0C17.2372 0 0 17.2372 0 38.5C0 59.7628 17.2372 77 38.5 77C59.7628 77 77 59.7628 77 38.5C77 17.2372 59.7628 0 38.5 0ZM62.2713 48.7379C62.2713 56.3142 56.1073 62.4774 48.5318 62.4774H28.2769C20.7006 62.4774 14.5374 56.3134 14.5374 48.7379V28.2972C14.5374 20.7209 20.7014 14.5577 28.2769 14.5577H48.5318C56.1081 14.5577 62.2713 20.7217 62.2713 28.2972V48.7379Z" fill="url(#paint1_linear)"/>
<path d="M38.4428 30.641C34.0746 30.641 30.5214 34.1348 30.5214 38.4297C30.5214 42.7246 34.0746 46.2184 38.4428 46.2184C42.8111 46.2184 46.3643 42.7246 46.3643 38.4297C46.3643 34.1348 42.8111 30.641 38.4428 30.641Z" fill="url(#paint2_linear)"/>
<defs>
<linearGradient id="paint0_linear" x1="38.4042" y1="19.1048" x2="38.4042" y2="57.9303" gradientUnits="userSpaceOnUse">
<stop stop-color="#FFE600"/>
<stop offset="0.473958" stop-color="#FF004D"/>
<stop offset="1" stop-color="#8F00FF"/>
</linearGradient>
<linearGradient id="paint1_linear" x1="38.5" y1="0" x2="38.5" y2="77" gradientUnits="userSpaceOnUse">
<stop stop-color="#FFE600"/>
<stop offset="0.473958" stop-color="#FF004D"/>
<stop offset="1" stop-color="#8F00FF"/>
</linearGradient>
<linearGradient id="paint2_linear" x1="38.4428" y1="30.641" x2="38.4428" y2="46.2184" gradientUnits="userSpaceOnUse">
<stop stop-color="#FFE600"/>
<stop offset="0.473958" stop-color="#FF004D"/>
<stop offset="1" stop-color="#8F00FF"/>
</linearGradient>
</defs>
</svg>
