<svg width="19" height="20" viewBox="0 0 19 20" fill="none" xmlns="http://www.w3.org/2000/svg">
<path d="M14.8493 3.23202C13.7752 2.27107 12.3896 1.78582 10.9536 1.86567C9.51514 1.94552 8.19384 2.5807 7.23312 3.65403C5.2498 5.8703 5.4393 9.28708 7.65558 11.2704C8.68341 12.1899 9.96854 12.6422 11.2498 12.6422C12.7319 12.6422 14.2082 12.0366 15.272 10.8479C17.255 8.63212 17.0655 5.21534 14.8493 3.23202ZM14.763 10.3932C13.0311 12.3289 10.0466 12.4946 8.11057 10.7617C6.17457 9.02933 6.00918 6.04502 7.74134 4.10925C8.58058 3.17151 9.7349 2.61664 10.9911 2.54703C11.0805 2.54225 11.1693 2.53975 11.258 2.53975C12.418 2.53975 13.5227 2.96084 14.394 3.74048C16.33 5.47309 16.4954 8.4574 14.763 10.3932Z" fill="#757575"/>
<path d="M8.34762 4.64161C8.22182 4.7822 8.23387 4.99787 8.37424 5.12345C8.43953 5.18169 8.52075 5.21035 8.60174 5.21035C8.69546 5.21035 8.78874 5.17213 8.85608 5.0966C10.0445 3.7687 12.0911 3.65541 13.419 4.8434C13.5594 4.9692 13.7748 4.95715 13.9008 4.81678C14.0264 4.67619 14.0143 4.46052 13.874 4.33494C12.2656 2.89579 9.78654 3.03366 8.34762 4.64161Z" fill="#757575"/>
<path d="M18.5088 6.81169C18.393 4.87979 17.5319 3.10895 16.0841 1.82473C14.6363 0.54051 12.7768 -0.101032 10.843 0.0129445C8.91136 0.128741 7.14029 0.989817 5.8563 2.43761C3.28217 5.33979 3.46735 9.74982 6.21688 12.43L5.04004 13.7726L4.66262 13.438C4.5218 13.3129 4.30704 13.3256 4.18192 13.4658L0.0869737 18.0419C0.0264595 18.1092 -0.0044801 18.1979 0.000524837 18.2882C0.00552977 18.3786 0.0462519 18.4634 0.113591 18.5237L1.40009 19.6751C1.46538 19.7333 1.54659 19.762 1.62758 19.762C1.72131 19.762 1.81459 19.7235 1.88193 19.6482L5.98233 15.0662C6.04285 14.9986 6.07401 14.9097 6.06878 14.8189C6.06355 14.7286 6.02237 14.6435 5.95458 14.5834L5.55077 14.2254L6.72693 12.8836C8.0198 13.9294 9.60704 14.4906 11.2669 14.4906C11.4141 14.4906 11.5622 14.4861 11.7103 14.4772C13.6419 14.3612 15.413 13.5001 16.6972 12.0523C17.9814 10.6045 18.6246 8.7436 18.5088 6.81169ZM1.60097 18.9389L0.823154 18.2427L4.46402 14.1742L5.24524 14.8669L1.60097 18.9389ZM16.1865 11.5996C15.0233 12.9111 13.419 13.691 11.6693 13.7959C9.91985 13.9037 8.23364 13.3179 6.92212 12.1549C4.21491 9.75369 3.9658 5.59754 6.36703 2.89033C7.53022 1.57881 9.13453 0.798947 10.8842 0.694071C11.0184 0.685881 11.1522 0.682013 11.2857 0.682013C12.8905 0.682013 14.4207 1.26122 15.6316 2.33523C16.9431 3.49843 17.723 5.10274 17.8279 6.85242C17.9325 8.60232 17.3494 10.2883 16.1865 11.5996Z" fill="#757575"/>
</svg>
