<svg width="21" height="24" viewBox="0 0 21 24" fill="none" xmlns="http://www.w3.org/2000/svg">
<path d="M10.3219 12.9908C4.62986 12.9908 0 17.6207 0 23.3127C0 23.5306 0.190641 23.7212 0.408517 23.7212H20.208C20.4258 23.7212 20.6165 23.5306 20.6165 23.3127C20.6437 17.6207 16.0138 12.9908 10.3219 12.9908ZM10.3219 13.8079C11.5746 13.8079 12.8002 14.053 13.8896 14.516L10.458 17.0488L6.78137 14.516C7.87075 14.053 9.06907 13.8079 10.3219 13.8079ZM0.844267 22.9042C0.98044 19.4454 3.02302 16.4496 5.90987 14.8973L10.2401 17.8658C10.3219 17.9203 10.4036 17.9475 10.458 17.9475C10.5397 17.9475 10.6214 17.9203 10.7031 17.8658L14.7338 14.8973C17.6479 16.4224 19.6633 19.4182 19.7994 22.9042H0.844267Z" fill="#797878"/>
<path d="M10.1585 11.8742C13.4266 11.8742 16.0956 9.20524 16.0956 5.93711C16.0956 2.66898 13.4266 0 10.1585 0C6.89032 0 4.22134 2.66898 4.22134 5.93711C4.22134 9.23248 6.89032 11.8742 10.1585 11.8742ZM10.1585 0.844268C12.3372 0.844268 14.1891 2.20599 14.9245 4.1124C14.6794 3.97623 14.3798 3.81282 14.1074 3.64941C12.9636 2.96855 12.1738 2.5328 11.6563 2.58727C10.6214 2.66897 10.0223 3.07749 9.36865 3.48601C9.01461 3.70388 8.63332 3.94899 8.17034 4.13963L8.03416 4.1941C7.02649 4.60262 6.4001 4.87496 5.17455 5.01114C5.58307 2.64174 7.65288 0.844268 10.1585 0.844268ZM5.03838 5.82817C6.50904 5.692 7.24437 5.39242 8.30651 4.92943L8.44268 4.87496C8.98737 4.65709 9.39589 4.38474 9.77717 4.13963C10.3763 3.75835 10.8938 3.43154 11.7108 3.37707C12.0104 3.34984 13.0453 3.97623 13.6717 4.33028C14.2981 4.71156 14.8155 5.01114 15.1968 5.12007C15.2513 5.39242 15.2785 5.66476 15.2785 5.93711C15.2785 8.74226 12.9908 11.0572 10.1585 11.0572C7.32607 11.0572 5.03838 8.76949 5.03838 5.93711C5.03838 5.90987 5.03838 5.88264 5.03838 5.82817Z" fill="#797878"/>
</svg>
