<svg width="23" height="23" viewBox="0 0 23 23" fill="none" xmlns="http://www.w3.org/2000/svg">
<path d="M11.3747 6.75C8.82441 6.75 6.74966 8.82475 6.74966 11.375C6.74966 13.9253 8.82441 16 11.3747 16C13.9249 16 15.9997 13.9253 15.9997 11.375C15.9997 8.82475 13.9249 6.75 11.3747 6.75ZM11.3747 15.25C9.23791 15.25 7.49966 13.5118 7.49966 11.375C7.49966 9.23825 9.23791 7.5 11.3747 7.5C13.5114 7.5 15.2497 9.23825 15.2497 11.375C15.2497 13.5118 13.5114 15.25 11.3747 15.25Z" fill="#E21E22"/>
<path d="M22.681 9.50025L19.689 9.0475C19.5245 8.493 19.3022 7.9545 19.0263 7.44125L20.8202 5.008C20.9303 4.85875 20.9148 4.6515 20.7838 4.52025L18.4797 2.2165C18.3485 2.0855 18.1413 2.06975 17.992 2.17975L15.5665 3.96775C15.051 3.68775 14.509 3.46225 13.95 3.295L13.4998 0.319C13.472 0.1355 13.3145 0 13.129 0H9.871C9.6855 0 9.528 0.1355 9.50025 0.319L9.05 3.295C8.491 3.46225 7.949 3.688 7.4335 3.96775L5.008 2.17975C4.85875 2.06975 4.6515 2.08525 4.52025 2.2165L2.2165 4.52025C2.0855 4.65125 2.06975 4.85875 2.17975 5.008L3.97375 7.44125C3.69775 7.9545 3.4755 8.493 3.311 9.0475L0.319 9.50025C0.1355 9.528 0 9.6855 0 9.871V13.129C0 13.3145 0.1355 13.472 0.31875 13.4998L3.3255 13.9548C3.49175 14.5033 3.7135 15.0345 3.98725 15.54L2.1795 17.992C2.0695 18.1413 2.08525 18.3485 2.21625 18.4797L4.52 20.7835C4.651 20.9148 4.8585 20.9303 5.00775 20.8202L7.46775 19.0068C7.97075 19.2768 8.49875 19.4953 9.04275 19.6585L9.5 22.681C9.52775 22.8645 9.68525 23 9.87075 23H13.1287C13.3142 23 13.4718 22.8645 13.4995 22.681L13.9567 19.6585C14.5007 19.4953 15.0287 19.2768 15.5317 19.0068L17.9918 20.8202C18.141 20.9303 18.3482 20.9145 18.4795 20.7835L20.7835 18.4797C20.9145 18.3487 20.9303 18.1413 20.82 17.992L19.0123 15.54C19.2863 15.0345 19.508 14.5033 19.674 13.9548L22.6807 13.4998C22.864 13.472 22.9995 13.3145 22.9995 13.129V9.871C22.9998 9.68575 22.8643 9.528 22.681 9.50025ZM22.2498 12.8065L19.324 13.2493C19.177 13.2715 19.057 13.3785 19.018 13.5218C18.842 14.1705 18.581 14.7955 18.2423 15.3797C18.1672 15.509 18.176 15.6703 18.2647 15.7905L20.0247 18.1777L18.177 20.0255L15.7825 18.2603C15.6625 18.172 15.502 18.1628 15.3733 18.237C14.7905 18.5717 14.1687 18.8293 13.5245 19.002C13.3807 19.0408 13.2733 19.1608 13.251 19.3083L12.806 22.2505H10.193L9.748 19.3083C9.72575 19.161 9.61825 19.0408 9.4745 19.002C8.83025 18.8293 8.2085 18.5717 7.62575 18.237C7.497 18.163 7.33625 18.1723 7.2165 18.2603L4.822 20.0255L2.97425 18.1777L4.73425 15.7905C4.82275 15.6703 4.83175 15.509 4.75675 15.3797C4.418 14.7957 4.157 14.1705 3.981 13.5218C3.942 13.3783 3.822 13.2715 3.675 13.2493L0.74925 12.8065V10.1935L3.66175 9.753C3.8095 9.73075 3.93 9.62275 3.96825 9.47825C4.1415 8.82425 4.402 8.19225 4.743 7.59975C4.81725 7.47075 4.808 7.31 4.71975 7.19025L2.97425 4.8225L4.822 2.97475L7.18275 4.715C7.303 4.8035 7.46425 4.8125 7.59375 4.73725C8.1875 4.39225 8.82275 4.128 9.48125 3.95175C9.62525 3.91325 9.73275 3.793 9.755 3.6455L10.193 0.74975H12.806L13.244 3.6455C13.2663 3.793 13.3737 3.91325 13.5177 3.95175C14.1762 4.128 14.8113 4.39225 15.4053 4.73725C15.5345 4.81275 15.6958 4.8035 15.8162 4.715L18.177 2.97475L20.0247 4.8225L18.2792 7.19025C18.191 7.31 18.1818 7.47075 18.256 7.59975C18.5968 8.19225 18.8575 8.82425 19.0308 9.47825C19.069 9.62275 19.1895 9.7305 19.3372 9.753L22.2498 10.1935V12.8065Z" fill="#E21E22"/>
</svg>
