<svg width="22" height="14" viewBox="0 0 22 14" fill="none" xmlns="http://www.w3.org/2000/svg">
<path d="M21.9798 13.7401C21.9918 13.7039 22 13.6658 22 13.6256V0.373902C22 0.333494 21.9918 0.295081 21.9796 0.258664C21.9778 0.253675 21.9768 0.248686 21.9747 0.243697C21.9584 0.201044 21.9344 0.162631 21.9043 0.128958C21.9023 0.126713 21.902 0.123969 21.9 0.121724C21.8987 0.120477 21.8972 0.119978 21.8959 0.118731C21.8637 0.0853065 21.8257 0.0583676 21.7831 0.0381634C21.7798 0.0366668 21.7772 0.0346712 21.7739 0.0331746C21.7336 0.0154648 21.6897 0.00548761 21.6435 0.0024944C21.6389 0.00224497 21.6345 0.00124696 21.63 0.00124696C21.6256 0.000997528 21.6218 0 21.6174 0H0.383064C0.378725 0 0.374642 0.000997528 0.370303 0.00124696C0.36622 0.0014964 0.362137 0.00224497 0.358053 0.0024944C0.311351 0.00548761 0.26669 0.0157144 0.225857 0.0336737C0.223305 0.0346714 0.221263 0.0364173 0.218711 0.0374151C0.175326 0.0576192 0.13679 0.0850569 0.104379 0.11898C0.103103 0.120227 0.101572 0.120477 0.100296 0.121724C0.0982541 0.12372 0.0979989 0.126463 0.0959573 0.128708C0.065843 0.162382 0.0415985 0.201044 0.0252653 0.243697C0.0232237 0.248686 0.0222029 0.253675 0.0204164 0.258913C0.00816656 0.29533 0 0.333743 0 0.374151V13.6261C0 13.667 0.00842173 13.7059 0.0209268 13.7428C0.0227132 13.7478 0.0237341 13.7526 0.0255205 13.7575C0.0421089 13.8005 0.0666086 13.8391 0.096978 13.8728C0.0987645 13.8748 0.099275 13.8773 0.101061 13.8793C0.102593 13.881 0.104634 13.882 0.106421 13.8838C0.118926 13.8965 0.132707 13.9077 0.146998 13.9187C0.153379 13.9234 0.158993 13.9292 0.165628 13.9337C0.182472 13.9451 0.200592 13.9544 0.219222 13.9628C0.223815 13.9648 0.227899 13.9681 0.232492 13.9698C0.278684 13.989 0.32947 14 0.382808 14H21.6169C21.6703 14 21.7211 13.9893 21.7673 13.9698C21.7744 13.9668 21.781 13.9623 21.7879 13.9588C21.8037 13.9511 21.8196 13.9431 21.8341 13.9334C21.8418 13.9282 21.8487 13.9214 21.8561 13.9157C21.8691 13.9055 21.8818 13.8952 21.8931 13.8835C21.8951 13.8815 21.8974 13.88 21.8994 13.878C21.9015 13.8758 21.902 13.8728 21.904 13.8705C21.9339 13.8371 21.9579 13.7987 21.9742 13.7563C21.9768 13.7508 21.9781 13.7456 21.9798 13.7401ZM0.765872 1.22248L7.20905 6.97468L0.765872 12.7728V1.22248ZM13.9717 6.69282C13.9452 6.70978 13.9171 6.724 13.8949 6.74795C13.8865 6.75693 13.8837 6.76865 13.8763 6.77813L11.0001 9.34581L1.36969 0.748054H20.6306L13.9717 6.69282ZM7.77663 7.48128L10.7419 10.1285C10.8151 10.1939 10.9075 10.2266 11.0001 10.2266C11.0928 10.2266 11.1852 10.1939 11.2581 10.1285L14.1866 7.51421L20.6288 13.2517H1.36407L7.77663 7.48128ZM14.7545 7.00736L21.2344 1.22248V12.7788L14.7545 7.00736Z" fill="#797878"/>
</svg>
