<svg width="20" height="18" viewBox="0 0 20 18" fill="none" xmlns="http://www.w3.org/2000/svg">
<path d="M19.9958 13.6499C19.9508 12.3566 19.5522 10.798 18.8733 9.2617C17.3812 5.88382 15.1525 3.83337 13.6901 4.49422L12.8401 4.87754V2.83971C12.8401 1.22093 10.08 0 6.42004 0C2.76003 0 0 1.22093 0 2.83971V6.48845C0 6.50775 0.00259283 6.52633 0.00565718 6.54491C0.00282855 6.5635 0 6.58208 0 6.60137C0 6.63425 0.00306431 6.66689 0.00518577 6.69929C0.00259287 6.71644 0 6.73383 0 6.7517V10.4004C0 10.4197 0.00259283 10.4383 0.00565718 10.4569C0.00282855 10.4755 0 10.4941 0 10.5134C0 10.5546 0.00306432 10.5953 0.0066001 10.6358C0.00259288 10.657 0 10.6789 0 10.7013V14.3496C0 14.3689 0.00259283 14.3875 0.00565718 14.4061C0.00282855 14.4246 0 14.4432 0 14.4625C0 16.0815 2.76003 17.3025 6.42004 17.3025C8.73975 17.3025 10.8546 16.7686 11.9722 15.9236C12.9695 17.2303 14.0425 18 14.9408 18C15.1461 18 15.3425 17.96 15.5263 17.8768L18.9247 16.3433C19.6644 16.0108 20.0448 15.0538 19.9958 13.6499ZM6.42004 0.714931C9.78681 0.714931 12.1329 1.83485 12.1329 2.83995C12.1329 3.84528 9.78657 4.96544 6.42004 4.96544C3.0535 4.96544 0.707156 3.84528 0.707156 2.83995C0.707156 1.83485 3.05327 0.714931 6.42004 0.714931ZM0.707156 6.48869V4.17642C1.75304 5.08551 3.86697 5.68014 6.42004 5.68014C8.97334 5.68014 11.0873 5.08551 12.1329 4.17642V5.19677L10.2905 6.02771C9.5822 6.3479 9.22344 7.22863 9.21024 8.43503C8.35741 8.623 7.40298 8.72687 6.4198 8.72687C3.05303 8.72687 0.706921 7.60695 0.706921 6.60185C0.706921 6.58255 0.704328 6.56397 0.701263 6.54539C0.704328 6.52657 0.707156 6.50799 0.707156 6.48869ZM0.707156 10.4009V7.93809C1.75304 8.84694 3.86697 9.44156 6.42004 9.44156C7.40534 9.44156 8.37108 9.34603 9.24136 9.1645C9.3215 10.0483 9.55604 11.0572 9.94497 12.1228C8.90027 12.4642 7.71743 12.6389 6.42004 12.6389C3.05327 12.6389 0.707156 11.5189 0.707156 10.5138C0.707156 10.4945 0.704563 10.476 0.701499 10.4574C0.704328 10.4388 0.707156 10.4202 0.707156 10.4009ZM6.42004 16.5885C3.05327 16.5885 0.707156 15.4683 0.707156 14.4632C0.707156 14.4439 0.704563 14.4253 0.701499 14.4068C0.704328 14.3882 0.707156 14.3696 0.707156 14.3503V11.8501C1.75304 12.7589 3.86697 13.3535 6.42004 13.3535C7.80889 13.3535 9.07895 13.162 10.2047 12.7882C10.2493 12.8954 10.2955 13.0029 10.3431 13.1106C10.7115 13.9446 11.1257 14.6938 11.5613 15.3452C10.5864 16.0958 8.57875 16.5885 6.42004 16.5885ZM15.2383 17.225C14.3298 17.6348 12.3616 15.9262 10.989 12.8192C9.61638 9.71219 9.67154 7.09022 10.5786 6.68047L12.7753 5.68966C12.6536 6.1049 12.5992 6.60781 12.6194 7.18861C12.6645 8.48221 13.0631 10.0407 13.7419 11.5773C14.7836 13.9351 16.1833 15.642 17.4316 16.2357L15.2383 17.225ZM18.6366 15.6918C17.7289 16.1006 15.7602 14.3929 14.3876 11.2859C13.745 9.83131 13.3681 8.36714 13.3261 7.16336C13.2886 6.08584 13.5265 5.3509 13.9786 5.14674C14.0679 5.10648 14.1674 5.0867 14.2758 5.0867C15.2684 5.0867 16.9906 6.75146 18.2281 9.55305C18.8707 11.0075 19.2476 12.4714 19.2896 13.6752C19.3266 14.7527 19.0887 15.4876 18.6366 15.6918Z" fill="#757575"/>
</svg>
