<svg width="21" height="18" viewBox="0 0 21 18" fill="none" xmlns="http://www.w3.org/2000/svg">
<path d="M19.2644 8.79414C20.1856 7.86458 20.6927 6.6085 20.6927 5.25729C20.6927 2.35843 18.2426 0 15.2309 0C13.1256 0 11.2426 1.16417 10.3378 2.93004C9.42567 1.18325 7.54962 0.0322486 5.4618 0.0322486C2.45007 0.0322486 0 2.39068 0 5.28954C0 6.63591 0.499044 7.88339 1.40522 8.80193C3.48659 10.9115 10.0048 17.0285 10.0706 17.09C10.148 17.1626 10.2472 17.1991 10.3464 17.1991C10.4461 17.1991 10.5455 17.1623 10.6232 17.0892C10.6882 17.0274 17.1801 10.8962 19.2644 8.79414ZM10.3456 16.2419C9.07631 15.0493 3.80424 10.0854 1.97924 8.2357C1.22275 7.469 0.80621 6.42281 0.80621 5.28954C0.80621 2.83517 2.89456 0.838459 5.4618 0.838459C7.56279 0.838459 9.41008 2.19531 9.95374 4.13774C10.0024 4.31188 10.1612 4.43227 10.3418 4.43227C10.3423 4.43227 10.3426 4.43227 10.3431 4.43227C10.5245 4.43174 10.6831 4.31 10.7307 4.13505C11.2644 2.17515 13.1149 0.80621 15.2309 0.80621C17.7982 0.80621 19.8865 2.80292 19.8865 5.25729C19.8865 6.39459 19.4622 7.44911 18.6917 8.2263C16.8627 10.0712 11.6102 15.0458 10.3456 16.2419Z" fill="#666565"/>
<path d="M3.77364 3.06921C3.61374 2.91469 3.35844 2.91899 3.20365 3.07916C1.98143 4.34491 1.98143 6.4045 3.20365 7.67025C3.28266 7.75222 3.388 7.79333 3.49361 7.79333C3.59439 7.79333 3.69544 7.75571 3.77364 7.6802C3.93381 7.5254 3.93811 7.27037 3.78358 7.11021C2.8594 6.15323 2.8594 4.59617 3.78358 3.6392C3.93811 3.47904 3.93381 3.22401 3.77364 3.06921Z" fill="#666565"/>
</svg>
