<svg width="26" height="26" viewBox="0 0 26 26" fill="none" xmlns="http://www.w3.org/2000/svg">
<path d="M25.1237 0H8.41761C8.16691 0 7.96399 0.202918 7.96399 0.453616V7.29899H0.453616C0.202918 7.29899 0 7.50191 0 7.7526V21.0366C0 21.287 0.202918 21.4902 0.453616 21.4902H4.42367L8.15421 25.4355C8.2416 25.528 8.36166 25.5776 8.48383 25.5776C8.54008 25.5776 8.59694 25.5673 8.65137 25.5456C8.82405 25.4769 8.93715 25.3103 8.93745 25.1243L8.93927 21.4902H17.9714C18.2218 21.4902 18.425 21.287 18.425 21.0366V14.1912H25.1234C25.3738 14.1912 25.577 13.988 25.577 13.7376V0.453616C25.5773 0.202918 25.3741 0 25.1237 0ZM17.5178 20.583H8.48595C8.23555 20.583 8.03233 20.7859 8.03233 21.0363L8.03082 23.9845L4.94865 20.7251C4.86307 20.6344 4.74392 20.583 4.61902 20.583H0.907233V8.20622H7.96399V13.7376C7.96399 13.988 8.16691 14.1912 8.41761 14.1912H11.7922V17.5335C11.7922 17.7161 11.9017 17.8809 12.0701 17.9517C12.127 17.9756 12.1866 17.9871 12.2455 17.9871C12.3623 17.9871 12.4769 17.9423 12.5634 17.8571L16.2981 14.1912H17.5178V20.583ZM24.6701 13.284H16.1128C15.9939 13.284 15.8796 13.3306 15.7949 13.414L12.6994 16.4524V13.7373C12.6994 13.4869 12.4965 13.2837 12.2458 13.2837H8.87122V0.907233H24.6701V13.284Z" fill="#797878"/>
<path d="M12.6108 5.40258C12.6127 5.40258 12.6148 5.40258 12.6166 5.40258C13.3902 5.39955 14.0168 4.76781 14.0137 3.99455C14.0107 3.2231 13.382 2.59741 12.6111 2.59741C12.6093 2.59741 12.6072 2.59741 12.6054 2.59741C11.8318 2.60044 11.2052 3.23217 11.2083 4.00544C11.2116 4.77719 11.84 5.40258 12.6108 5.40258ZM12.609 3.50464C12.6096 3.50464 12.6102 3.50464 12.6111 3.50464C12.8833 3.50464 13.1053 3.7254 13.1065 3.99788C13.1071 4.13033 13.056 4.25493 12.9625 4.34867C12.8694 4.44272 12.7451 4.49444 12.613 4.49504C12.4796 4.49897 12.3559 4.44454 12.2622 4.3514C12.1681 4.25825 12.1164 4.13396 12.1158 4.00181C12.1146 3.72873 12.336 3.50585 12.609 3.50464Z" fill="#797878"/>
<path d="M17.0962 5.40258C17.098 5.40258 17.1001 5.40258 17.1019 5.40258C17.8755 5.39955 18.5021 4.76781 18.4991 3.99455C18.4961 3.2231 17.8673 2.59741 17.0965 2.59741C17.0947 2.59741 17.0926 2.59741 17.0908 2.59741C16.3172 2.60044 15.6906 3.23217 15.6936 4.00544C15.6951 4.38012 15.8424 4.73183 16.1085 4.99553C16.3731 5.25833 16.7236 5.40258 17.0962 5.40258ZM17.0944 3.50464C17.095 3.50464 17.0959 3.50464 17.0965 3.50464C17.3687 3.50464 17.5906 3.7254 17.5918 3.99788C17.5925 4.13033 17.5413 4.25493 17.4479 4.34867C17.3548 4.44272 17.2305 4.49444 17.0983 4.49504C17.0977 4.49504 17.0968 4.49504 17.0962 4.49504C16.9646 4.49504 16.841 4.44424 16.7475 4.3514C16.6535 4.25795 16.6018 4.13396 16.6011 4.00151C16.5996 3.72873 16.8213 3.50585 17.0944 3.50464Z" fill="#797878"/>
</svg>
