<svg width="15" height="23" viewBox="0 0 15 23" fill="none" xmlns="http://www.w3.org/2000/svg">
<path d="M14.2556 6.07368L11.5349 6.04346V4.26415C11.5349 1.91277 9.61785 0 7.26178 0C4.90595 0 2.98936 1.91302 2.98936 4.26415V5.94819L0.367281 5.91894C0.26795 5.92111 0.176615 5.95569 0.10781 6.02387C0.0387635 6.09206 0 6.1849 0 6.28162V22.4373C0 22.6378 0.162563 22.8 0.363404 22.8H14.252C14.4528 22.8 14.6154 22.6378 14.6154 22.4373V6.4366C14.6151 6.23785 14.4548 6.0761 14.2556 6.07368ZM3.71617 4.26415C3.71617 2.31293 5.30667 0.72536 7.26178 0.72536C9.21714 0.72536 10.8081 2.31293 10.8081 4.26415V6.03524L3.71617 5.95617V4.26415ZM13.8883 22.0746H0.726566V6.64841L2.98936 6.67355V7.7599C2.48811 7.92359 2.12228 8.38927 2.12228 8.94369C2.12228 9.6335 2.68459 10.1945 3.37554 10.1945C4.06649 10.1945 4.6288 9.63326 4.6288 8.94369C4.6288 8.37259 4.24093 7.89482 3.71593 7.74564V6.68177L10.8079 6.76084V7.75289C10.2948 7.90957 9.91802 8.38105 9.91802 8.94369C9.91802 9.6335 10.4803 10.1945 11.1713 10.1945C11.8622 10.1945 12.4245 9.63326 12.4245 8.94369C12.4245 8.38105 12.0478 7.90932 11.5347 7.75289V6.76906L13.8881 6.79541V22.0746H13.8883ZM3.37554 8.41829C3.66578 8.41829 3.90199 8.65403 3.90199 8.94369C3.90199 9.23335 3.66578 9.46909 3.37554 9.46909C3.0853 9.46909 2.84909 9.23335 2.84909 8.94369C2.84909 8.65403 3.0853 8.41829 3.37554 8.41829ZM11.1715 8.41829C11.4618 8.41829 11.698 8.65403 11.698 8.94369C11.698 9.23335 11.4618 9.46909 11.1715 9.46909C10.8813 9.46909 10.6451 9.23335 10.6451 8.94369C10.6451 8.65403 10.8813 8.41829 11.1715 8.41829Z" fill="#666565"/>
</svg>
