<svg width="24" height="16" viewBox="0 0 24 16" fill="none" xmlns="http://www.w3.org/2000/svg">
<path d="M9.51858 13.3777C11.4231 13.3777 12.9727 11.8281 12.9727 9.92358C12.9727 8.01904 11.4231 6.46948 9.51858 6.46948C7.61404 6.46948 6.06448 8.01904 6.06448 9.92358C6.06448 11.8281 7.61404 13.3777 9.51858 13.3777ZM9.51858 7.23951C10.9986 7.23951 12.2026 8.44358 12.2026 9.92358C12.2026 11.4036 10.9986 12.6076 9.51858 12.6076C8.03858 12.6076 6.83451 11.4036 6.83451 9.92358C6.83451 8.44358 8.03858 7.23951 9.51858 7.23951Z" fill="#757575"/>
<path d="M2.27979 13.3777C2.49257 13.3777 2.6648 13.2053 2.6648 12.9927V6.85431C2.6648 6.64153 2.49257 6.4693 2.27979 6.4693C2.06701 6.4693 1.89478 6.64153 1.89478 6.85431V12.9927C1.89478 13.2053 2.06701 13.3777 2.27979 13.3777Z" fill="#757575"/>
<path d="M16.6411 13.3777C16.8536 13.3777 17.0261 13.2053 17.0261 12.9927V6.85431C17.0261 6.64153 16.8536 6.4693 16.6411 6.4693C16.4286 6.4693 16.2561 6.64153 16.2561 6.85431V12.9927C16.2561 13.2053 16.4286 13.3777 16.6411 13.3777Z" fill="#757575"/>
<path d="M22.7154 0H4.61479C4.402 0 4.22977 0.17223 4.22977 0.385015V2.19869H2.58807C2.37528 2.19869 2.20305 2.37092 2.20305 2.58371V4.60221H0.385015C0.17223 4.60221 0 4.77444 0 4.98722V14.8603C0 15.0728 0.17223 15.2453 0.385015 15.2453H18.4861C18.6986 15.2453 18.8711 15.0728 18.8711 14.8603V12.8423H20.6889C20.9014 12.8423 21.0739 12.6698 21.0739 12.4573V10.6428H22.7154C22.9279 10.6428 23.1004 10.4703 23.1004 10.2578V0.385015C23.1004 0.17223 22.9279 0 22.7154 0ZM18.1011 14.4755H0.770029V5.37224H18.1011V14.4755ZM20.3039 12.0723H18.8711V4.98722C18.8711 4.77444 18.6986 4.60221 18.4861 4.60221H2.97308V2.96872H20.3041V12.0723H20.3039ZM22.3303 9.8728H21.0739V2.58371C21.0739 2.37092 20.9014 2.19869 20.6889 2.19869H4.9998V0.770029H22.3303V9.8728Z" fill="#757575"/>
</svg>
