<svg width="23" height="15" viewBox="0 0 23 15" fill="none" xmlns="http://www.w3.org/2000/svg">
<path d="M22.6238 7.40804H20.6791V4.08165C20.6791 3.87105 20.5107 3.70059 20.3032 3.70059H14.2125V0.381059C14.2125 0.17046 14.0441 0 13.8365 0H0.375952C0.168176 0 0 0.17046 0 0.381059V12.876C0 13.0863 0.168176 13.257 0.375952 13.257H3.51841C3.64874 14.2394 4.47884 15 5.48289 15C6.48693 15 7.31703 14.2394 7.44736 13.257H13.8365H16.2642C16.3945 14.2394 17.2251 15 18.2302 15C19.2352 15 20.0658 14.2394 20.1964 13.257H22.624C22.8316 13.257 23 13.0863 23 12.876V7.7891C22.9997 7.5785 22.8313 7.40804 22.6238 7.40804ZM5.48289 14.2379C4.80341 14.2379 4.25051 13.6772 4.25051 12.988C4.25051 12.2988 4.80341 11.7381 5.48289 11.7381C6.16236 11.7381 6.71526 12.2988 6.71526 12.988C6.71526 13.6772 6.16261 14.2379 5.48289 14.2379ZM5.48289 10.976C4.55679 10.976 3.77932 11.6236 3.56152 12.4949H0.751904V0.762118H13.4606V4.08165V7.7891V12.4947H7.4045C7.1867 11.6236 6.40898 10.976 5.48289 10.976ZM18.2302 14.2379C17.5497 14.2379 16.9963 13.6772 16.9963 12.988C16.9963 12.2988 17.5497 11.7381 18.2302 11.7381C18.9106 11.7381 19.4643 12.2988 19.4643 12.988C19.4643 13.6772 18.9104 14.2379 18.2302 14.2379ZM22.2478 12.4947H20.1533C19.9352 11.6233 19.157 10.9758 18.2302 10.9758C17.3033 10.9758 16.5251 11.6233 16.3073 12.4947H14.2127V7.7891V4.46271H19.9275V7.7891C19.9275 7.99944 20.0959 8.17016 20.3034 8.17016H22.2481V12.4947H22.2478Z" fill="#757575"/>
</svg>
