<svg width="77" height="77" viewBox="0 0 77 77" fill="none" xmlns="http://www.w3.org/2000/svg">
<path d="M38.5 0C17.2372 0 0 17.2372 0 38.5C0 59.7628 17.2372 77 38.5 77C59.7628 77 77 59.7628 77 38.5C77 17.2372 59.7628 0 38.5 0ZM55.1954 43.5889C55.4983 43.9636 56.219 44.6936 57.3588 45.7804H57.3854L57.4119 45.8062L57.4385 45.8335L57.4924 45.8866C60.0032 48.2195 61.7037 50.1877 62.5945 51.7906C62.6484 51.8788 62.7062 51.9912 62.7686 52.1247C62.8303 52.2583 62.8928 52.494 62.9552 52.8321C63.0169 53.1717 63.0122 53.4731 62.9419 53.7401C62.8709 54.0063 62.6484 54.2531 62.2744 54.4748C61.9004 54.6981 61.375 54.8089 60.6981 54.8089L53.8596 54.9167C53.4325 55.0057 52.9336 54.9612 52.3637 54.7832C51.7929 54.6044 51.3307 54.4084 50.9747 54.1953L50.4399 53.8736C49.9051 53.4996 49.2821 52.9297 48.57 52.1646C47.8572 51.3987 47.2474 50.7085 46.74 50.094C46.2325 49.4796 45.6891 48.9643 45.1098 48.5443C44.5305 48.1258 44.0277 47.9876 43.6006 48.1305C43.5475 48.1492 43.4757 48.1804 43.3867 48.2242C43.2969 48.2687 43.1462 48.3967 42.9323 48.6114C42.7184 48.8253 42.5271 49.0884 42.3576 49.3992C42.1882 49.7115 42.0368 50.1744 41.9033 50.7889C41.7698 51.4026 41.7112 52.0935 41.7299 52.8594C41.7299 53.1257 41.6979 53.3716 41.6362 53.5941C41.5738 53.8166 41.5066 53.9814 41.4356 54.0875L41.3286 54.221C41.0077 54.5607 40.5362 54.7558 39.9131 54.8089H36.8409C35.5761 54.8808 34.2762 54.734 32.9411 54.3686C31.606 54.0024 30.4341 53.5316 29.4285 52.9523C28.4214 52.3746 27.5048 51.7867 26.6772 51.1902C25.8488 50.5929 25.2211 50.0815 24.7941 49.6545L24.1265 49.0127C23.9485 48.8355 23.7034 48.5677 23.3918 48.2109C23.0803 47.8549 22.444 47.0452 21.4821 45.7804C20.5203 44.5156 19.5764 43.172 18.6504 41.7463C17.7244 40.3215 16.6337 38.4422 15.3775 36.1094C14.1221 33.7773 12.9603 31.3554 11.8915 28.8438C11.7845 28.5596 11.7307 28.3191 11.7307 28.1231C11.7307 27.928 11.7572 27.7851 11.8111 27.6953L11.918 27.5352C12.1851 27.1964 12.6925 27.027 13.4405 27.027L20.76 26.9739C20.9739 27.0098 21.1784 27.0676 21.3744 27.148C21.5704 27.2276 21.7132 27.3034 21.8022 27.3744L21.9358 27.4548C22.2207 27.6516 22.4339 27.9358 22.5767 28.3097C22.9328 29.2013 23.3427 30.1226 23.8056 31.0751C24.2686 32.0276 24.634 32.7537 24.901 33.2518L25.3281 34.0271C25.8442 35.0952 26.343 36.0219 26.824 36.805C27.3057 37.5889 27.7367 38.1994 28.12 38.6351C28.5026 39.0715 28.8719 39.415 29.2287 39.6633C29.5847 39.9131 29.8876 40.0381 30.1375 40.0381C30.3865 40.0381 30.627 39.9936 30.8589 39.9046C30.894 39.8866 30.9385 39.8421 30.9924 39.771C31.0462 39.7 31.1524 39.504 31.3133 39.1824C31.4733 38.8623 31.5935 38.4438 31.674 37.9269C31.7544 37.4116 31.8387 36.6902 31.9277 35.7643C32.0167 34.8375 32.0167 33.725 31.9277 32.425C31.8918 31.7122 31.8114 31.0626 31.6872 30.4747C31.5623 29.8876 31.4374 29.4777 31.3133 29.2459L31.1524 28.9257C30.7074 28.3207 29.9509 27.9373 28.882 27.7765C28.6501 27.7421 28.6946 27.5282 29.0155 27.1363C29.3185 26.7974 29.6565 26.5312 30.0305 26.3345C30.9744 25.8723 33.1027 25.6583 36.4154 25.6927C37.8754 25.7114 39.0778 25.8262 40.0217 26.0401C40.3777 26.1299 40.6759 26.2494 40.9164 26.4008C41.1569 26.5515 41.3396 26.7662 41.4645 27.041C41.5886 27.3174 41.6823 27.6024 41.7448 27.8959C41.8072 28.1903 41.8385 28.5963 41.8385 29.1116C41.8385 29.6284 41.8299 30.1187 41.8119 30.5809C41.794 31.0439 41.7721 31.6724 41.7455 32.4641C41.719 33.2565 41.7049 33.992 41.7049 34.6681C41.7049 34.8649 41.6964 35.2381 41.6784 35.79C41.6604 36.3428 41.655 36.7699 41.6651 37.072C41.6737 37.375 41.7049 37.7364 41.758 38.1541C41.8119 38.5726 41.9142 38.9208 42.0657 39.1956C42.2163 39.472 42.417 39.6898 42.6668 39.8499C42.8089 39.8866 42.9604 39.9217 43.1212 39.9576C43.2813 39.9928 43.5124 39.896 43.8153 39.6633C44.1174 39.4322 44.4563 39.1246 44.8303 38.742C45.2042 38.3602 45.6672 37.7638 46.2192 36.9526C46.7704 36.1437 47.3763 35.1857 48.0352 34.081C49.104 32.2291 50.0566 30.2249 50.8935 28.0701C50.9646 27.8913 51.0536 27.7359 51.1605 27.6024C51.2675 27.4681 51.3651 27.3744 51.4541 27.3213L51.5611 27.2409C51.5962 27.2229 51.6407 27.2011 51.6946 27.1745C51.7484 27.1488 51.864 27.1215 52.042 27.0941C52.22 27.0684 52.398 27.0637 52.5768 27.0816L60.2702 27.027C60.9643 26.9388 61.5343 26.9606 61.9793 27.0933C62.4243 27.2269 62.7007 27.3744 62.8077 27.5345L62.9685 27.8015C63.3776 28.9421 62.0425 31.5584 58.9617 35.655C58.5339 36.2257 57.9546 36.983 57.2253 37.9262C55.8364 39.7078 55.0354 40.8742 54.823 41.4278C54.5185 42.1562 54.6434 42.8776 55.1954 43.5889Z" fill="#3959A8"/>
</svg>
