<svg width="77" height="77" viewBox="0 0 77 77" fill="none" xmlns="http://www.w3.org/2000/svg">
<path d="M34.1308 44.1338L46.0535 37.809L34.1308 31.6123V44.1338Z" fill="#E21E22"/>
<path d="M38.5 0C17.2372 0 0 17.2372 0 38.5C0 59.7628 17.2372 77 38.5 77C59.7628 77 77 59.7628 77 38.5C77 17.2372 59.7628 0 38.5 0ZM59.9962 47.4668C59.4832 50.7147 57.9132 52.4784 54.6114 52.8516C50.9216 53.2685 42.6254 53.4606 38.938 53.4606C35.1225 53.4606 27.4056 53.3005 23.5535 52.9797C20.2423 52.7041 17.9829 50.8545 17.5277 47.5629C17.1966 45.166 16.9827 42.3171 16.9827 37.7872C16.9827 32.7444 17.1646 30.6106 17.5917 28.3324C18.2015 25.0814 19.7536 23.5066 23.2966 23.1404C27.0145 22.7555 30.5294 22.5635 38.393 22.5635C42.2374 22.5635 50.5258 22.7626 54.3545 23.1084C57.6985 23.4106 59.5824 25.4561 59.9954 28.7173C60.2835 30.9932 60.5404 34.2512 60.5404 37.756C60.5412 43.909 59.9962 47.4668 59.9962 47.4668Z" fill="#E21E22"/>
</svg>
