<svg width="11" height="11" viewBox="0 0 11 11" fill="none" xmlns="http://www.w3.org/2000/svg">
<path fill-rule="evenodd" clip-rule="evenodd" d="M10.6368 10.6368C10.4362 10.8374 10.1109 10.8374 9.91033 10.6368L0.363225 1.08967C0.162621 0.889071 0.162621 0.563828 0.363225 0.363225C0.563828 0.162621 0.889071 0.162621 1.08967 0.363225L10.6368 9.91032C10.8374 10.1109 10.8374 10.4362 10.6368 10.6368Z" fill="black"/>
<path fill-rule="evenodd" clip-rule="evenodd" d="M10.6368 0.363225C10.8374 0.563828 10.8374 0.889071 10.6368 1.08967L1.08967 10.6368C0.889071 10.8374 0.563828 10.8374 0.363225 10.6368C0.162621 10.4362 0.162621 10.1109 0.363225 9.91033L9.91033 0.363225C10.1109 0.162621 10.4362 0.162621 10.6368 0.363225Z" fill="black"/>
</svg>
