<svg width="42" height="49" viewBox="0 0 42 49" fill="none" xmlns="http://www.w3.org/2000/svg">
<path d="M21.1877 28.6817C10.5016 28.6817 1.80737 37.3765 1.80737 48.0642C1.80737 48.5179 2.17507 48.8862 2.62934 48.8862H39.7461C40.1998 48.8862 40.568 48.5179 40.568 48.0642C40.568 37.3765 31.8744 28.6817 21.1877 28.6817ZM3.46994 47.2423C3.90065 37.8411 11.683 30.3256 21.1877 30.3256C30.6924 30.3256 38.4753 37.8411 38.9055 47.2423H3.46994Z" fill="#E21E22"/>
<path d="M20.8648 4.37558C14.7121 4.37558 9.7063 9.38136 9.7063 15.534C9.7063 21.6867 14.7121 26.6925 20.8648 26.6925C27.018 26.6925 32.0232 21.6867 32.0232 15.534C32.0232 9.38136 27.0175 4.37558 20.8648 4.37558ZM20.8648 25.0486C15.6184 25.0486 11.3502 20.7804 11.3502 15.534C11.3502 10.2877 15.6184 6.01951 20.8648 6.01951C26.1111 6.01951 30.3793 10.2877 30.3793 15.534C30.3793 20.7804 26.1111 25.0486 20.8648 25.0486Z" fill="#E21E22"/>
<path d="M7.30893 21.6424C7.7632 21.6424 8.13089 21.2747 8.13089 20.8204V10.1831C8.13089 10.1305 8.12486 10.0795 8.11555 10.0296C10.3179 4.92303 15.2688 1.64338 20.8653 1.64338C26.5621 1.64338 31.5958 5.04194 33.7351 10.3102V20.7585C33.0458 22.4561 32.0446 23.9828 30.7487 25.2957C30.4297 25.619 30.433 26.1391 30.7563 26.458C30.9163 26.6164 31.1251 26.6953 31.3339 26.6953C31.546 26.6953 31.758 26.6136 31.9186 26.4509C33.2995 25.0519 34.3818 23.4348 35.1478 21.6429H35.7254C39.1114 21.6429 41.866 18.8882 41.866 15.5023C41.866 12.1163 39.1114 9.36165 35.7254 9.36165H35.1128C32.6452 3.66104 27.1145 0 20.8653 0C14.6129 0 9.08163 3.66049 6.61518 9.36165H6.14064C2.75468 9.36165 0 12.1163 0 15.5023C0 18.8882 2.75468 21.6429 6.14064 21.6429H7.30893V21.6424ZM40.2221 15.5017C40.2221 17.9813 38.2044 19.9984 35.7254 19.9984H35.3791V11.005H35.7254C38.205 11.005 40.2221 13.0221 40.2221 15.5017ZM1.64393 15.5017C1.64393 13.0221 3.66104 11.005 6.14064 11.005H6.48696V19.9984H6.14064C3.66104 19.9984 1.64393 17.9813 1.64393 15.5017Z" fill="#E21E22"/>
</svg>
