<svg width="34" height="47" viewBox="0 0 34 47" fill="none" xmlns="http://www.w3.org/2000/svg">
<path d="M27.9469 0H5.31538C2.4111 0 0 2.3563 0 5.26058V41.5367C0 44.441 2.3563 46.7973 5.31538 46.7973H27.9469C30.8511 46.7973 33.2622 44.441 33.2622 41.5367V5.26058C33.2622 2.3563 30.9059 0 27.9469 0ZM31.6183 41.5367C31.6183 43.5642 29.9744 45.1534 27.9469 45.1534H5.31538C3.28787 45.1534 1.64393 43.5094 1.64393 41.5367V5.26058C1.64393 3.23307 3.28787 1.64393 5.31538 1.64393H27.9469C29.9744 1.64393 31.6183 3.28787 31.6183 5.26058V41.5367Z" fill="#E21E22"/>
<path d="M23.3438 5.20578H9.80878C9.3704 5.20578 8.98682 5.58936 8.98682 6.02775C8.98682 6.46613 9.3704 6.84971 9.80878 6.84971H23.3438C23.7822 6.84971 24.1658 6.46613 24.1658 6.02775C24.1658 5.58936 23.7822 5.20578 23.3438 5.20578Z" fill="#E21E22"/>
<path d="M16.6037 36.6049C15.0693 36.6049 13.8638 37.8652 13.8638 39.3448C13.8638 40.0571 14.1378 40.7695 14.6857 41.2627C15.1789 41.7559 15.8913 42.0299 16.6037 42.0299C18.138 42.0299 19.3435 40.7695 19.3435 39.29C19.3435 37.8104 18.138 36.6049 16.6037 36.6049ZM16.6585 40.4407C16.3845 40.4407 16.1105 40.3311 15.8913 40.1119C15.6721 39.8928 15.5625 39.6188 15.5625 39.3448C15.5625 38.742 16.0557 38.2488 16.6585 38.2488C17.2612 38.2488 17.7544 38.742 17.7544 39.3448C17.7544 39.9476 17.2612 40.4407 16.6585 40.4407Z" fill="#E21E22"/>
</svg>
