<svg width="19" height="19" viewBox="0 0 19 19" fill="none" xmlns="http://www.w3.org/2000/svg">
<path d="M9.1965 1.76141C5.09633 1.76141 1.76074 5.09723 1.76074 9.19717C1.76074 13.2971 5.09656 16.6329 9.1965 16.6329C13.2967 16.6329 16.6325 13.2971 16.6325 9.19717C16.6325 5.09723 13.2967 1.76141 9.1965 1.76141ZM9.1965 15.8359C5.53585 15.8359 2.55757 12.8578 2.55757 9.19717C2.55757 5.53652 5.53585 2.55824 9.1965 2.55824C12.8571 2.55824 15.8352 5.53652 15.8352 9.19717C15.8352 12.8578 12.8571 15.8359 9.1965 15.8359Z" fill="#E21E22"/>
<path d="M11.0757 7.98905L9.47186 9.59287V3.88822C9.47186 3.66813 9.29331 3.48981 9.07322 3.48981C8.85313 3.48981 8.6748 3.66813 8.6748 3.88822V10.5548C8.6748 10.5811 8.67746 10.6074 8.68276 10.6332C8.68497 10.6445 8.68917 10.6549 8.69248 10.6659C8.69646 10.6798 8.69977 10.694 8.70552 10.7077C8.71104 10.7209 8.71856 10.7329 8.72541 10.7455C8.73093 10.7559 8.73557 10.7665 8.7422 10.7764C8.77137 10.8202 8.80916 10.8577 8.85291 10.8871C8.86109 10.8926 8.86992 10.8962 8.87832 10.9008C8.89246 10.9088 8.90616 10.9172 8.92141 10.9236C8.93334 10.9284 8.94594 10.9313 8.95809 10.9351C8.97069 10.9388 8.98262 10.9437 8.99566 10.9461C9.02129 10.9512 9.04737 10.9541 9.07344 10.9541C9.09952 10.9541 9.12559 10.9514 9.15122 10.9461C9.16426 10.9435 9.17641 10.9388 9.18901 10.9348C9.20116 10.9311 9.21354 10.9284 9.22547 10.9236C9.24094 10.9172 9.25508 10.9085 9.26944 10.9004C9.27762 10.8957 9.28602 10.8924 9.29397 10.8871C9.31629 10.8723 9.33706 10.8555 9.35562 10.8365L11.6394 8.55275C11.7949 8.39718 11.7949 8.14483 11.6394 7.98927C11.4836 7.83326 11.2315 7.83326 11.0757 7.98905Z" fill="#E21E22"/>
<path d="M9.19713 0C4.12579 0 0 4.12579 0 9.19736C0 14.2689 4.12579 18.3945 9.19713 18.3945C14.2685 18.3945 18.3945 14.2687 18.3945 9.19736C18.3945 4.12602 14.2685 0 9.19713 0ZM9.19713 17.5972C4.56531 17.5972 0.79683 13.829 0.79683 9.19713C0.79683 4.56531 4.56509 0.79683 9.19713 0.79683C13.8292 0.79683 17.5972 4.56531 17.5972 9.19713C17.5972 13.829 13.829 17.5972 9.19713 17.5972Z" fill="#E21E22"/>
</svg>
