<svg width="42" height="51" viewBox="0 0 42 51" fill="none" xmlns="http://www.w3.org/2000/svg">
<path d="M40.9239 11.8885C41.7292 7.84306 42.0871 2.61865 39.2157 0.70599C36.3448 -1.20883 31.6605 1.13223 28.2365 3.43316C24.569 5.89787 20.7085 9.48566 19.0561 11.965L17.7882 13.8679C15.9086 13.8148 9.58121 13.7128 7.28896 14.6477C4.78737 15.6705 0.229429 21.0614 0.0103441 23.2576C-0.0688302 24.0461 0.324872 24.4339 0.565106 24.5933C1.03419 24.9067 2.34707 25.0201 4.00268 25.0201C5.99397 25.0201 8.47548 24.8558 10.5861 24.6779L10.0313 25.5103C10.0286 25.5141 10.0253 25.5174 10.0226 25.5212C10.0199 25.525 10.0188 25.5298 10.0161 25.5336L6.52487 30.7743C4.18272 34.2889 4.19031 38.8794 6.48311 42.382L4.98151 44.6352C4.38825 45.5257 4.19248 46.601 4.43055 47.6645C4.6659 48.7143 5.29767 49.6265 6.20871 50.2328C6.93159 50.7149 7.74773 50.9459 8.54761 50.9459C9.8426 50.9459 11.0964 50.3401 11.8485 49.2122L13.3469 46.9633C13.9879 47.0837 14.6321 47.1439 15.272 47.1439C18.7394 47.1439 22.0729 45.421 24.0528 42.4514L28.3905 35.9413C29.5781 39.6337 31.2929 44.4698 32.3259 45.1569C32.468 45.2513 32.7028 45.3646 33.0152 45.3646C33.2332 45.3646 33.4886 45.3088 33.776 45.1537C35.7179 44.1038 38.937 37.8214 38.9164 35.1202C38.899 32.6447 36.3649 26.8422 35.5927 25.1313L36.5824 23.6459C38.2353 21.1687 40.0611 16.2241 40.9239 11.8885ZM20.4097 12.8674C21.7377 10.8745 25.1644 7.45804 29.1438 4.78347C33.3389 1.96464 36.68 0.97117 38.3133 2.06009C39.9451 3.14684 40.3149 6.61315 39.328 11.5713C38.3914 16.2751 36.5574 20.7523 35.2288 22.7441L26.6487 35.6224L16.4916 28.8557C16.4878 28.853 16.4851 28.8497 16.4808 28.847C16.477 28.8443 16.4726 28.8432 16.4683 28.8405L11.8279 25.7489L18.8533 15.2036C18.8744 15.1764 18.8929 15.1477 18.9108 15.1179L20.4097 12.8674ZM1.63938 23.2924C1.89697 21.9101 5.73421 17.0414 7.90391 16.1542C9.46462 15.5181 13.9548 15.4373 16.7183 15.4742L11.7428 22.9426C7.55685 23.3265 2.79229 23.544 1.63938 23.2924ZM7.87842 31.6772L10.9266 27.1019L14.9016 29.7499L7.48038 40.8864C5.91262 38.0161 6.0303 34.4505 7.87842 31.6772ZM10.4955 48.3103C9.77644 49.3879 8.25803 49.6444 7.11108 48.8792C6.54927 48.5061 6.16153 47.9481 6.01783 47.3087C5.87792 46.684 5.99071 46.055 6.33507 45.5376L8.13601 42.8354C8.14794 42.818 8.16041 42.8012 8.17072 42.7833L16.2552 30.6518L20.4145 33.4229L10.4955 48.3103ZM22.7003 41.5491C20.8495 44.3245 17.6006 45.8066 14.3474 45.4628L21.7686 34.3247L25.7474 36.9754L22.7003 41.5491ZM37.29 35.1327C37.3079 37.4748 34.3037 42.8755 33.1225 43.6607C32.4154 42.6326 30.7961 38.1869 29.5478 34.2048L34.5227 26.7375C35.622 29.2727 37.2776 33.4473 37.29 35.1327Z" fill="#E21E22"/>
<path d="M24.8148 21.7664C25.8983 22.4892 27.1255 22.8352 28.3402 22.8352C30.4026 22.8352 32.4296 21.8379 33.659 19.9958L33.6595 19.9952C35.6064 17.068 34.8103 13.1006 31.8852 11.151C30.4671 10.2064 28.7648 9.87123 27.0968 10.2058C25.426 10.5404 23.9867 11.5051 23.0437 12.9227C22.0985 14.3402 21.7623 16.0409 22.0968 17.7111C22.4309 19.3808 23.3967 20.8211 24.8148 21.7664ZM24.3978 13.824C25.1 12.7687 26.1716 12.0502 27.4156 11.8007C27.7302 11.7378 28.0458 11.7069 28.3587 11.7069C29.2865 11.7069 30.1938 11.9791 30.9828 12.5051C33.1623 13.9574 33.755 16.9123 32.3049 19.0934C30.8494 21.2745 27.8939 21.8645 25.7172 20.4133C24.6602 19.7089 23.9406 18.6363 23.6917 17.3922C23.4423 16.1471 23.6928 14.8809 24.3978 13.824Z" fill="#E21E22"/>
</svg>
