<svg width="16" height="13" viewBox="0 0 16 13" fill="none" xmlns="http://www.w3.org/2000/svg">
<path fill-rule="evenodd" clip-rule="evenodd" d="M5.46779 9.97846L3.0572 12.3891C2.90927 12.537 2.66944 12.537 2.52151 12.3891L0.11092 9.97846C-0.0370054 9.83054 -0.0370054 9.5907 0.11092 9.44278C0.258846 9.29485 0.498682 9.29485 0.646608 9.44278L2.41057 11.2067L2.41057 -1.38485e-07L3.16814 -1.0537e-07L3.16814 11.2067L4.9321 9.44278C5.08003 9.29485 5.31986 9.29485 5.46779 9.44278C5.61572 9.5907 5.61572 9.83054 5.46779 9.97846Z" fill="black"/>
<path d="M7.33484 0.378788C7.33484 0.169589 7.50443 0 7.71363 0H15.2894C15.4986 0 15.6682 0.169589 15.6682 0.378788C15.6682 0.587987 15.4986 0.757576 15.2894 0.757576H7.71363C7.50443 0.757576 7.33484 0.587987 7.33484 0.378788Z" fill="black"/>
<path d="M7.33484 2.65149C7.33484 2.44229 7.50443 2.27271 7.71363 2.27271H13.7742C13.9834 2.27271 14.153 2.44229 14.153 2.65149C14.153 2.86069 13.9834 3.03028 13.7742 3.03028H7.71363C7.50443 3.03028 7.33484 2.86069 7.33484 2.65149Z" fill="black"/>
<path d="M7.33484 4.9242C7.33484 4.715 7.50443 4.54541 7.71363 4.54541H12.2591C12.4683 4.54541 12.6379 4.715 12.6379 4.9242C12.6379 5.1334 12.4683 5.30299 12.2591 5.30299H7.71363C7.50443 5.30299 7.33484 5.1334 7.33484 4.9242Z" fill="black"/>
<path d="M7.33484 7.19703C7.33484 6.98783 7.50443 6.81824 7.71363 6.81824H10.7439C10.9531 6.81824 11.1227 6.98783 11.1227 7.19703C11.1227 7.40622 10.9531 7.57581 10.7439 7.57581H7.71363C7.50443 7.57581 7.33484 7.40622 7.33484 7.19703Z" fill="black"/>
</svg>
