<svg width="17" height="17" viewBox="0 0 17 17" fill="none" xmlns="http://www.w3.org/2000/svg">
<path d="M16.6869 2.79044H13.742C13.6229 1.22699 12.5731 0 11.2993 0H5.70048C4.42672 0 3.37692 1.22699 3.25795 2.79044H0.313064C0.140044 2.79044 0 2.93234 0 3.10765V16.6828C0 16.8579 0.140044 17 0.313064 17H16.6869C16.8597 17 17 16.8579 17 16.6828V3.10765C17 2.93255 16.8597 2.79044 16.6869 2.79044ZM5.70048 0.634431H11.2993C12.2327 0.634431 13.0034 1.57783 13.1132 2.79044H3.88679C3.99637 1.57762 4.76734 0.634431 5.70048 0.634431ZM16.3739 16.3656H0.626128V3.42487H16.3739V16.3656Z" fill="black"/>
</svg>
