<?xml version="1.0" encoding="iso-8859-1"?>
<!-- Generator: Adobe Illustrator 19.0.0, SVG Export Plug-In . SVG Version: 6.00 Build 0)  -->
<svg version="1.1" id="Capa_1" xmlns="http://www.w3.org/2000/svg" xmlns:xlink="http://www.w3.org/1999/xlink" x="0px" y="0px"
	 viewBox="0 0 512 512" style="enable-background:new 0 0 512 512;" xml:space="preserve">
<g>
	<g>
		<path d="M420,245.025c-5.523,0-10,4.477-10,10v108.888c0,45.425-36.421,82.734-81.188,83.168
			c-0.273,0.003-0.545,0.005-0.818,0.005c-21.719,0-42.168-8.421-57.661-23.765C254.642,407.782,246,387.101,246,365.086V200.873
			c0-34.026-27.277-62.225-60.805-62.861c-16.764-0.324-32.608,5.984-44.597,17.748C128.605,167.527,122,183.238,122,200v123.006
			c-3.232-0.659-6.576-1.006-10-1.006s-6.768,0.347-10,1.006V201.173c0-45.425,36.421-82.735,81.188-83.169
			c22.016-0.209,42.792,8.225,58.479,23.76C257.358,157.304,266,177.986,266,200v38.047c0,5.523,4.477,10,10,10s10-4.477,10-10V200
			c0-27.393-10.747-53.122-30.26-72.446c-19.509-19.321-45.324-29.813-72.747-29.549C127.306,98.545,82,144.827,82,201.173v130.854
			c-12.136,9.131-20,23.65-20,39.973v73.833C62,455.851,70.149,464,80.167,464H82v18c0,16.542,13.458,30,30,30s30-13.458,30-30v-18
			h1.833C153.85,464,162,455.851,162,445.833V372c0-16.323-7.864-30.842-20-39.973V200c0-11.348,4.477-21.989,12.605-29.965
			c8.125-7.971,18.86-12.222,30.211-12.027c22.709,0.431,41.184,19.66,41.184,42.865v164.213c0,27.394,10.747,53.122,30.26,72.446
			c19.269,19.083,44.704,29.554,71.729,29.554c0.337,0,0.68-0.002,1.018-0.005C384.694,466.54,430,420.26,430,363.913V255.025
			C430,249.502,425.523,245.025,420,245.025z M122,482c0,5.514-4.486,10-10,10s-10-4.486-10-10v-18h20V482z M142,405.333h-30
			c-5.523,0-10,4.478-10,10c0,5.522,4.477,10,10,10h30V444H82v-72c0-16.542,13.458-30,30-30s30,13.458,30,30V405.333z"/>
	</g>
</g>
<g>
	<g>
		<path d="M427.07,209.93c-1.86-1.86-4.44-2.93-7.07-2.93s-5.21,1.07-7.07,2.93c-1.86,1.86-2.93,4.44-2.93,7.07s1.07,5.21,2.93,7.07
			S417.37,227,420,227s5.21-1.07,7.07-2.93c1.86-1.86,2.93-4.44,2.93-7.07S428.93,211.79,427.07,209.93z"/>
	</g>
</g>
<g>
	<g>
		<path d="M283.07,269.93c-1.86-1.86-4.44-2.93-7.07-2.93s-5.21,1.069-7.07,2.93c-1.86,1.86-2.93,4.44-2.93,7.07
			s1.07,5.21,2.93,7.069c1.86,1.86,4.44,2.931,7.07,2.931s5.21-1.07,7.07-2.931c1.86-1.859,2.93-4.439,2.93-7.069
			S284.93,271.79,283.07,269.93z"/>
	</g>
</g>
<g>
	<g>
		<path d="M431.833,48H430V30c0-16.542-13.458-30-30-30s-30,13.458-30,30v18h-1.833C358.149,48,350,56.149,350,66.167V140
			c0,16.323,7.864,30.843,20.001,39.974c0,0.009-0.001,0.017-0.001,0.026v185.086c0,11.348-4.477,21.988-12.605,29.965
			c-8.124,7.971-18.818,12.24-30.211,12.027C304.475,406.647,286,387.418,286,364.213V318c0-5.522-4.477-10-10-10s-10,4.478-10,10
			v46.213c0,34.026,27.277,62.226,60.805,62.861c0.404,0.008,0.806,0.012,1.209,0.012c16.32,0,31.688-6.28,43.388-17.76
			C383.395,397.559,390,381.847,390,365.086V188.994c3.232,0.659,6.576,1.006,10,1.006c27.57,0,50-22.43,50-50V66.167
			C450,56.149,441.851,48,431.833,48z M390,30c0-5.514,4.486-10,10-10c5.514,0,10,4.486,10,10v18h-20V30z M430,140
			c0,16.542-13.458,30-30,30s-30-13.458-30-30v-33.333h30c5.523,0,10-4.477,10-10s-4.477-10-10-10h-30V68h60V140z"/>
	</g>
</g>
<g>
</g>
<g>
</g>
<g>
</g>
<g>
</g>
<g>
</g>
<g>
</g>
<g>
</g>
<g>
</g>
<g>
</g>
<g>
</g>
<g>
</g>
<g>
</g>
<g>
</g>
<g>
</g>
<g>
</g>
</svg>
