<svg width="18" height="19" viewBox="0 0 18 19" fill="none" xmlns="http://www.w3.org/2000/svg">
<path fill-rule="evenodd" clip-rule="evenodd" d="M10.481 2.67132C10.0221 3.21227 9.85561 3.84972 9.87783 4.23512L9.87843 4.24538V14.5328L9.87836 14.5363C9.86713 15.1112 9.68574 15.965 9.16801 16.6852C8.6379 17.4225 7.76714 18 6.43921 18C5.11129 18 4.24052 17.4225 3.71042 16.6852C3.19268 15.965 3.01129 15.1112 3.00007 14.5363L3 14.5328V9.04697H3.70002V14.5258C3.70975 14.9901 3.86189 15.6929 4.27702 16.2703C4.68078 16.8319 5.34447 17.2936 6.43921 17.2936C7.53395 17.2936 8.19765 16.8319 8.60141 16.2703C9.01653 15.6929 9.16868 14.9901 9.17841 14.5258V4.26535C9.14837 3.68405 9.38571 2.87619 9.94923 2.21192C10.5285 1.52911 11.4498 1 12.7698 1C14.0938 1 14.9368 1.53378 15.4281 2.23835C15.9024 2.91851 16.0251 3.72224 15.996 4.26554V9.04697H15.2959V4.24538L15.2965 4.23512C15.321 3.81105 15.2215 3.16963 14.8556 2.64489C14.5036 2.14011 13.8806 1.70641 12.7698 1.70641C11.655 1.70641 10.9277 2.14479 10.481 2.67132Z" fill="black"/>
<path fill-rule="evenodd" clip-rule="evenodd" d="M5.15183 3.6686H0.848167C0.778771 3.6686 0.722513 3.72066 0.722513 3.78488V7.21512C0.722513 7.27934 0.778771 7.3314 0.848167 7.3314H5.15183C5.22123 7.3314 5.27749 7.27934 5.27749 7.21512V3.78488C5.27749 3.72066 5.22123 3.6686 5.15183 3.6686ZM0.848167 3C0.379737 3 0 3.3514 0 3.78488V7.21512C0 7.6486 0.379737 8 0.848167 8H5.15183C5.62026 8 6 7.6486 6 7.21512V3.78488C6 3.3514 5.62026 3 5.15183 3H0.848167Z" fill="black"/>
<path fill-rule="evenodd" clip-rule="evenodd" d="M12.8482 15.3314L17.1518 15.3314C17.2212 15.3314 17.2775 15.2793 17.2775 15.2151L17.2775 11.7849C17.2775 11.7207 17.2212 11.6686 17.1518 11.6686L12.8482 11.6686C12.7788 11.6686 12.7225 11.7207 12.7225 11.7849L12.7225 15.2151C12.7225 15.2793 12.7788 15.3314 12.8482 15.3314ZM17.1518 16C17.6203 16 18 15.6486 18 15.2151L18 11.7849C18 11.3514 17.6203 11 17.1518 11L12.8482 11C12.3797 11 12 11.3514 12 11.7849L12 15.2151C12 15.6486 12.3797 16 12.8482 16L17.1518 16Z" fill="black"/>
<path fill-rule="evenodd" clip-rule="evenodd" d="M4.19403 0.807018H1.80597C1.74003 0.807018 1.68657 0.869855 1.68657 0.947368V3.05263C1.68657 3.13015 1.74003 3.19298 1.80597 3.19298H4.19403C4.25997 3.19298 4.31343 3.13015 4.31343 3.05263V0.947368C4.31343 0.869855 4.25997 0.807018 4.19403 0.807018ZM1.80597 0C1.36085 0 1 0.424151 1 0.947368V3.05263C1 3.57585 1.36085 4 1.80597 4H4.19403C4.63915 4 5 3.57585 5 3.05263V0.947368C5 0.424151 4.63915 0 4.19403 0H1.80597Z" fill="black"/>
<path fill-rule="evenodd" clip-rule="evenodd" d="M13.806 18.193L16.194 18.193C16.26 18.193 16.3134 18.1301 16.3134 18.0526L16.3134 15.9474C16.3134 15.8699 16.26 15.807 16.194 15.807L13.806 15.807C13.74 15.807 13.6866 15.8699 13.6866 15.9474L13.6866 18.0526C13.6866 18.1301 13.74 18.193 13.806 18.193ZM16.194 19C16.6392 19 17 18.5758 17 18.0526L17 15.9474C17 15.4242 16.6392 15 16.194 15L13.806 15C13.3608 15 13 15.4242 13 15.9474L13 18.0526C13 18.5758 13.3608 19 13.806 19L16.194 19Z" fill="black"/>
<path fill-rule="evenodd" clip-rule="evenodd" d="M14.4706 18.44L15.5294 18.44C15.5619 18.44 15.5882 18.4042 15.5882 18.36L15.5882 16.64C15.5882 16.5958 15.5619 16.56 15.5294 16.56L14.4706 16.56C14.4381 16.56 14.4118 16.5958 14.4118 16.64L14.4118 18.36C14.4118 18.4042 14.4381 18.44 14.4706 18.44ZM15.5294 19C15.7893 19 16 18.7135 16 18.36L16 16.64C16 16.2865 15.7893 16 15.5294 16L14.4706 16C14.2107 16 14 16.2865 14 16.64L14 18.36C14 18.7135 14.2107 19 14.4706 19L15.5294 19Z" fill="black"/>
<path fill-rule="evenodd" clip-rule="evenodd" d="M4.09244 8.61538H1.90756C1.77761 8.61538 1.67227 8.71182 1.67227 8.83077V9.16923C1.67227 9.28818 1.77761 9.38462 1.90756 9.38462H4.09244C4.22239 9.38462 4.32773 9.28818 4.32773 9.16923V8.83077C4.32773 8.71182 4.22239 8.61538 4.09244 8.61538ZM1.90756 8C1.40633 8 1 8.37195 1 8.83077V9.16923C1 9.62805 1.40633 10 1.90756 10H4.09244C4.59367 10 5 9.62805 5 9.16923V8.83077C5 8.37195 4.59367 8 4.09244 8H1.90756Z" fill="black"/>
<path fill-rule="evenodd" clip-rule="evenodd" d="M13.9076 10.3846L16.0924 10.3846C16.2224 10.3846 16.3277 10.2882 16.3277 10.1692L16.3277 9.83077C16.3277 9.71182 16.2224 9.61538 16.0924 9.61538L13.9076 9.61538C13.7776 9.61538 13.6723 9.71182 13.6723 9.83077L13.6723 10.1692C13.6723 10.2882 13.7776 10.3846 13.9076 10.3846ZM16.0924 11C16.5937 11 17 10.6281 17 10.1692L17 9.83077C17 9.37195 16.5937 9 16.0924 9L13.9076 9C13.4063 9 13 9.37195 13 9.83077L13 10.1692C13 10.6281 13.4063 11 13.9076 11L16.0924 11Z" fill="black"/>
</svg>
