<svg width="28" height="31" viewBox="0 0 28 31" fill="none" xmlns="http://www.w3.org/2000/svg">
<path fill-rule="evenodd" clip-rule="evenodd" d="M12.8646 15.0839L15.6274 14.0263L14.3571 15.4282C14.2633 15.5317 14.2119 15.6667 14.2132 15.8064L14.2292 17.6397L11.9319 18.4127L12.8707 17.3946C12.9759 17.2806 13.0286 17.1278 13.0162 16.9732L12.8646 15.0839ZM14.6175 17.9891C14.659 17.9751 14.6868 17.9361 14.6864 17.8924L14.6681 15.8024C14.6679 15.777 14.6773 15.7525 14.6943 15.7337L16.9592 13.2341C17.0306 13.1552 16.9475 13.0337 16.8481 13.0718L12.4546 14.7537C12.4127 14.7697 12.3863 14.8115 12.3899 14.8562L12.5627 17.0096C12.565 17.0377 12.5554 17.0655 12.5362 17.0862L10.6605 19.1204C10.5895 19.1973 10.6678 19.3181 10.767 19.2848L14.6175 17.9891Z" fill="black"/>
<path fill-rule="evenodd" clip-rule="evenodd" d="M23.4861 12.8353L11.2376 6.22494C10.8932 6.03908 10.4589 6.17589 10.2675 6.5305C10.0761 6.88511 10.2002 7.32325 10.5445 7.50911L22.7931 14.1195C23.1375 14.3053 23.5718 14.1685 23.7632 13.8139C23.9545 13.4593 23.8305 13.0212 23.4861 12.8353ZM11.5099 5.72045C10.8949 5.38856 10.1193 5.63285 9.77757 6.26608C9.43582 6.89932 9.65731 7.68171 10.2723 8.0136L22.5208 14.624C23.1358 14.9559 23.9114 14.7116 24.2531 14.0784C24.5949 13.4451 24.3734 12.6627 23.7584 12.3308L11.5099 5.72045Z" fill="black"/>
<path fill-rule="evenodd" clip-rule="evenodd" d="M22.0634 14.4937L10.6318 8.32424L7.00312 15.048C6.19884 16.5383 6.75227 18.3969 8.23922 19.1994L14.286 22.4628C15.773 23.2653 17.6304 22.7077 18.4347 21.2175L22.0634 14.4937ZM10.3279 7.30341L6.34106 14.6907C5.33901 16.5474 6.02852 18.8631 7.88112 19.8629L13.9279 23.1263C15.7805 24.1261 18.0947 23.4315 19.0967 21.5748L23.0835 14.1875L10.3279 7.30341Z" fill="black"/>
<path fill-rule="evenodd" clip-rule="evenodd" d="M12.403 22.1895L9.50068 20.6232L8.78669 21.9462L11.689 23.5125L12.403 22.1895ZM9.76248 20.1381C9.49533 19.9939 9.16155 20.0942 9.01697 20.3621L8.30297 21.6851C8.15839 21.953 8.25774 22.2871 8.52489 22.4313L11.4272 23.9976C11.6943 24.1417 12.0281 24.0414 12.1727 23.7735L12.8867 22.4506C13.0312 22.1827 12.9319 21.8486 12.6647 21.7044L9.76248 20.1381Z" fill="black"/>
<path fill-rule="evenodd" clip-rule="evenodd" d="M10.7549 23.5262L9.43193 22.8122L8.56775 24.4135L9.89072 25.1275L10.7549 23.5262ZM9.69598 22.323C9.42807 22.1784 9.09267 22.2802 8.94684 22.5504L8.08266 24.1517C7.93683 24.4219 8.03579 24.7582 8.3037 24.9028L9.62667 25.6167C9.89458 25.7613 10.23 25.6595 10.3758 25.3893L11.24 23.788C11.3858 23.5178 11.2869 23.1815 11.019 23.0369L9.69598 22.323Z" fill="black"/>
<path d="M8.57485 24.9543C8.68117 24.7573 8.92778 24.6842 9.12567 24.791C9.32356 24.8978 9.39778 25.1441 9.29146 25.3411L8.5936 26.6342C8.48728 26.8312 8.24067 26.9043 8.04278 26.7975C7.84489 26.6907 7.77067 26.4444 7.87699 26.2474L8.57485 24.9543Z" fill="black"/>
<path fill-rule="evenodd" clip-rule="evenodd" d="M14.4321 7.29759L16.4643 3.53212C16.6359 3.21407 16.5081 2.81217 16.1789 2.63446C15.8496 2.45675 15.4435 2.57052 15.2718 2.88858L13.2397 6.65404L12.6893 6.35702L14.7215 2.59156C15.0516 1.97991 15.8325 1.76111 16.4657 2.10286C17.099 2.44461 17.3447 3.2175 17.0146 3.82915L14.9825 7.59461L14.4321 7.29759Z" fill="black"/>
<path fill-rule="evenodd" clip-rule="evenodd" d="M21.9191 11.3384L23.9513 7.57289C24.1229 7.25483 24.0118 6.86193 23.7031 6.69533C23.3944 6.52873 23.005 6.65151 22.8333 6.96956L20.8012 10.735L20.2852 10.4566L22.3174 6.69111C22.6475 6.07946 23.3963 5.84335 23.99 6.16374C24.5837 6.48413 24.7973 7.2397 24.4672 7.85134L22.435 11.6168L21.9191 11.3384Z" fill="black"/>
</svg>
