<svg height="480pt" viewBox="0 0 480 480" width="480pt" xmlns="http://www.w3.org/2000/svg"><path d="m120 288c-13.253906 0-24 10.746094-24 24s10.746094 24 24 24 24-10.746094 24-24-10.746094-24-24-24zm0 32c-4.417969 0-8-3.582031-8-8s3.582031-8 8-8 8 3.582031 8 8-3.582031 8-8 8zm0 0"/><path d="m216 272v-240c0-4.417969-3.582031-8-8-8h-176c-4.417969 0-8 3.582031-8 8v240c0 4.417969 3.582031 8 8 8h176c4.417969 0 8-3.582031 8-8zm-16-8h-160v-224h160zm0 0"/><path d="m72 248h96c4.417969 0 8-3.582031 8-8v-160c0-4.417969-3.582031-8-8-8h-24v-16c0-4.417969-3.582031-8-8-8h-32c-4.417969 0-8 3.582031-8 8v16h-24c-4.417969 0-8 3.582031-8 8v160c0 4.417969 3.582031 8 8 8zm40-184h16v8h-16zm-32 24h80v144h-80zm0 0"/><path d="m456 32h-112c-13.253906 0-24 10.746094-24 24v296c0 13.253906 10.746094 24 24 24h48v64c0 13.253906-10.746094 24-24 24h-216c-13.253906 0-24-10.746094-24-24v-40h16c4.417969 0 8-3.582031 8-8v-32h64c13.253906 0 24-10.746094 24-24v-312c0-13.253906-10.746094-24-24-24h-192c-13.253906 0-24 10.746094-24 24v312c0 13.253906 10.746094 24 24 24h64v32c0 4.417969 3.582031 8 8 8h16v40c.027344 22.082031 17.917969 39.972656 40 40h216c22.082031-.027344 39.972656-17.917969 40-40v-64h48c13.253906 0 24-10.746094 24-24v-296c0-13.253906-10.746094-24-24-24zm-440 304v-312c0-4.417969 3.582031-8 8-8h192c4.417969 0 8 3.582031 8 8v312c0 4.417969-3.582031 8-8 8h-192c-4.417969 0-8-3.582031-8-8zm88 24h8v8h16v-8h8v24h-32zm360-8c0 4.417969-3.582031 8-8 8h-48v-16h8c4.417969 0 8-3.582031 8-8v-16c13.253906 0 24-10.746094 24-24v-72c0-13.253906-10.746094-24-24-24h-48c-13.253906 0-24 10.746094-24 24v72c0 13.253906 10.746094 24 24 24v16c0 4.417969 3.582031 8 8 8h8v16h-48c-4.417969 0-8-3.582031-8-8v-296c0-4.417969 3.582031-8 8-8h112c4.417969 0 8 3.582031 8 8zm-48-48h-40c-4.417969 0-8-3.582031-8-8v-72c0-4.417969 3.582031-8 8-8h48c4.417969 0 8 3.582031 8 8v72c0 4.417969-3.582031 8-8 8zm-8 16v8h-16v-8zm0 0"/><path d="m400 72c-26.507812 0-48 21.492188-48 48s21.492188 48 48 48 48-21.492188 48-48c-.027344-26.5-21.5-47.972656-48-48zm0 80c-17.671875 0-32-14.328125-32-32s14.328125-32 32-32 32 14.328125 32 32-14.328125 32-32 32zm0 0"/><path d="m376 112h16v16h-16zm0 0"/><path d="m408 112h16v16h-16zm0 0"/><path d="m144 136h-48c-4.417969 0-8 3.582031-8 8v24c0 4.417969 3.582031 8 8 8h48c4.417969 0 8-3.582031 8-8v-24c0-4.417969-3.582031-8-8-8zm-8 24h-32v-8h32zm0 0"/><path d="m144 184h-48c-4.417969 0-8 3.582031-8 8v24c0 4.417969 3.582031 8 8 8h48c4.417969 0 8-3.582031 8-8v-24c0-4.417969-3.582031-8-8-8zm-8 24h-32v-8h32zm0 0"/></svg>