<svg width="20" height="16" viewBox="0 0 20 16" fill="none" xmlns="http://www.w3.org/2000/svg">
<path fill-rule="evenodd" clip-rule="evenodd" d="M6.66667 3.45179H6.33333C5.34711 3.45179 4.54762 4.11137 4.54762 4.925V12.075C4.54762 12.8886 5.34711 13.5482 6.33333 13.5482H6.66667C7.65289 13.5482 8.45238 12.8886 8.45238 12.075V4.925C8.45238 4.11137 7.65289 3.45179 6.66667 3.45179ZM6.33333 3C5.04467 3 4 3.86185 4 4.925V12.075C4 13.1381 5.04467 14 6.33333 14H6.66667C7.95533 14 9 13.1381 9 12.075V4.925C9 3.86185 7.95533 3 6.66667 3H6.33333Z" fill="black"/>
<path fill-rule="evenodd" clip-rule="evenodd" d="M0.844529 11.9757C0.715243 12.0367 0.561475 11.9792 0.507175 11.8447C-0.383171 9.63981 0.0834733 7.2924 0.510818 6.15782C0.561952 6.02206 0.714651 5.96365 0.844529 6.02332C0.974408 6.08298 1.03236 6.23799 0.981887 6.37401C0.589852 7.43042 0.169152 9.60373 0.975799 11.6236C1.02959 11.7583 0.973816 11.9147 0.844529 11.9757Z" fill="black"/>
<path d="M7 7.5C7 7.77614 6.77614 8 6.5 8C6.22386 8 6 7.77614 6 7.5C6 7.22386 6.22386 7 6.5 7C6.77614 7 7 7.22386 7 7.5Z" fill="black"/>
<path fill-rule="evenodd" clip-rule="evenodd" d="M19.4409 8C19.4409 12.2778 15.9888 15.5593 11.9899 15.5593C9.98865 15.5593 8.1244 14.7375 6.76121 13.3803C6.49309 13.3867 6.24354 13.3667 6.01665 13.3303C7.48345 14.9687 9.61607 16 11.9899 16C16.4137 16 20 12.4183 20 8C20 3.58172 16.4137 0 11.9899 0C9.60707 0 7.46728 1.03911 6 2.68837C6.26897 2.64743 6.54507 2.63753 6.74042 2.64049C8.10542 1.27091 9.97846 0.440719 11.9899 0.440719C15.9888 0.440719 19.4409 3.72219 19.4409 8Z" fill="black"/>
<path fill-rule="evenodd" clip-rule="evenodd" d="M17.4747 8.5C17.4747 11.9504 14.8353 14.5635 11.8224 14.5635C10.5881 14.5635 9.41642 14.1249 8.46326 13.3698C8.36411 13.4457 8.20807 13.5465 8.02074 13.6237C9.06901 14.4861 10.3887 15 11.8224 15C15.2342 15 18 12.0899 18 8.5C18 4.91015 15.2342 2 11.8224 2C10.3792 2 9.05158 2.52074 8 3.3934C8.13905 3.45228 8.29917 3.53454 8.44877 3.64169C9.40453 2.87956 10.5818 2.4365 11.8224 2.4365C14.8353 2.4365 17.4747 5.04959 17.4747 8.5Z" fill="black"/>
</svg>
