<svg width="19" height="19" viewBox="0 0 19 19" fill="none" xmlns="http://www.w3.org/2000/svg">
<path d="M15 5.58573L15.5858 5L16 5.41418L15.4142 6L15 5.58573Z" fill="black"/>
<path d="M13 4.17147L13.5857 3L14 3.82853L13.4143 5L13 4.17147Z" fill="black"/>
<path d="M4.07837 18.4595C4.799 19.1802 5.96748 19.1802 6.6884 18.4595L16.0573 9.09064C16.1808 8.96684 16.1808 8.76661 16.0573 8.6428L15.3312 7.91672L18.9073 4.34063C19.0309 4.21692 19.0309 4.0165 18.9073 3.89289L15.1072 0.0927799C14.9836 -0.0309266 14.7831 -0.0309266 14.6594 0.0927799L11.0834 3.66887L10.3573 2.94279C10.2336 2.81918 10.0331 2.81918 9.90943 2.94279L0.540547 12.3117C-0.180182 13.0325 -0.180182 14.2011 0.540547 14.9217L4.07837 18.4595ZM14.8834 0.764542L18.2356 4.11671L17.7334 4.61897L14.3812 1.2667L14.8834 0.764542ZM13.9333 1.71454L17.2855 5.06671L14.8834 7.46898L11.5311 4.11671L13.9333 1.71454ZM0.988289 12.7595L10.1334 3.61455L15.3855 8.86682L6.24056 18.0118C5.76715 18.4851 4.99953 18.4851 4.52612 18.0118L0.988289 14.474C0.514973 14.0005 0.514973 13.233 0.988289 12.7595Z" fill="black"/>
</svg>
