<svg width="14" height="18" viewBox="0 0 14 18" fill="none" xmlns="http://www.w3.org/2000/svg">
<path d="M4.31461 5.763L3.79121 8.64391C3.78033 8.70051 3.78681 8.75887 3.80989 8.81213C3.83297 8.86538 3.87168 8.91132 3.92149 8.94454C3.9713 8.97775 4.03013 8.99687 4.09106 8.99965C4.152 9.00242 4.21251 8.98874 4.26548 8.9602L7 7.60034L9.74307 8.9602C9.79599 8.98662 9.85571 8.99852 9.91544 8.99456C9.97518 8.9906 10.0325 8.97094 10.081 8.9378C10.1295 8.90466 10.1672 8.85937 10.1898 8.80707C10.2124 8.75477 10.2189 8.69755 10.2088 8.64189L9.68539 5.76099L11.9029 3.7222C11.9458 3.68287 11.9762 3.63299 11.9906 3.57823C12.005 3.52346 12.0028 3.46598 11.9844 3.41231C11.9659 3.35864 11.9319 3.31091 11.8862 3.27452C11.8404 3.23814 11.7848 3.21456 11.7256 3.20645L8.6578 2.78741L7.28627 0.16841C7.2598 0.117857 7.21887 0.0752937 7.16809 0.0455328C7.11731 0.0157719 7.05872 0 6.99893 0C6.93915 0 6.88055 0.0157719 6.82978 0.0455328C6.779 0.0752937 6.73806 0.117857 6.71159 0.16841L5.33365 2.78741L2.2744 3.20645C2.21519 3.21456 2.15957 3.23814 2.11383 3.27452C2.0681 3.31091 2.03408 3.35864 2.01562 3.41231C1.99717 3.46598 1.99502 3.52346 2.00942 3.57823C2.02381 3.63299 2.05418 3.68287 2.09709 3.7222L4.31461 5.763ZM5.59642 3.36158C5.64785 3.35456 5.69669 3.33586 5.73875 3.30708C5.7808 3.2783 5.81481 3.24031 5.83783 3.19638L6.99573 0.980301L8.15363 3.19638C8.17665 3.24031 8.21065 3.2783 8.25271 3.30708C8.29476 3.33586 8.34361 3.35456 8.39503 3.36158L10.9864 3.71615L9.11498 5.44067C9.07775 5.47494 9.04994 5.51725 9.03393 5.56393C9.01793 5.61061 9.01421 5.66027 9.02312 5.70861L9.46534 8.14227L7.14954 6.99192C7.10345 6.96898 7.05212 6.957 7 6.957C6.94788 6.957 6.89655 6.96898 6.85046 6.99192L4.53252 8.14025L4.97474 5.70861C4.98365 5.66027 4.97994 5.61061 4.96393 5.56393C4.94793 5.51725 4.92011 5.47494 4.88288 5.44067L3.00717 3.71817L5.59642 3.36158Z" fill="black"/>
<path d="M13.9981 7.80537C14.0006 7.78363 14.0006 7.76167 13.9981 7.73993V7.72646C13.9929 7.70987 13.9862 7.69377 13.978 7.67834L13.968 7.66102C13.9592 7.6474 13.9491 7.63452 13.938 7.62253L13.926 7.60905C13.9097 7.59296 13.8916 7.57874 13.8719 7.56671L11.3142 6.04431C11.2464 6.00347 11.1646 5.99016 11.0867 6.00731C11.0087 6.02445 10.9411 6.07065 10.8986 6.13573C10.8561 6.20081 10.8422 6.27945 10.8601 6.35435C10.8779 6.42924 10.926 6.49426 10.9937 6.53509L13.0787 7.77842L5.13318 11.5969L0.814907 7.88043L2.8759 6.93927C2.94788 6.90635 3.0033 6.8473 3.02997 6.77511C3.05664 6.70292 3.05237 6.62351 3.01811 6.55434C2.98385 6.48517 2.92239 6.43192 2.84727 6.40629C2.77215 6.38067 2.68951 6.38477 2.61753 6.41769L0.149941 7.54554C0.128364 7.55599 0.108188 7.56891 0.0898538 7.58403L0.0758333 7.59558C0.0601225 7.60948 0.0460202 7.62496 0.0337721 7.64177V7.65332C0.0202777 7.67376 0.00951108 7.69574 0.00172561 7.71876V7.73416C-0.000575203 7.75463 -0.000575203 7.77527 0.00172561 7.79574C0.00172561 7.79574 0.00172561 7.79574 0.00172561 7.80537V13.6178C0.00155529 13.6599 0.0109688 13.7016 0.0293063 13.7398C0.0476438 13.778 0.0744615 13.8119 0.10788 13.8392L4.91487 17.9387C4.93902 17.9574 4.96605 17.9723 4.99498 17.983H5.007C5.03731 17.9929 5.0691 17.9981 5.10114 17.9984C5.12244 18.0005 5.14393 18.0005 5.16523 17.9984H5.17925L5.22532 17.983L13.8378 13.8834C13.8878 13.8581 13.9294 13.8198 13.9577 13.7728C13.9861 13.7258 14.0001 13.6721 13.9981 13.6178V7.80537ZM0.578564 8.45205L4.78468 12.0723V17.0957L0.578564 13.4831V8.45205ZM13.3972 13.435L5.38555 17.2612V12.1224L13.3972 8.27306V13.435Z" fill="black"/>
</svg>
