<svg id="Capa_1" enable-background="new 0 0 512 512" height="512" viewBox="0 0 512 512" width="512" xmlns="http://www.w3.org/2000/svg"><g><path d="m474.5 0h-287c-20.678 0-37.5 16.822-37.5 37.5v22.5h-112.5c-20.678 0-37.5 16.822-37.5 37.5v377c0 20.678 16.822 37.5 37.5 37.5h437c20.678 0 37.5-16.822 37.5-37.5v-437c0-20.678-16.822-37.5-37.5-37.5zm-437 497c-12.407 0-22.5-10.094-22.5-22.5v-377c0-12.406 10.093-22.5 22.5-22.5h195c12.407 0 22.5 10.094 22.5 22.5v377c0 12.406-10.093 22.5-22.5 22.5zm459.5-22.5c0 12.406-10.094 22.5-22.5 22.5h-212.02c4.719-6.272 7.52-14.064 7.52-22.5v-52.5h204.5c4.143 0 7.5-3.357 7.5-7.5v-173.5c0-4.143-3.357-7.5-7.5-7.5s-7.5 3.357-7.5 7.5v166h-197v-309.5c0-20.678-16.822-37.5-37.5-37.5h-37.5v-15h272v166c0 4.143 3.357 7.5 7.5 7.5s7.5-3.357 7.5-7.5v-173.5c0-4.143-3.357-7.5-7.5-7.5h-287c-4.142 0-7.5 3.357-7.5 7.5v22.5h-15v-22.5c0-12.406 10.093-22.5 22.5-22.5h287c12.406 0 22.5 10.094 22.5 22.5z"/><path d="m354.5 437h-47c-12.406 0-22.5 10.094-22.5 22.5s10.094 22.5 22.5 22.5h47c12.406 0 22.5-10.094 22.5-22.5s-10.094-22.5-22.5-22.5zm0 30h-47c-4.136 0-7.5-3.364-7.5-7.5s3.364-7.5 7.5-7.5h47c4.136 0 7.5 3.364 7.5 7.5s-3.364 7.5-7.5 7.5z"/><path d="m135 120c-16.542 0-30 13.458-30 30s13.458 30 30 30 30-13.458 30-30-13.458-30-30-30zm0 45c-8.271 0-15-6.729-15-15s6.729-15 15-15 15 6.729 15 15-6.729 15-15 15z"/><path d="m135 300c-12.407 0-22.5 10.094-22.5 22.5s10.093 22.5 22.5 22.5 22.5-10.094 22.5-22.5-10.093-22.5-22.5-22.5zm0 30c-4.136 0-7.5-3.364-7.5-7.5s3.364-7.5 7.5-7.5 7.5 3.364 7.5 7.5-3.364 7.5-7.5 7.5z"/><path d="m135 195c-16.542 0-30 13.458-30 30s13.458 30 30 30 30-13.458 30-30-13.458-30-30-30zm0 45c-8.271 0-15-6.729-15-15s6.729-15 15-15 15 6.729 15 15-6.729 15-15 15z"/><path d="m135 90c-33.084 0-60 26.916-60 60v75c0 33.084 26.916 60 60 60s60-26.916 60-60v-75c0-33.084-26.916-60-60-60zm45 135c0 24.813-20.187 45-45 45s-45-20.187-45-45v-75c0-24.813 20.187-45 45-45s45 20.187 45 45z"/></g></svg>