<svg width="16" height="17" viewBox="0 0 16 17" fill="none" xmlns="http://www.w3.org/2000/svg">
<path d="M15.9858 6.17506C15.8863 4.68287 15.2966 3.26901 14.3126 2.16344C13.3286 1.05787 12.0081 0.325611 10.566 0.0857639C9.12381 -0.154083 7.6448 0.112588 6.36948 0.842407C5.09417 1.57223 4.09756 2.72226 3.54176 4.10547H1.00146C0.73601 4.10598 0.481573 4.21416 0.29387 4.4063C0.106167 4.59845 0.000496637 4.85891 0 5.13065V8.65818C0 9.15442 0.358873 9.68336 1.36221 9.68336H1.81315L1.60647 10.1142C1.55285 10.2225 1.52686 10.3429 1.53094 10.4642C1.53501 10.5855 1.56902 10.7038 1.62978 10.8081C1.69055 10.9123 1.7761 10.9992 1.87847 11.0604C1.98083 11.1217 2.09669 11.1555 2.21524 11.1586C2.57599 11.1701 2.82777 11.1778 3.00439 11.1798V11.9049C3.00439 14.163 3.54739 15.469 6.31691 15.469L7.51754 15.5094V16.7115C7.51754 16.788 7.54723 16.8614 7.60009 16.9155C7.65294 16.9696 7.72463 17 7.79938 17C7.87412 17 7.94581 16.9696 7.99867 16.9155C8.05152 16.8614 8.08121 16.788 8.08121 16.7115V15.2305C8.08125 15.1556 8.05285 15.0836 8.00202 15.0298C7.95118 14.9759 7.88188 14.9444 7.80877 14.942L6.32631 14.8919C4.18434 14.8843 3.56994 14.213 3.56994 11.8972V10.8739C3.57067 10.8332 3.56295 10.7927 3.5473 10.7552C3.53164 10.7177 3.5084 10.6841 3.4791 10.6565C3.44981 10.6288 3.41513 10.6079 3.37735 10.595C3.33957 10.5821 3.29955 10.5775 3.25992 10.5816H3.22234C3.16597 10.5816 2.96117 10.5816 2.23027 10.5643C2.20695 10.5636 2.18417 10.5568 2.16405 10.5448C2.14392 10.5327 2.12709 10.5156 2.11512 10.4951C2.10314 10.4746 2.09639 10.4513 2.0955 10.4274C2.09461 10.4036 2.0996 10.3798 2.11002 10.3585L2.44259 9.68336H4.9547C5.4331 9.68569 5.90421 9.56331 6.32365 9.32776C6.74309 9.09221 7.09705 8.75125 7.3522 8.33697H15.1854C14.8697 9.41267 14.2649 10.3758 13.4399 11.1163C13.4093 11.1429 13.3845 11.1758 13.3673 11.213C13.3502 11.2501 13.341 11.2906 13.3403 11.3317V16.5115C13.3403 16.588 13.37 16.6614 13.4228 16.7155C13.4757 16.7696 13.5474 16.8 13.6221 16.8C13.6969 16.8 13.7686 16.7696 13.8214 16.7155C13.8743 16.6614 13.904 16.588 13.904 16.5115V11.4606C14.6173 10.7969 15.1751 9.97683 15.5356 9.06162C15.896 8.14641 16.05 7.15968 15.9858 6.17506ZM9.95825 0.595255C11.2493 0.690647 12.474 1.21762 13.4439 2.09511C14.4138 2.9726 15.0752 4.15199 15.3263 5.45186H7.35971C7.25636 5.27731 7.13477 5.11479 6.99708 4.96716C6.74355 4.69374 6.4381 4.47627 6.09948 4.32809C5.76087 4.17991 5.39623 4.10415 5.02798 4.10547H4.15616C4.65393 2.98114 5.4779 2.04102 6.51602 1.41297C7.55414 0.784912 8.75603 0.4994 9.95825 0.595255ZM0.563675 8.65818V5.13065C0.563675 5.01179 0.609798 4.8978 0.691899 4.81376C0.774 4.72971 0.885353 4.6825 1.00146 4.6825H1.50313V9.10633H1.36221C1.06535 9.10633 0.563675 9.04286 0.563675 8.65818ZM4.9547 9.10633H2.06681V4.6825H5.02986C5.32153 4.68247 5.6102 4.7429 5.87845 4.86014C6.1467 4.97738 6.38899 5.14901 6.59071 5.36467C6.79243 5.58034 6.94941 5.83557 7.05219 6.11501C7.15496 6.39444 7.20141 6.69228 7.18873 6.99059C7.14908 7.56797 6.89596 8.10818 6.48092 8.50125C6.06588 8.89432 5.5201 9.11069 4.9547 9.10633ZM7.61524 7.75995C7.69348 7.52134 7.73901 7.27278 7.75053 7.02136C7.76478 6.68501 7.71958 6.34879 7.61712 6.02888H15.4071C15.4071 6.09043 15.4184 6.15006 15.4221 6.22122C15.4535 6.7363 15.4207 7.25337 15.3244 7.75995H7.61524Z" fill="black"/>
</svg>
