<svg height="512" viewBox="0 0 64 64" width="512" xmlns="http://www.w3.org/2000/svg"><g id="worldwide-networks-wifi-transmission-global"><path d="m38.363 15.363 1.414 1.414a10.994 10.994 0 0 0 0-15.554l-1.414 1.414a9 9 0 0 1 0 12.726z"/><path d="m36.944 13.95a6.987 6.987 0 0 0 0-9.9l-1.408 1.42a4.988 4.988 0 0 1 0 7.06z"/><path d="m25.637 15.363a9 9 0 0 1 0-12.726l-1.414-1.414a10.994 10.994 0 0 0 0 15.554z"/><path d="m27.056 13.95 1.408-1.42a4.988 4.988 0 0 1 0-7.06l-1.408-1.42a6.987 6.987 0 0 0 0 9.9z"/><path d="m9 23a8.945 8.945 0 0 1 6.363 2.637l1.414-1.414a10.994 10.994 0 0 0 -15.554 0l1.414 1.414a8.945 8.945 0 0 1 6.363-2.637z"/><path d="m12.53 28.464 1.421-1.408a6.989 6.989 0 0 0 -9.9 0l1.419 1.408a4.988 4.988 0 0 1 7.06 0z"/><path d="m9 41a8.945 8.945 0 0 1 -6.363-2.637l-1.414 1.414a10.994 10.994 0 0 0 15.554 0l-1.414-1.414a8.945 8.945 0 0 1 -6.363 2.637z"/><path d="m9 39a6.919 6.919 0 0 0 4.951-2.056l-1.421-1.408a4.988 4.988 0 0 1 -7.06 0l-1.421 1.408a6.919 6.919 0 0 0 4.951 2.056z"/><path d="m25.637 48.637-1.414-1.414a10.994 10.994 0 0 0 0 15.554l1.414-1.414a9 9 0 0 1 0-12.726z"/><path d="m27.056 50.05a6.987 6.987 0 0 0 0 9.9l1.408-1.42a4.988 4.988 0 0 1 0-7.06z"/><path d="m38.363 48.637a9 9 0 0 1 0 12.726l1.414 1.414a10.994 10.994 0 0 0 0-15.554z"/><path d="m36.944 50.05-1.408 1.42a4.988 4.988 0 0 1 0 7.06l1.408 1.42a6.987 6.987 0 0 0 0-9.9z"/><path d="m55 29a3.01 3.01 0 0 0 -2.82 2h-9.23a11.013 11.013 0 0 0 -9.95-9.95v-9.23a3 3 0 1 0 -2 0v9.23a11.013 11.013 0 0 0 -9.95 9.95h-9.23a3 3 0 1 0 0 2h9.23a11.013 11.013 0 0 0 9.95 9.95v9.23a3 3 0 1 0 2 0v-9.23a11.013 11.013 0 0 0 9.95-9.95h9.23a3 3 0 1 0 2.82-4zm-46 4a1 1 0 1 1 1-1 1 1 0 0 1 -1 1zm28.65-8a8.734 8.734 0 0 1 -1.44.95 12.77 12.77 0 0 0 -.89-2.31 9.184 9.184 0 0 1 2.33 1.36zm-5.65-17a1 1 0 1 1 -1 1 1 1 0 0 1 1-1zm0 15c.76 0 1.73 1.35 2.36 3.68a8.862 8.862 0 0 1 -4.72 0c.63-2.33 1.6-3.68 2.36-3.68zm-7.06 3.43a11.038 11.038 0 0 0 2.4 1.52 23.513 23.513 0 0 0 -.32 3.05h-3.96a8.95 8.95 0 0 1 1.88-4.57zm-1.88 6.57h3.96a23.513 23.513 0 0 0 .32 3.05 11.038 11.038 0 0 0 -2.4 1.52 8.95 8.95 0 0 1 -1.88-4.57zm3.29 6a8.734 8.734 0 0 1 1.44-.95 12.77 12.77 0 0 0 .89 2.31 9.184 9.184 0 0 1 -2.33-1.36zm1.44-13.05a8.734 8.734 0 0 1 -1.44-.95 9.184 9.184 0 0 1 2.33-1.36 12.77 12.77 0 0 0 -.89 2.31zm4.21 30.05a1 1 0 1 1 1-1 1 1 0 0 1 -1 1zm0-15c-.76 0-1.73-1.35-2.36-3.68a8.862 8.862 0 0 1 4.72 0c-.63 2.33-1.6 3.68-2.36 3.68zm2.76-5.64a10.76 10.76 0 0 0 -5.52 0 20.617 20.617 0 0 1 -.22-2.36h5.96a20.617 20.617 0 0 1 -.22 2.36zm-5.74-4.36a20.617 20.617 0 0 1 .22-2.36 10.76 10.76 0 0 0 5.52 0 20.617 20.617 0 0 1 .22 2.36zm6.3 9.36a12.77 12.77 0 0 0 .89-2.31 8.734 8.734 0 0 1 1.44.95 9.184 9.184 0 0 1 -2.33 1.36zm3.74-2.79a11.038 11.038 0 0 0 -2.4-1.52 23.513 23.513 0 0 0 .32-3.05h3.96a8.95 8.95 0 0 1 -1.88 4.57zm-2.08-6.57a23.513 23.513 0 0 0 -.32-3.05 11.038 11.038 0 0 0 2.4-1.52 8.95 8.95 0 0 1 1.88 4.57zm18.02 2a1 1 0 1 1 1-1 1 1 0 0 1 -1 1z"/><path d="m55 41a8.945 8.945 0 0 1 -6.363-2.637l-1.414 1.414a10.994 10.994 0 0 0 15.554 0l-1.414-1.414a8.945 8.945 0 0 1 -6.363 2.637z"/><path d="m55 37a4.93 4.93 0 0 1 -3.53-1.464l-1.421 1.408a6.989 6.989 0 0 0 9.9 0l-1.419-1.408a4.93 4.93 0 0 1 -3.53 1.464z"/><path d="m55 23a8.945 8.945 0 0 1 6.363 2.637l1.414-1.414a10.994 10.994 0 0 0 -15.554 0l1.414 1.414a8.945 8.945 0 0 1 6.363-2.637z"/><path d="m55 25a6.919 6.919 0 0 0 -4.951 2.056l1.421 1.408a4.988 4.988 0 0 1 7.06 0l1.421-1.408a6.919 6.919 0 0 0 -4.951-2.056z"/><path d="m8 17h2v2h-2z"/><path d="m8 13h2v2h-2z"/><path d="m8 8h2v2h-2z"/><path d="m17 8h2v2h-2z"/><path d="m13 8h2v2h-2z"/><path d="m54 17h2v2h-2z"/><path d="m54 13h2v2h-2z"/><path d="m54 8h2v2h-2z"/><path d="m45 8h2v2h-2z"/><path d="m49 8h2v2h-2z"/><path d="m8 45h2v2h-2z"/><path d="m8 49h2v2h-2z"/><path d="m8 54h2v2h-2z"/><path d="m17 54h2v2h-2z"/><path d="m13 54h2v2h-2z"/><path d="m54 45h2v2h-2z"/><path d="m54 49h2v2h-2z"/><path d="m54 54h2v2h-2z"/><path d="m45 54h2v2h-2z"/><path d="m49 54h2v2h-2z"/></g></svg>