<svg width="21" height="14" viewBox="0 0 21 14" fill="none" xmlns="http://www.w3.org/2000/svg">
<path d="M10.5 2C7.46734 2 5 4.69165 5 8C5 11.3084 7.46734 14 10.5 14C13.5329 14 16 11.3084 16 8C16 4.69165 13.5327 2 10.5 2ZM10.5 13.116C7.91408 13.116 5.81029 10.821 5.81029 8C5.81029 5.179 7.91408 2.88396 10.5 2.88396C13.0859 2.88396 15.1897 5.179 15.1897 8C15.1897 10.821 13.0859 13.116 10.5 13.116Z" fill="black"/>
<path d="M3.66616 11.3501C3.89402 11.3501 4.07845 11.1572 4.07845 10.919V5.34038C4.07845 5.31279 4.07543 5.28607 4.07076 5.25991C5.17544 2.58182 7.65885 0.861852 10.4661 0.861852C13.3236 0.861852 15.8485 2.64418 16.9215 5.40705V10.8865C16.5758 11.7768 16.0736 12.5775 15.4235 13.266C15.2636 13.4356 15.2652 13.7083 15.4274 13.8756C15.5076 13.9586 15.6124 14 15.7171 14C15.8235 14 15.9298 13.9572 16.0104 13.8718C16.703 13.1381 17.2459 12.2901 17.6301 11.3504H17.9199C19.6183 11.3504 21 9.9057 21 8.12998C21 6.35426 19.6183 4.9096 17.9199 4.9096H17.6126C16.3748 1.91999 13.6006 0 10.4661 0C7.32984 0 4.55535 1.9197 3.31818 4.9096H3.08014C1.38175 4.9096 0 6.35426 0 8.12998C0 9.9057 1.38175 11.3504 3.08014 11.3504H3.66616V11.3501ZM20.1754 8.12969C20.1754 9.43008 19.1633 10.4879 17.9199 10.4879H17.7461V5.77145H17.9199C19.1636 5.77145 20.1754 6.8293 20.1754 8.12969ZM0.824597 8.12969C0.824597 6.8293 1.83638 5.77145 3.08014 5.77145H3.25386V10.4879H3.08014C1.83638 10.4879 0.824597 9.43008 0.824597 8.12969Z" fill="black"/>
</svg>
