<svg id="Capa_1" enable-background="new 0 0 511.996 511.996" height="512" viewBox="0 0 511.996 511.996" width="512" xmlns="http://www.w3.org/2000/svg"><g><path d="m391.31 0h-270.623c-15.164 0-27.5 12.336-27.5 27.5v425.934c0 15.164 12.336 27.5 27.5 27.5h3.562v23.563c0 4.142 3.358 7.5 7.5 7.5h31.063c4.142 0 7.5-3.358 7.5-7.5v-23.563h23.513c4.142 0 7.5-3.358 7.5-7.5s-3.358-7.5-7.5-7.5h-73.138c-6.893 0-12.5-5.607-12.5-12.5v-425.934c0-6.893 5.607-12.5 12.5-12.5h270.623c6.893 0 12.5 5.607 12.5 12.5v425.934c0 6.893-5.607 12.5-12.5 12.5h-166.374c-4.142 0-7.5 3.358-7.5 7.5s3.358 7.5 7.5 7.5h116.749v23.563c0 4.142 3.357 7.5 7.5 7.5h31.063c4.143 0 7.5-3.358 7.5-7.5v-23.563h3.563c15.163 0 27.5-12.336 27.5-27.5v-425.934c-.001-15.164-12.338-27.5-27.501-27.5zm-235.998 480.934v16.063h-16.063v-16.063zm217.435 16.062h-16.063v-16.063h16.063z"/><path d="m209.355 449.872h93.285c12.699 0 23.031-10.332 23.031-23.031s-10.332-23.031-23.031-23.031h-93.285c-12.699 0-23.031 10.332-23.031 23.031s10.332 23.031 23.031 23.031zm0-31.063h93.285c4.429 0 8.031 3.603 8.031 8.031s-3.603 8.031-8.031 8.031h-93.285c-4.428 0-8.031-3.603-8.031-8.031s3.603-8.031 8.031-8.031z"/><path d="m221.183 40.324c-21.501 12.425-34.858 35.555-34.858 60.363 0 38.418 31.255 69.673 69.673 69.673s69.674-31.255 69.674-69.673-31.256-69.674-69.674-69.674c-4.142 0-7.5 3.358-7.5 7.5s3.358 7.5 7.5 7.5c30.147 0 54.674 24.526 54.674 54.674 0 30.147-24.526 54.673-54.674 54.673-30.147 0-54.673-24.526-54.673-54.673 0-19.469 10.485-37.623 27.363-47.376 3.586-2.072 4.814-6.66 2.741-10.246-2.073-3.587-6.661-4.814-10.246-2.741z"/><path d="m217.436 100.687c0 21.263 17.299 38.562 38.562 38.562 21.264 0 38.562-17.299 38.562-38.562 0-21.264-17.299-38.563-38.562-38.563-21.263.001-38.562 17.299-38.562 38.563zm38.562-23.562c12.992 0 23.562 10.57 23.562 23.563s-10.57 23.562-23.562 23.562-23.562-10.57-23.562-23.562 10.57-23.563 23.562-23.563z"/><path d="m256.107 387.747c55.579 0 100.795-45.217 100.795-100.796 0-11.465-1.912-22.717-5.683-33.442-1.374-3.908-5.658-5.961-9.563-4.588-3.908 1.374-5.962 5.655-4.588 9.563 3.207 9.123 4.833 18.701 4.833 28.468 0 47.308-38.487 85.796-85.795 85.796s-85.795-38.488-85.795-85.796 38.488-85.795 85.795-85.795c24.457 0 47.819 10.484 64.096 28.764 2.756 3.093 7.496 3.369 10.589.613 3.094-2.754 3.368-7.495.614-10.589-19.121-21.473-46.566-33.788-75.299-33.788-55.579 0-100.795 45.217-100.795 100.795.001 55.578 45.217 100.795 100.796 100.795z"/><path d="m256.107 217.436c-38.331 0-69.516 31.185-69.516 69.515 0 38.331 31.185 69.516 69.516 69.516 38.332 0 69.516-31.185 69.516-69.516 0-38.33-31.185-69.515-69.516-69.515zm0 124.031c-30.06 0-54.516-24.456-54.516-54.516s24.456-54.515 54.516-54.515 54.516 24.456 54.516 54.515c0 30.06-24.456 54.516-54.516 54.516z"/><path d="m256.107 264.029c-12.64 0-22.922 10.283-22.922 22.922 0 12.64 10.283 22.922 22.922 22.922s22.922-10.283 22.922-22.922-10.283-22.922-22.922-22.922zm0 30.845c-4.369 0-7.922-3.554-7.922-7.922s3.554-7.922 7.922-7.922 7.922 3.554 7.922 7.922-3.553 7.922-7.922 7.922z"/><path d="m170.312 85.156c0-12.7-10.332-23.031-23.031-23.031s-23.031 10.332-23.031 23.031v31.062c0 12.7 10.332 23.031 23.031 23.031s23.031-10.332 23.031-23.031zm-15 31.062c0 4.428-3.603 8.031-8.031 8.031s-8.031-3.603-8.031-8.031v-31.062c0-4.428 3.603-8.031 8.031-8.031s8.031 3.603 8.031 8.031z"/><path d="m73.076 240.024c3.678-1.906 5.114-6.433 3.208-10.11-1.905-3.677-6.431-5.113-10.11-3.208-21.329 11.055-35.111 34.703-35.111 60.245s13.782 49.19 35.111 60.245c3.693 1.914 8.212.454 10.11-3.208 1.906-3.677.47-8.204-3.208-10.11-16.41-8.506-27.013-26.926-27.013-46.928 0-20 10.603-38.42 27.013-46.926z"/><path d="m43.58 353.262c-18.163-16.365-28.58-40.533-28.58-66.311 0-25.777 10.417-49.946 28.58-66.311 3.077-2.772 3.324-7.515.551-10.592-2.773-3.078-7.516-3.324-10.592-.551-21.314 19.204-33.539 47.435-33.539 77.454 0 30.02 12.225 58.25 33.54 77.455 1.434 1.292 3.229 1.928 5.018 1.928 6.842 0 10.114-8.485 5.022-13.072z"/><path d="m445.822 226.707c-3.676-1.904-8.202-.47-10.11 3.208-1.905 3.678-.47 8.204 3.208 10.11 16.41 8.505 27.014 26.925 27.014 46.927s-10.604 38.422-27.014 46.928c-3.678 1.906-5.113 6.432-3.208 10.11 1.335 2.575 3.953 4.05 6.665 4.05 7.749 0 38.557-22.06 38.557-61.088 0-25.543-13.783-49.191-35.112-60.245z"/><path d="m478.457 209.497c-3.075-2.772-7.818-2.527-10.593.551-2.772 3.078-2.525 7.82.552 10.592 18.163 16.365 28.58 40.534 28.58 66.311s-10.417 49.946-28.58 66.311c-3.077 2.772-3.324 7.515-.552 10.592 2.778 3.083 7.522 3.319 10.593.552 21.314-19.204 33.539-47.435 33.539-77.455 0-30.019-12.225-58.25-33.539-77.454z"/><path d="m364.716 139.249c12.699 0 23.031-10.332 23.031-23.031v-31.062c0-12.7-10.332-23.031-23.031-23.031s-23.031 10.332-23.031 23.031v31.062c0 12.699 10.332 23.031 23.031 23.031zm-8.031-54.093c0-4.428 3.603-8.031 8.031-8.031s8.031 3.603 8.031 8.031v31.062c0 4.428-3.603 8.031-8.031 8.031s-8.031-3.603-8.031-8.031z"/></g></svg>