<svg width="14" height="23" viewBox="0 0 14 23" fill="none" xmlns="http://www.w3.org/2000/svg">
<path fill-rule="evenodd" clip-rule="evenodd" d="M7 9.1C7.70692 9.1 8.28 8.38366 8.28 7.5C8.28 6.61634 7.70692 5.9 7 5.9C6.29308 5.9 5.72 6.61634 5.72 7.5C5.72 8.38366 6.29308 9.1 7 9.1ZM7 10C8.10457 10 9 8.88071 9 7.5C9 6.11929 8.10457 5 7 5C5.89543 5 5 6.11929 5 7.5C5 8.88071 5.89543 10 7 10Z" fill="black"/>
<path fill-rule="evenodd" clip-rule="evenodd" d="M7 17.1C7.70692 17.1 8.28 16.3837 8.28 15.5C8.28 14.6163 7.70692 13.9 7 13.9C6.29308 13.9 5.72 14.6163 5.72 15.5C5.72 16.3837 6.29308 17.1 7 17.1ZM7 18C8.10457 18 9 16.8807 9 15.5C9 14.1193 8.10457 13 7 13C5.89543 13 5 14.1193 5 15.5C5 16.8807 5.89543 18 7 18Z" fill="black"/>
<path fill-rule="evenodd" clip-rule="evenodd" d="M7 20.0625C9.24366 20.0625 11.0625 18.2437 11.0625 16C11.0625 13.7563 9.24366 11.9375 7 11.9375C4.75634 11.9375 2.9375 13.7563 2.9375 16C2.9375 18.2437 4.75634 20.0625 7 20.0625ZM7 21C9.76142 21 12 18.7614 12 16C12 13.2386 9.76142 11 7 11C4.23858 11 2 13.2386 2 16C2 18.7614 4.23858 21 7 21Z" fill="black"/>
<path fill-rule="evenodd" clip-rule="evenodd" d="M12.5797 0.848156H1.42029C1.11213 0.848156 0.862319 1.09387 0.862319 1.39696V21.603C0.862319 21.9061 1.11213 22.1518 1.42029 22.1518H12.5797C12.8879 22.1518 13.1377 21.9061 13.1377 21.603V1.39696C13.1377 1.09387 12.8879 0.848156 12.5797 0.848156ZM1.42029 0C0.635885 0 0 0.625442 0 1.39696V21.603C0 22.3746 0.635885 23 1.42029 23H12.5797C13.3641 23 14 22.3746 14 21.603V1.39696C14 0.625442 13.3641 0 12.5797 0H1.42029Z" fill="black"/>
<path d="M6 3.5C6 3.22386 6.15241 3 6.34043 3H7.65957C7.84759 3 8 3.22386 8 3.5C8 3.77614 7.84759 4 7.65957 4H6.34043C6.15241 4 6 3.77614 6 3.5Z" fill="black"/>
</svg>
