<svg width="23" height="23" viewBox="0 0 23 23" fill="none" xmlns="http://www.w3.org/2000/svg">
<path fill-rule="evenodd" clip-rule="evenodd" d="M13.4446 2.80387L21.0113 10.3706C21.1547 10.514 21.1547 10.7465 21.0113 10.8899L10.4401 21.461C10.2967 21.6044 10.0643 21.6044 9.92086 21.461L1.71877 13.2589C1.57089 13.6115 1.6405 14.0338 1.92759 14.3209L9.4943 21.8876C9.87328 22.2665 10.4877 22.2665 10.8667 21.8876L21.4378 11.3164C21.8168 10.9374 21.8168 10.323 21.4378 9.94403L13.8711 2.37731C13.4922 1.99833 12.8777 1.99833 12.4987 2.37731L7.86077 7.01528L8.99484 6.73431L12.9253 2.80387C13.0687 2.66047 13.3012 2.66047 13.4446 2.80387Z" fill="black"/>
<path fill-rule="evenodd" clip-rule="evenodd" d="M9.03066 6.51304L8.75033 6.79337L8.51569 6.85118L8.51437 6.84986L6.32558 7.40063L1.41264 12.3136L1.41153 12.9517L2.00177 13.5419L1.76067 13.783L2.74361 14.766L2.55815 14.9514L0.807855 13.2011L0.809832 12.0633L6.01682 6.85627L8.69898 6.18136L9.03066 6.51304Z" fill="black"/>
<path d="M13.6302 4.54712L14.2793 5.19622L11.961 7.51446L11.3119 6.86535L13.6302 4.54712Z" fill="black"/>
<path d="M15.2992 6.21619L15.9483 6.86529L13.6301 9.18353L12.981 8.53442L15.2992 6.21619Z" fill="black"/>
<path d="M16.9683 7.88531L17.6174 8.53442L15.2991 10.8527L14.65 10.2035L16.9683 7.88531Z" fill="black"/>
<path d="M18.6374 9.55444L19.2865 10.2035L16.9682 12.5218L16.3191 11.8727L18.6374 9.55444Z" fill="black"/>
</svg>
