<svg id="Layer_1" height="512" viewBox="0 0 512 512" width="512" xmlns="http://www.w3.org/2000/svg" data-name="Layer 1"><path d="m201.414 130.039h32.694l-20.708 42.991a6 6 0 1 0 10.811 5.207l24.852-51.595a6 6 0 0 0 -5.405-8.6h-32.458l20.414-40.142a6 6 0 0 0 -10.7-5.44l-24.852 48.859a6 6 0 0 0 5.348 8.721z"/><path d="m286.246 283.053a6 6 0 0 0 6-6v-11.161a6 6 0 1 0 -12 0v11.161a6 6 0 0 0 6 6z"/><path d="m260.762 283.053a6 6 0 0 0 6-6v-11.161a6 6 0 0 0 -12 0v11.161a6 6 0 0 0 6 6z"/><path d="m235.278 259.892a6 6 0 0 0 -6 6v11.161a6 6 0 0 0 12 0v-11.161a6 6 0 0 0 -6-6z"/><path d="m209.794 259.892a6 6 0 0 0 -6 6v11.161a6 6 0 0 0 12 0v-11.161a6 6 0 0 0 -6-6z"/><path d="m184.31 283.053a6 6 0 0 0 6-6v-11.161a6 6 0 0 0 -12 0v11.161a6 6 0 0 0 6 6z"/><path d="m158.825 259.892a6 6 0 0 0 -6 6v11.161a6 6 0 0 0 12 0v-11.161a6 6 0 0 0 -6-6z"/><path d="m139.341 265.892a6 6 0 1 0 -12 0v11.161a6 6 0 1 0 12 0z"/><path d="m311.73 283.053a6 6 0 0 0 6-6v-11.161a6 6 0 0 0 -12 0v11.161a6 6 0 0 0 6 6z"/><path d="m228.956 345.428h-50.389a6 6 0 0 0 0 12h50.389a6 6 0 1 0 0-12z"/><path d="m150.224 345.428h-16.883a6 6 0 0 0 0 12h16.883a6 6 0 0 0 0-12z"/><path d="m55.112 27.323a6 6 0 0 0 -6 6v32.264a6 6 0 0 0 12 0v-32.264a6 6 0 0 0 -6-6z"/><path d="m55.112 89.187a6 6 0 0 0 -6 6v170.705a6 6 0 0 0 12 0v-170.705a6 6 0 0 0 -6-6z"/><path d="m456.888 107.612h-44.647a6 6 0 0 0 -6 6v89.288a6 6 0 0 0 6 6h5.159v16.324a17.176 17.176 0 0 0 11.41 16.149v123.687a25.323 25.323 0 0 1 -25.294 25.294 37.337 37.337 0 0 0 -37.3 37.3v34.459a32.893 32.893 0 0 1 -65.785 0v-32.113a22.777 22.777 0 0 0 16.743-21.933v-22.735h11.389a33.944 33.944 0 0 0 33.9-33.318c0-.137-.005-.272 0-.409 0-.059.009-.117.009-.177v-318.105a28.356 28.356 0 0 0 -28.321-28.323h-223.231a28.356 28.356 0 0 0 -28.32 28.323v318.105c0 .06.007.118.009.177 0 .137-.006.272 0 .41a33.943 33.943 0 0 0 33.9 33.317h155.191v22.732a22.778 22.778 0 0 0 16.739 21.936v32.111a44.893 44.893 0 0 0 89.785 0v-34.462a25.324 25.324 0 0 1 25.3-25.3 37.336 37.336 0 0 0 37.294-37.294v-123.861a17.176 17.176 0 0 0 10.914-15.966v-16.328h5.161a6 6 0 0 0 6-6v-89.288a6 6 0 0 0 -6.005-6zm-151.706 284.7h-21.482v-34.884h21.485zm-27.482-46.884a6 6 0 0 0 -6 6v21.9h-154.66c-11.862 0-21.978-9.2-22.427-21.058a21.928 21.928 0 0 1 21.888-22.75h16.324a6 6 0 0 0 0-12h-15.648a34.814 34.814 0 0 0 -22.58 8.361v-292.558a16.342 16.342 0 0 1 16.323-16.323h223.231a16.342 16.342 0 0 1 16.324 16.323v292.562a34.814 34.814 0 0 0 -22.579-8.361h-155.071a6 6 0 0 0 0 12h155.207c11.862 0 21.978 9.2 22.426 21.058a21.927 21.927 0 0 1 -21.887 22.75h-11.389v-21.9a6 6 0 0 0 -6-6zm6 62.636v-3.757h21.485v3.757a10.743 10.743 0 1 1 -21.485 0zm167.188-211.164h-5.161a6 6 0 0 0 -6 6v22.324a5.162 5.162 0 0 1 -10.324 0v-22.324a6 6 0 0 0 -6-6h-5.162v-43.8h32.647zm0-55.807h-32.647v-21.481h32.647z"/></svg>