<svg width="21" height="22" viewBox="0 0 21 22" fill="none" xmlns="http://www.w3.org/2000/svg">
<path fill-rule="evenodd" clip-rule="evenodd" d="M5.48459 6.34999L5.68817 10.1185L2.72348 13.1698L8.55936 11.3742L8.62246 7.74059L12.2222 3.9704L5.48459 6.34999ZM13.3612 2.83177L13.7279 3.39886L9.31198 8.02387L9.24485 11.8897L1.63169 14.2322L1.28061 13.6584L4.97846 9.85256L4.76323 5.86839L13.3612 2.83177Z" fill="black"/>
<path fill-rule="evenodd" clip-rule="evenodd" d="M11.4982 10.6361L11.7018 14.4046L8.7371 17.4559L14.573 15.6602L14.6361 12.0267L18.2358 8.25647L11.4982 10.6361ZM19.3748 7.11784L19.7415 7.68493L15.3256 12.3099L15.2585 16.1758L7.64532 18.5182L7.29423 17.9445L10.9921 14.1386L10.7769 10.1545L19.3748 7.11784Z" fill="black"/>
</svg>
