<svg width="19" height="19" viewBox="0 0 19 19" fill="none" xmlns="http://www.w3.org/2000/svg">
<path d="M9.49995 3.45272C8.7458 1.91203 7.2025 0.85 5.42083 0.85C2.89507 0.85 0.85 2.98345 0.85 5.59404C0.85 6.60348 1.16386 7.57629 1.76404 8.41715L1.76396 8.41721L1.7673 8.42154L9.11373 17.9581L9.11385 17.9583C9.20645 18.0782 9.34795 18.15 9.5 18.15H9.50023C9.65239 18.15 9.79427 18.0778 9.88666 17.9574L17.392 8.18063L17.392 8.18064L17.3933 8.17895C17.4017 8.16772 17.4114 8.15418 17.4207 8.13925L17.4212 8.13842C17.8976 7.36691 18.15 6.48698 18.15 5.59404C18.1502 2.98338 16.1039 0.85 13.5771 0.85C11.7963 0.85 10.2536 1.91206 9.49995 3.45272ZM17.1651 5.59404C17.1651 6.2856 16.971 6.96994 16.6027 7.57486L9.49933 16.8279L2.54907 7.80601C2.08144 7.14942 1.83492 6.38486 1.83492 5.59404C1.83492 3.53083 3.44902 1.86218 5.4206 1.86218C7.39291 1.86218 9.00742 3.53087 9.00742 5.59404C9.00742 5.86816 9.22241 6.10013 9.5 6.10013C9.77759 6.10013 9.99257 5.86816 9.99257 5.59404C9.99257 3.53078 11.606 1.86218 13.5771 1.86218C15.5499 1.86218 17.1651 3.53092 17.1651 5.59404Z" fill="#757575" stroke="#757575" stroke-width="0.3"/>
</svg>
