<svg width="16" height="16" viewBox="0 0 16 16" fill="none" xmlns="http://www.w3.org/2000/svg">
<path d="M15.1111 7.55556C15.1111 11.7284 11.7284 15.1111 7.55556 15.1111C3.38274 15.1111 0 11.7284 0 7.55556C0 3.38274 3.38274 0 7.55556 0C11.7284 0 15.1111 3.38274 15.1111 7.55556Z" fill="#A9A9A9"/>
<path d="M6.4 9.05187L6.39517 9.3066H6.64995H7.27709H7.52709V9.0566C7.52709 8.55294 7.69841 8.19867 8.02293 7.95448L8.02307 7.95467L8.0315 7.94773C8.52009 7.54553 8.87422 7.17705 9.06888 6.8428L9.06946 6.84181C9.26314 6.50571 9.36108 6.14357 9.36108 5.75943C9.36108 5.15945 9.16347 4.65997 8.75173 4.29096C8.34605 3.92101 7.80384 3.75 7.15588 3.75C6.52013 3.75 5.9746 3.91856 5.53885 4.2726C5.09496 4.63003 4.86909 5.11364 4.86111 5.69942L4.85765 5.95283H5.11108H5.73822H5.9835L5.98818 5.7076C5.99398 5.40386 6.09887 5.18454 6.29357 5.02221L6.29367 5.02213C6.49854 4.85115 6.77804 4.75472 7.15588 4.75472C7.52842 4.75472 7.78344 4.85453 7.95619 5.02321L7.95617 5.02323L7.9588 5.02573C8.13413 5.19202 8.23394 5.42877 8.23394 5.76887C8.23394 5.93999 8.20927 6.08477 8.16476 6.20677L8.16474 6.20676L8.16359 6.21005C8.12031 6.33401 8.05673 6.44953 7.97159 6.55726L7.97081 6.55825C7.88877 6.66315 7.68318 6.86549 7.33313 7.17566C6.97793 7.48722 6.71963 7.78059 6.59195 8.05487C6.46648 8.32439 6.40739 8.6614 6.4 9.05187ZM7.49844 7.36321C7.84626 7.05503 8.06936 6.83805 8.16774 6.71226C8.26963 6.58333 8.34692 6.4434 8.39962 6.29245C8.45584 6.13836 8.48394 5.96384 8.48394 5.76887C8.48394 5.37579 8.36624 5.06761 8.13085 4.84434L7.49844 7.36321ZM6.50165 10.1843L6.50129 10.1847C6.37771 10.3058 6.31563 10.4606 6.31563 10.6321C6.31563 10.8027 6.37931 10.9552 6.50129 11.0748L6.50111 11.0749L6.50957 11.0825C6.64577 11.2044 6.81936 11.25 6.99778 11.25C7.17464 11.25 7.34564 11.2034 7.48071 11.0825L7.31398 10.8962L7.48071 11.0825C7.6118 10.9652 7.68519 10.8105 7.68519 10.6321C7.68519 10.4547 7.61507 10.2991 7.48469 10.1805C7.35078 10.052 7.17852 10 6.99778 10C6.81383 10 6.6373 10.0519 6.50165 10.1843Z" fill="white" stroke="white" stroke-width="0.5"/>
</svg>
