<svg width="16" height="16" viewBox="0 0 16 16" fill="none" xmlns="http://www.w3.org/2000/svg">
<path fill-rule="evenodd" clip-rule="evenodd" d="M15.4717 15.4717C15.1799 15.7635 14.7068 15.7635 14.415 15.4717L0.528327 1.58498C0.23654 1.29319 0.23654 0.820114 0.528327 0.528327C0.820114 0.23654 1.29319 0.236541 1.58498 0.528328L15.4717 14.415C15.7635 14.7068 15.7635 15.1799 15.4717 15.4717Z" fill="#757575"/>
<path fill-rule="evenodd" clip-rule="evenodd" d="M15.4717 0.528327C15.7635 0.820114 15.7635 1.29319 15.4717 1.58498L1.58498 15.4717C1.29319 15.7635 0.820114 15.7635 0.528327 15.4717C0.23654 15.1799 0.236541 14.7068 0.528328 14.415L14.415 0.528327C14.7068 0.23654 15.1799 0.23654 15.4717 0.528327Z" fill="#757575"/>
</svg>
