<svg width="21" height="22" viewBox="0 0 21 22" fill="none" xmlns="http://www.w3.org/2000/svg">
<path d="M20.3965 6.22116V6.2202C20.3965 6.21923 20.3962 6.2185 20.3962 6.21753C20.396 6.19141 20.3923 6.16528 20.3865 6.13963C20.3846 6.13141 20.3819 6.12367 20.3795 6.11568C20.3742 6.09802 20.3674 6.0806 20.3592 6.06343C20.3548 6.05448 20.3503 6.04553 20.3452 6.03706C20.3418 6.03125 20.3394 6.02472 20.3357 6.01916C20.3292 6.00948 20.3212 6.0015 20.314 5.99254C20.3082 5.98529 20.3028 5.97803 20.2965 5.97125C20.2779 5.95142 20.2578 5.93376 20.2358 5.919C20.2356 5.91876 20.2353 5.91851 20.2351 5.91827L20.2349 5.91803C20.2341 5.91755 20.2334 5.91706 20.2329 5.91658L11.4341 0.0607837C11.3122 -0.0202612 11.1537 -0.0202612 11.0318 0.0607837L7.93466 2.12561L7.93442 2.12586L5.08865 4.02279C5.0497 4.03997 5.01317 4.06343 4.98172 4.09416L0.164267 7.30595C0.141042 7.3212 0.119753 7.34007 0.099915 7.36087C0.0936249 7.36765 0.0883027 7.3749 0.0824965 7.38216C0.0752387 7.39111 0.0672551 7.39885 0.0607232 7.40877C0.0568524 7.41434 0.0546749 7.42063 0.051288 7.42643C0.0462075 7.43514 0.0413692 7.44409 0.0370145 7.45353C0.029031 7.47022 0.0224989 7.4874 0.0171766 7.50482C0.0145154 7.51328 0.0118543 7.52127 0.0099189 7.52974C0.00435462 7.55441 0.000967648 7.57933 0.000725723 7.60449C0.000725723 7.60643 0 7.60812 0 7.60981V7.61175V7.61199V15.7796C0 15.9011 0.0607232 16.0145 0.161848 16.0818L8.96235 21.9393C8.96356 21.94 8.96478 21.9402 8.96598 21.941C8.99139 21.9574 9.01921 21.9698 9.04824 21.9797C9.0555 21.9821 9.06251 21.9845 9.06977 21.9865C9.09977 21.9944 9.13074 22 9.16315 22C9.19557 22 9.22654 21.9944 9.25654 21.9862C9.26379 21.9843 9.27105 21.9819 9.27807 21.9794C9.30782 21.9695 9.33637 21.9569 9.36201 21.94C9.36274 21.9395 9.36347 21.9393 9.36419 21.939L9.36564 21.9381C9.36589 21.9381 9.36589 21.9378 9.36613 21.9378L20.2344 14.6922C20.3353 14.6249 20.396 14.5117 20.396 14.3902V6.22286C20.3965 6.22237 20.3965 6.22165 20.3965 6.22116ZM11.2333 0.798655L19.3789 6.22044L16.8027 7.9381L8.77825 2.43552L11.2333 0.798655ZM9.16339 13.0311L1.01729 7.60933L5.23768 4.79574L13.2623 10.2983L9.16339 13.0311ZM8.12747 2.86929L16.1519 8.37188L13.9129 9.86455L5.88821 4.36197L8.12747 2.86929ZM14.2654 10.5018L16.4197 9.06548L16.343 12.4848L14.2654 13.8478V10.5018ZM0.725775 8.28696L8.80051 13.6616V20.9595L0.725775 15.5851V8.28696ZM9.52628 20.959V13.6613L13.5396 10.9856V14.5199C13.5396 14.6532 13.6129 14.7759 13.73 14.8393C13.7842 14.8683 13.8434 14.8828 13.9025 14.8828C13.9719 14.8828 14.0413 14.863 14.1016 14.8233L16.9006 12.9868C17.0003 12.9213 17.0615 12.811 17.0644 12.6914L17.1566 8.57413L19.6707 6.89807V14.196L9.52628 20.959Z" fill="#E21E22"/>
<path d="M8.1367 15.4644C8.25403 15.4644 8.36919 15.4078 8.4391 15.3025C8.55015 15.1359 8.50491 14.9104 8.33822 14.7993L4.1805 12.032C4.01357 11.9209 3.78809 11.9659 3.67729 12.1331C3.56625 12.2998 3.61149 12.5252 3.77818 12.6363L7.93614 15.4037C7.99783 15.4448 8.06775 15.4644 8.1367 15.4644Z" fill="#E21E22"/>
<path d="M8.33813 16.6924L5.95711 15.1076C5.79018 14.9965 5.56471 15.0418 5.4539 15.2087C5.34286 15.3754 5.3881 15.6009 5.55479 15.7119L7.93581 17.2968C7.9975 17.3379 8.06742 17.3575 8.13661 17.3575C8.25394 17.3575 8.3691 17.3009 8.43902 17.1956C8.55006 17.0287 8.50482 16.8035 8.33813 16.6924Z" fill="#E21E22"/>
</svg>
