<svg width="17" height="18" viewBox="0 0 17 18" fill="none" xmlns="http://www.w3.org/2000/svg">
<path d="M16.2466 5.42642L14.5093 0.214597C14.4667 0.0863826 14.3468 0 14.2117 0H2.05101C1.9159 0 1.79605 0.0863826 1.75338 0.214597L0.0161054 5.42642C0.00543826 5.45842 0 5.49188 0 5.52556V17.6863C0 17.8594 0.140346 18 0.313738 18H15.949C16.1222 18 16.2627 17.8594 16.2627 17.6863V5.52556C16.2627 5.49188 16.2573 5.45842 16.2466 5.42642ZM15.556 5.33836C14.9128 5.80876 14.1937 6.03193 13.3061 6.03193C12.5027 6.03193 11.7273 5.78199 11.0511 5.31263V0.627477H13.9856L15.556 5.33836ZM5.8393 0.627477H10.4234V5.31326C9.74785 5.7822 8.9725 6.03214 8.16891 6.03214C7.33436 6.03214 6.53287 5.76212 5.8393 5.25574V0.627477ZM2.27711 0.627477H5.21182V5.25574C4.51825 5.76212 3.71696 6.03214 2.88221 6.03214C2.09556 6.03214 1.34447 5.80458 0.694198 5.37643L2.27711 0.627477ZM0.627477 17.3725V6.06916C1.31331 6.45464 2.08176 6.65962 2.88221 6.65962C3.82823 6.65962 4.73724 6.36575 5.52556 5.80709C6.31388 6.36575 7.22288 6.65962 8.16891 6.65962C9.08356 6.65962 9.96684 6.38478 10.7374 5.86251C11.5085 6.38478 12.3916 6.65962 13.3058 6.65962C14.191 6.65962 14.9569 6.45339 15.6353 6.03904V17.3725H0.627477Z" fill="#E21E22"/>
<path d="M11.2283 8.14001H5.03444C4.86105 8.14001 4.7207 8.28036 4.7207 8.45375V14.2117C4.7207 14.3849 4.86105 14.5254 5.03444 14.5254H11.2283C11.4014 14.5254 11.542 14.3849 11.542 14.2117V8.45375C11.542 8.28036 11.4014 8.14001 11.2283 8.14001ZM5.34818 8.76749H7.84951V13.8979H5.34818V8.76749ZM10.9145 13.8979H8.47678V8.76749H10.9143V13.8979H10.9145Z" fill="#E21E22"/>
</svg>
