<svg width="15" height="14" viewBox="0 0 15 14" fill="none" xmlns="http://www.w3.org/2000/svg">
<path d="M13.567 4.40956L9.95813 3.88565L8.32973 0.611226C8.15368 0.261954 7.75759 0 7.36149 0C6.96539 0 6.56929 0.218295 6.39325 0.611226L4.76484 3.88565L1.15594 4.40956C0.759844 4.45322 0.407756 4.75884 0.275723 5.15177C0.14369 5.5447 0.231713 5.98129 0.53979 6.24324L3.18045 8.77547L2.56429 12.3555C2.47627 12.7484 2.65231 13.1414 3.0044 13.4033C3.18045 13.5343 3.4005 13.6216 3.66457 13.6216C3.84061 13.6216 4.01665 13.578 4.14869 13.4906L7.49352 11.8316L10.6623 13.4906C11.0144 13.6653 11.4545 13.6653 11.8066 13.4033C12.1587 13.1414 12.2907 12.7484 12.2467 12.3555L11.6305 8.77547L14.2712 6.24324C14.5793 5.93763 14.6673 5.5447 14.5353 5.15177C14.3152 4.75884 14.0071 4.45322 13.567 4.40956ZM10.3982 8.07692C10.2222 8.2079 10.1782 8.4262 10.2222 8.64449L10.8384 12.0936L7.8016 10.5218C7.62555 10.4345 7.4055 10.4345 7.18544 10.5218L3.92863 12.1372L4.54479 8.64449C4.5888 8.4262 4.50078 8.2079 4.36874 8.07692L1.86012 5.63202L5.33698 5.10811C5.55704 5.06445 5.73308 4.93347 5.8211 4.75884L7.36149 1.61538L8.90187 4.75884C8.98989 4.93347 9.16594 5.10811 9.38599 5.10811L12.8629 5.63202L10.3982 8.07692Z" fill="#E21E22"/>
<path d="M5.13522 4.54056L1.35143 4.91894L0.973053 5.67569L3.6217 8.32434L4.00008 8.70272L3.24332 12.4865L3.6217 12.8649L7.02711 11.3514H7.78386L11.1893 12.8649L11.5676 12.4865L10.8109 8.70272L13.8379 5.67569L13.4595 5.29732L9.67576 4.54056L7.40549 0.756775H7.02711L5.13522 4.54056Z" fill="#E21E22"/>
</svg>
