<svg width="30" height="20" viewBox="0 0 30 20" fill="none" xmlns="http://www.w3.org/2000/svg">
<path d="M12.1095 17.019C14.5324 17.019 16.5038 15.0477 16.5038 12.6248C16.5038 10.2018 14.5324 8.23047 12.1095 8.23047C9.68655 8.23047 7.71521 10.2018 7.71521 12.6248C7.71521 15.0477 9.68655 17.019 12.1095 17.019ZM12.1095 9.2101C13.9923 9.2101 15.5241 10.7419 15.5241 12.6248C15.5241 14.5076 13.9923 16.0394 12.1095 16.0394C10.2266 16.0394 8.69484 14.5076 8.69484 12.6248C8.69484 10.7419 10.2266 9.2101 12.1095 9.2101Z" fill="#E21E22"/>
<path d="M2.90034 17.0191C3.17104 17.0191 3.39015 16.7997 3.39015 16.5293V8.72004C3.39015 8.44933 3.17104 8.23022 2.90034 8.23022C2.62963 8.23022 2.41052 8.44933 2.41052 8.72004V16.5293C2.41052 16.7997 2.62963 17.0191 2.90034 17.0191Z" fill="#E21E22"/>
<path d="M21.1707 17.0191C21.4411 17.0191 21.6605 16.7997 21.6605 16.5293V8.72004C21.6605 8.44933 21.4411 8.23022 21.1707 8.23022C20.9003 8.23022 20.6809 8.44933 20.6809 8.72004V16.5293C20.6809 16.7997 20.9003 17.0191 21.1707 17.0191Z" fill="#E21E22"/>
<path d="M28.8984 0H5.87091C5.60021 0 5.3811 0.21911 5.3811 0.489814V2.79716H3.29253C3.02183 2.79716 2.80272 3.01627 2.80272 3.28698V5.85491H0.489814C0.21911 5.85491 0 6.07402 0 6.34472V18.9052C0 19.1756 0.21911 19.395 0.489814 19.395H23.5179C23.7883 19.395 24.0077 19.1756 24.0077 18.9052V16.3379H26.3203C26.5907 16.3379 26.8101 16.1185 26.8101 15.8481V13.5398H28.8984C29.1687 13.5398 29.3882 13.3203 29.3882 13.0499V0.489814C29.3882 0.21911 29.1687 0 28.8984 0ZM23.0281 18.4157H0.979628V6.83454H23.0281V18.4157ZM25.8305 15.3583H24.0077V6.34472C24.0077 6.07402 23.7883 5.85491 23.5179 5.85491H3.78234V3.77679H25.8308V15.3583H25.8305ZM28.4086 12.5601H26.8101V3.28698C26.8101 3.01627 26.5907 2.79716 26.3203 2.79716H6.36072V0.979628H28.4086V12.5601Z" fill="#E21E22"/>
</svg>
