<svg width="17" height="21" viewBox="0 0 17 21" fill="none" xmlns="http://www.w3.org/2000/svg">
<path d="M16.6428 0H0.356958C0.159679 0 0 0.159679 0 0.356958V19.7733C0 19.9704 0.159679 20.1303 0.356958 20.1303H16.643C16.8401 20.1303 17 19.9704 17 19.7733V0.356958C16.9998 0.159679 16.8398 0 16.6428 0ZM16.2858 19.4161H0.713916V0.713916H16.2861L16.2858 19.4161Z" fill="#E21E22"/>
<path d="M2.56899 7.68506H14.539C14.7363 7.68506 14.8959 7.52514 14.8959 7.3281V2.45944C14.8959 2.26216 14.7363 2.10248 14.539 2.10248H2.56899C2.37172 2.10248 2.21204 2.26216 2.21204 2.45944V7.32787C2.21204 7.52514 2.37172 7.68506 2.56899 7.68506ZM2.92595 2.81663H14.182V6.97115H2.92595V2.81663Z" fill="#E21E22"/>
<path d="M5.11846 9.42249H2.69448C2.4972 9.42249 2.33752 9.5824 2.33752 9.77944V12.2037C2.33752 12.4007 2.4972 12.5606 2.69448 12.5606H5.11846C5.31574 12.5606 5.47542 12.4007 5.47542 12.2037V9.77944C5.47542 9.5824 5.3155 9.42249 5.11846 9.42249ZM4.76151 11.8467H3.05144V10.1364H4.76151V11.8467Z" fill="#E21E22"/>
<path d="M5.11846 14.1196H2.69448C2.4972 14.1196 2.33752 14.2795 2.33752 14.4765V16.9005C2.33752 17.0976 2.4972 17.2575 2.69448 17.2575H5.11846C5.31574 17.2575 5.47542 17.0976 5.47542 16.9005V14.4765C5.47542 14.2793 5.3155 14.1196 5.11846 14.1196ZM4.76151 16.5436H3.05144V14.8333H4.76151V16.5436Z" fill="#E21E22"/>
<path d="M14.413 9.42249H11.9893C11.792 9.42249 11.6323 9.5824 11.6323 9.77944V12.2037C11.6323 12.4007 11.792 12.5606 11.9893 12.5606H14.4133C14.6105 12.5606 14.7702 12.4007 14.7702 12.2037V9.77944C14.77 9.5824 14.6103 9.42249 14.413 9.42249ZM14.0561 11.8467H12.3462V10.1364H14.0563L14.0561 11.8467Z" fill="#E21E22"/>
<path d="M14.413 14.1196H11.9893C11.792 14.1196 11.6323 14.2795 11.6323 14.4765V16.9005C11.6323 17.0976 11.792 17.2575 11.9893 17.2575H14.4133C14.6105 17.2575 14.7702 17.0976 14.7702 16.9005V14.4765C14.77 14.2793 14.6103 14.1196 14.413 14.1196ZM14.0561 16.5436H12.3462V14.8333H14.0563L14.0561 16.5436Z" fill="#E21E22"/>
<path d="M9.84541 9.34277H7.42214C7.22486 9.34277 7.06519 9.50269 7.06519 9.69973V12.124C7.06519 12.321 7.22486 12.4809 7.42214 12.4809H9.84541C10.0427 12.4809 10.2024 12.321 10.2024 12.124V9.69973C10.2024 9.50269 10.0425 9.34277 9.84541 9.34277ZM9.48845 11.767H7.7791V10.0567H9.48845V11.767Z" fill="#E21E22"/>
<path d="M9.84541 14.0396H7.42214C7.22486 14.0396 7.06519 14.1996 7.06519 14.3966V16.8211C7.06519 17.0181 7.22486 17.178 7.42214 17.178H9.84541C10.0427 17.178 10.2024 17.0181 10.2024 16.8211V14.3966C10.2024 14.1996 10.0425 14.0396 9.84541 14.0396ZM9.48845 16.4639H7.7791V14.7533H9.48845V16.4639Z" fill="#E21E22"/>
</svg>
