<svg width="40" height="41" viewBox="0 0 40 41" fill="none" xmlns="http://www.w3.org/2000/svg">
<path d="M35.096 0H4.90625C2.2011 0 0 2.2011 0 4.90625V25.6837C0 28.3884 2.20066 30.5891 4.90625 30.5891H15.6323V38.8961H7.31859C6.94914 38.8961 6.6501 39.1951 6.6501 39.5646C6.6501 39.934 6.94914 40.2331 7.31859 40.2331H16.3008H23.701H32.6832C33.0526 40.2331 33.3517 39.934 33.3517 39.5646C33.3517 39.1951 33.0526 38.8961 32.6832 38.8961H24.3695V30.5891H35.0955C37.7998 30.5891 40 28.3884 40 25.6837V4.90625C40.0004 2.2011 37.8002 0 35.096 0ZM4.90625 1.33697H35.096C37.0631 1.33697 38.6635 2.93822 38.6635 4.90625V20.6602H1.33742V4.90625C1.33742 2.93778 2.93822 1.33697 4.90625 1.33697ZM23.0329 38.8961H16.9698V30.5891H23.0329V38.8961ZM35.096 29.2521H23.7014H16.3013H4.90669C2.93867 29.2521 1.33742 27.6513 1.33742 25.6837V21.9977H38.6635V25.6837C38.6635 27.6513 37.0631 29.2521 35.096 29.2521Z" fill="#E21E22"/>
<path d="M20.0011 23.2607C18.6209 23.2607 17.4983 24.3828 17.4983 25.7617C17.4983 27.1405 18.6209 28.2627 20.0011 28.2627C21.3804 28.2627 22.5021 27.1405 22.5021 25.7617C22.5021 24.3828 21.3804 23.2607 20.0011 23.2607ZM20.0011 26.9257C19.3585 26.9257 18.8353 26.4034 18.8353 25.7617C18.8353 25.1199 19.358 24.5976 20.0011 24.5976C20.6428 24.5976 21.1652 25.1199 21.1652 25.7617C21.1652 26.4034 20.6428 26.9257 20.0011 26.9257Z" fill="#E21E22"/>
</svg>
