<svg width="24" height="22" viewBox="0 0 24 22" fill="none" xmlns="http://www.w3.org/2000/svg">
<path d="M23.3637 12.8047C22.9644 12.4054 22.4334 12.1855 21.8686 12.1855C21.8646 12.1855 21.8606 12.1855 21.8567 12.1857C21.8369 12.1849 20.0658 12.2104 19.223 10.2304C18.9822 9.66442 18.9052 9.02737 18.8811 8.73078C19.3939 8.15628 19.6738 7.42385 19.6738 6.64813C19.6738 5.04602 18.4651 3.72325 16.9117 3.53816V0.424511C16.9117 0.189898 16.7215 0 16.4872 0H0.424511C0.189898 0 0 0.189898 0 0.424511V21.1828C0 21.4172 0.189898 21.6073 0.424511 21.6073H16.4872C16.7215 21.6073 16.9117 21.4172 16.9117 21.1828V18.0765H22.8503C23.0846 18.0765 23.2748 17.8864 23.2748 17.652V16.3726H23.5578C23.7922 16.3726 23.9823 16.1824 23.9823 15.948V14.2995C23.9829 13.7349 23.763 13.2043 23.3637 12.8047ZM18.8248 6.64813C18.8248 7.26169 18.5843 7.83818 18.1476 8.2709C18.0647 8.35325 18.0191 8.4656 18.0219 8.58249C18.0231 8.62522 18.0514 9.64433 18.4419 10.5627C19.4893 13.0246 21.7075 13.0339 21.8722 13.0342C22.2087 13.0353 22.5254 13.1669 22.7631 13.4049C23.002 13.6438 23.1336 13.9613 23.1333 14.299V15.5232H22.9429C22.9131 15.5167 22.8823 15.5125 22.8503 15.5125C22.8183 15.5125 22.7878 15.5167 22.7578 15.5232H9.94432V14.299C9.94432 13.6056 10.5052 13.0404 11.1972 13.0339C11.4468 13.0478 13.5031 13.0772 14.5888 10.6295C14.9609 9.79093 15.0382 8.63371 15.0413 8.58475C15.0489 8.46362 15.0042 8.34476 14.9185 8.25873C14.4897 7.8277 14.2537 7.25546 14.2537 6.64785C14.2537 5.38761 15.2787 4.36256 16.5387 4.36256C17.7995 4.36284 18.8248 5.3879 18.8248 6.64813ZM16.0627 20.7583H0.849023V0.849023H16.0627V3.55401C14.5602 3.78466 13.4047 5.08225 13.4047 6.64813C13.4047 7.41367 13.6778 8.13816 14.1778 8.70927C14.1436 9.03869 14.0465 9.75838 13.8125 10.2853C12.9315 12.2721 11.3078 12.1905 11.2419 12.1863C11.2309 12.1855 11.2196 12.1849 11.2085 12.1849C10.0431 12.1849 9.09473 13.1332 9.09473 14.299V15.9478C9.09473 16.1821 9.28463 16.3723 9.51924 16.3723H9.85376L9.86423 17.6551C9.86621 17.8883 10.0555 18.0763 10.2887 18.0763H16.0621V20.7583H16.0627ZM22.4261 17.2275H16.5913C16.5579 17.219 16.5234 17.2131 16.4872 17.2131C16.4509 17.2131 16.4167 17.219 16.383 17.2275H10.7104L10.7033 16.3726H22.4261V17.2275Z" fill="#E21E22"/>
<path d="M8.05217 4.39905H2.65437C2.41976 4.39905 2.22986 4.58895 2.22986 4.82356C2.22986 5.05817 2.41976 5.24807 2.65437 5.24807H8.05217C8.28679 5.24807 8.47668 5.05817 8.47668 4.82356C8.47668 4.58895 8.28679 4.39905 8.05217 4.39905Z" fill="#E21E22"/>
<path d="M8.05217 6.57361H2.65437C2.41976 6.57361 2.22986 6.76351 2.22986 6.99812C2.22986 7.23273 2.41976 7.42263 2.65437 7.42263H8.05217C8.28679 7.42263 8.47668 7.23273 8.47668 6.99812C8.47668 6.76351 8.28679 6.57361 8.05217 6.57361Z" fill="#E21E22"/>
<path d="M8.05217 8.82581H2.65437C2.41976 8.82581 2.22986 9.0157 2.22986 9.25032C2.22986 9.48493 2.41976 9.67483 2.65437 9.67483H8.05217C8.28679 9.67483 8.47668 9.48493 8.47668 9.25032C8.47668 9.0157 8.28679 8.82581 8.05217 8.82581Z" fill="#E21E22"/>
</svg>
