<svg width="31" height="44" viewBox="0 0 31 44" fill="none" xmlns="http://www.w3.org/2000/svg">
<path d="M26.0461 0H4.95387C2.24712 0 0 2.19605 0 4.9028V38.7117C0 41.4185 2.19605 43.6145 4.95387 43.6145H26.0461C28.7529 43.6145 31 41.4185 31 38.7117V4.9028C31 2.19605 28.804 0 26.0461 0ZM29.4679 38.7117C29.4679 40.6013 27.9358 42.0824 26.0461 42.0824H4.95387C3.06425 42.0824 1.53213 40.5502 1.53213 38.7117V4.9028C1.53213 3.01318 3.06425 1.53213 4.95387 1.53213H26.0461C27.9358 1.53213 29.4679 3.06425 29.4679 4.9028V38.7117Z" fill="#E21E22"/>
<path d="M21.7562 4.85172H9.1417C8.73314 4.85172 8.37564 5.20921 8.37564 5.61778C8.37564 6.02634 8.73314 6.38384 9.1417 6.38384H21.7562C22.1648 6.38384 22.5223 6.02634 22.5223 5.61778C22.5223 5.20921 22.1648 4.85172 21.7562 4.85172Z" fill="#E21E22"/>
<path d="M15.4745 34.1153C14.0445 34.1153 12.921 35.29 12.921 36.6689C12.921 37.3328 13.1763 37.9967 13.687 38.4563C14.1467 38.916 14.8106 39.1713 15.4745 39.1713C16.9045 39.1713 18.028 37.9967 18.028 36.6178C18.028 35.2389 16.9045 34.1153 15.4745 34.1153ZM15.5256 37.6903C15.2702 37.6903 15.0149 37.5881 14.8106 37.3839C14.6063 37.1796 14.5042 36.9242 14.5042 36.6689C14.5042 36.1071 14.9638 35.6475 15.5256 35.6475C16.0874 35.6475 16.547 36.1071 16.547 36.6689C16.547 37.2306 16.0874 37.6903 15.5256 37.6903Z" fill="#E21E22"/>
</svg>
