<svg width="26" height="17" viewBox="0 0 26 17" fill="none" xmlns="http://www.w3.org/2000/svg">
<path d="M23.3166 0H1.95896C0.878875 0 0 0.878874 0 1.95896V3.26819V6.08948V14.5721C0 15.6522 0.878875 16.5308 1.95896 16.5308H23.3166C24.3967 16.5308 25.2753 15.6522 25.2753 14.5721V6.08948V3.26819V1.95896C25.2753 0.878874 24.3967 0 23.3166 0ZM0.813251 1.95896C0.813522 1.32712 1.32713 0.813522 1.95869 0.813522H23.3163C23.9479 0.813522 24.4615 1.3274 24.4615 1.95896V2.86143H0.813251V1.95896ZM24.4618 14.5718C24.4618 15.2031 23.9479 15.717 23.3166 15.717H1.95896C1.3274 15.717 0.813522 15.2031 0.813522 14.5718V6.49597H24.4618V14.5718ZM24.4618 5.68245H0.813522V3.67468H24.4618V5.68245Z" fill="#E21E22"/>
<path d="M3.93115 14.1135C4.71349 14.1135 5.34966 13.4776 5.34966 12.6961C5.34966 11.914 4.71349 11.2776 3.93115 11.2776C3.14936 11.2776 2.51318 11.914 2.51318 12.6961C2.51318 13.4776 3.14936 14.1135 3.93115 14.1135ZM3.93115 12.0911C4.2647 12.0911 4.53614 12.3626 4.53614 12.6961C4.53614 13.0291 4.2647 13.3 3.93115 13.3C3.59788 13.3 3.32671 13.0291 3.32671 12.6961C3.32671 12.3626 3.59788 12.0911 3.93115 12.0911Z" fill="#E21E22"/>
<path d="M6.9645 13.1506H18.4254C18.6502 13.1506 18.8322 12.9687 18.8322 12.7439C18.8322 12.5191 18.6502 12.3371 18.4254 12.3371H6.9645C6.7397 12.3371 6.55774 12.5191 6.55774 12.7439C6.55774 12.9687 6.7397 13.1506 6.9645 13.1506Z" fill="#E21E22"/>
</svg>
