<svg width="32" height="32" viewBox="0 0 32 32" fill="none" xmlns="http://www.w3.org/2000/svg">
<path d="M27.7108 0H3.87383C1.73793 0 0 1.73793 0 3.87383V20.2791C0 22.4147 1.73758 24.1523 3.87383 24.1523H12.3429V30.7113H5.77855C5.48685 30.7113 5.25074 30.9474 5.25074 31.2391C5.25074 31.5308 5.48685 31.7669 5.77855 31.7669H12.8707H18.7136H25.8057C26.0974 31.7669 26.3336 31.5308 26.3336 31.2391C26.3336 30.9474 26.0974 30.7113 25.8057 30.7113H19.2414V24.1523H27.7105C29.8457 24.1523 31.5829 22.4147 31.5829 20.2791V3.87383C31.5832 1.73793 29.846 0 27.7108 0ZM3.87383 1.05564H27.7108C29.264 1.05564 30.5276 2.31994 30.5276 3.87383V16.3128H1.05599V3.87383C1.05599 2.31959 2.31994 1.05564 3.87383 1.05564ZM18.1862 30.7113H13.3988V24.1523H18.1862V30.7113ZM27.7108 23.0966H18.714H12.871H3.87419C2.32029 23.0966 1.05599 21.8327 1.05599 20.2791V17.3687H30.5276V20.2791C30.5276 21.8327 29.264 23.0966 27.7108 23.0966Z" fill="#E21E22"/>
<path d="M15.7923 18.366C14.7026 18.366 13.8162 19.252 13.8162 20.3407C13.8162 21.4294 14.7026 22.3155 15.7923 22.3155C16.8814 22.3155 17.7671 21.4294 17.7671 20.3407C17.7671 19.252 16.8814 18.366 15.7923 18.366ZM15.7923 21.2598C15.2849 21.2598 14.8718 20.8474 14.8718 20.3407C14.8718 19.834 15.2846 19.4216 15.7923 19.4216C16.299 19.4216 16.7115 19.834 16.7115 20.3407C16.7115 20.8474 16.299 21.2598 15.7923 21.2598Z" fill="#E21E22"/>
</svg>
