<svg width="38" height="25" viewBox="0 0 38 25" fill="none" xmlns="http://www.w3.org/2000/svg">
<path d="M15.3624 21.5908C18.4362 21.5908 20.9371 19.0899 20.9371 16.0161C20.9371 12.9423 18.4362 10.4414 15.3624 10.4414C12.2886 10.4414 9.78772 12.9423 9.78772 16.0161C9.78772 19.0899 12.2886 21.5908 15.3624 21.5908ZM15.3624 11.6842C17.751 11.6842 19.6943 13.6275 19.6943 16.0161C19.6943 18.4047 17.751 20.348 15.3624 20.348C12.9738 20.348 11.0305 18.4047 11.0305 16.0161C11.0305 13.6275 12.9738 11.6842 15.3624 11.6842Z" fill="#E21E22"/>
<path d="M3.67944 21.5909C4.02286 21.5909 4.30083 21.3125 4.30083 20.9695V11.0624C4.30083 10.719 4.02286 10.441 3.67944 10.441C3.33601 10.441 3.05804 10.719 3.05804 11.0624V20.9695C3.05804 21.3125 3.33601 21.5909 3.67944 21.5909Z" fill="#E21E22"/>
<path d="M26.8577 21.5909C27.2008 21.5909 27.4791 21.3125 27.4791 20.9695V11.0624C27.4791 10.719 27.2008 10.441 26.8577 10.441C26.5147 10.441 26.2364 10.719 26.2364 11.0624V20.9695C26.2364 21.3125 26.5147 21.5909 26.8577 21.5909Z" fill="#E21E22"/>
<path d="M36.6612 0H7.44799C7.10457 0 6.8266 0.277969 6.8266 0.621391V3.54856H4.17699C3.83357 3.54856 3.5556 3.82652 3.5556 4.16995V7.42769H0.621391C0.277969 7.42769 0 7.70566 0 8.04908V23.9836C0 24.3266 0.277969 24.605 0.621391 24.605H29.8355C30.1785 24.605 30.4569 24.3266 30.4569 23.9836V20.7267H33.3906C33.7337 20.7267 34.012 20.4483 34.012 20.1053V17.1769H36.6612C37.0042 17.1769 37.2826 16.8985 37.2826 16.5555V0.621391C37.2826 0.277969 37.0042 0 36.6612 0ZM29.2141 23.3626H1.24278V8.67047H29.2141V23.3626ZM32.7693 19.4839H30.4569V8.04908C30.4569 7.70566 30.1785 7.42769 29.8355 7.42769H4.79838V4.79134H32.7697V19.4839H32.7693ZM36.0398 15.9341H34.012V4.16995C34.012 3.82652 33.7337 3.54856 33.3906 3.54856H8.06938V1.24278H36.0398V15.9341Z" fill="#E21E22"/>
</svg>
