<svg width="32" height="22" viewBox="0 0 32 22" fill="none" xmlns="http://www.w3.org/2000/svg">
<path d="M29.5202 0.270142H2.48016C1.11271 0.270142 0 1.38285 0 2.7503V4.40786V7.97978V18.7192C0 20.0867 1.11271 21.199 2.48016 21.199H29.5202C30.8876 21.199 32 20.0867 32 18.7192V7.97978V4.40786V2.7503C32 1.38285 30.8876 0.270142 29.5202 0.270142ZM1.02962 2.7503C1.02997 1.95036 1.68022 1.30011 2.47981 1.30011H29.5198C30.3194 1.30011 30.9697 1.9507 30.9697 2.7503V3.89287H1.02962V2.7503ZM30.97 18.7189C30.97 19.5181 30.3194 20.1687 29.5202 20.1687H2.48016C1.68056 20.1687 1.02997 19.5181 1.02997 18.7189V8.49442H30.97V18.7189ZM30.97 7.46445H1.02997V4.9225H30.97V7.46445Z" fill="#E21E22"/>
<path d="M4.97715 18.1387C5.96763 18.1387 6.77306 17.3336 6.77306 16.3441C6.77306 15.354 5.96763 14.5482 4.97715 14.5482C3.98735 14.5482 3.18192 15.354 3.18192 16.3441C3.18192 17.3336 3.98735 18.1387 4.97715 18.1387ZM4.97715 15.5782C5.39943 15.5782 5.7431 15.9218 5.7431 16.3441C5.7431 16.7657 5.39943 17.1087 4.97715 17.1087C4.5552 17.1087 4.21188 16.7657 4.21188 16.3441C4.21188 15.9218 4.5552 15.5782 4.97715 15.5782Z" fill="#E21E22"/>
<path d="M8.81753 16.9196H23.3277C23.6123 16.9196 23.8427 16.6892 23.8427 16.4046C23.8427 16.12 23.6123 15.8896 23.3277 15.8896H8.81753C8.53292 15.8896 8.30255 16.12 8.30255 16.4046C8.30255 16.6892 8.53292 16.9196 8.81753 16.9196Z" fill="#E21E22"/>
</svg>
