<svg width="42" height="38" viewBox="0 0 42 38" fill="none" xmlns="http://www.w3.org/2000/svg">
<path d="M40.6642 22.2864C39.9692 21.5914 39.0452 21.2087 38.062 21.2087C38.0551 21.2087 38.0482 21.2087 38.0413 21.2091C38.0068 21.2077 34.9243 21.252 33.4574 17.806C33.0382 16.8208 32.9043 15.712 32.8624 15.1958C33.7549 14.1959 34.2421 12.9211 34.2421 11.571C34.2421 8.78255 32.1383 6.48027 29.4346 6.15813V0.738857C29.4346 0.330515 29.1036 0 28.6957 0H0.738857C0.330515 0 0 0.330515 0 0.738857V36.8685C0 37.2763 0.330515 37.6073 0.738857 37.6073H28.6957C29.1036 37.6073 29.4346 37.2763 29.4346 36.8685V31.462H39.7707C40.1786 31.462 40.5096 31.131 40.5096 30.7232V28.4962H41.0021C41.41 28.4962 41.741 28.1652 41.741 27.7574V24.8882C41.742 23.9055 41.3593 22.9819 40.6642 22.2864ZM32.7644 11.571C32.7644 12.6389 32.3457 13.6423 31.5857 14.3954C31.4413 14.5387 31.362 14.7343 31.367 14.9377C31.3689 15.0121 31.4182 16.7859 32.0979 18.3842C33.9209 22.6691 37.7817 22.6854 38.0684 22.6859C38.6541 22.6878 39.2052 22.9169 39.619 23.3311C40.0347 23.7469 40.2638 24.2995 40.2633 24.8872V27.018H39.9318C39.8801 27.0067 39.8264 26.9993 39.7707 26.9993C39.7151 26.9993 39.6619 27.0067 39.6096 27.018H17.308V24.8872C17.308 23.6804 18.2843 22.6967 19.4886 22.6854C19.923 22.7095 23.5021 22.7607 25.3916 18.5005C26.0393 17.041 26.1738 15.0269 26.1792 14.9417C26.1925 14.7308 26.1147 14.524 25.9654 14.3742C25.2192 13.624 24.8084 12.6281 24.8084 11.5705C24.8084 9.37708 26.5925 7.59299 28.7854 7.59299C30.9798 7.59348 32.7644 9.37758 32.7644 11.571ZM27.9569 36.1296H1.47771V1.47771H27.9569V6.18571C25.3418 6.58716 23.3307 8.8456 23.3307 11.571C23.3307 12.9034 23.806 14.1644 24.6764 15.1584C24.6168 15.7317 24.4478 16.9844 24.0404 17.9015C22.5071 21.3594 19.6812 21.2175 19.5664 21.2101C19.5472 21.2087 19.5275 21.2077 19.5083 21.2077C17.4799 21.2077 15.8293 22.8583 15.8293 24.8872V27.7569C15.8293 28.1647 16.1598 28.4958 16.5681 28.4958H17.1504L17.1686 30.7286C17.172 31.1345 17.5016 31.4615 17.9074 31.4615H27.9559V36.1296H27.9569ZM39.0323 29.9843H28.877C28.8189 29.9695 28.7588 29.9592 28.6957 29.9592C28.6327 29.9592 28.5731 29.9695 28.5145 29.9843H18.6414L18.6291 28.4962H39.0323V29.9843Z" fill="#E21E22"/>
<path d="M14.0147 7.65649H4.61984C4.2115 7.65649 3.88098 7.98701 3.88098 8.39535C3.88098 8.80369 4.2115 9.13421 4.61984 9.13421H14.0147C14.423 9.13421 14.7535 8.80369 14.7535 8.39535C14.7535 7.98701 14.423 7.65649 14.0147 7.65649Z" fill="#E21E22"/>
<path d="M14.0147 11.4415H4.61984C4.2115 11.4415 3.88098 11.772 3.88098 12.1803C3.88098 12.5887 4.2115 12.9192 4.61984 12.9192H14.0147C14.423 12.9192 14.7535 12.5887 14.7535 12.1803C14.7535 11.772 14.423 11.4415 14.0147 11.4415Z" fill="#E21E22"/>
<path d="M14.0147 15.3613H4.61984C4.2115 15.3613 3.88098 15.6918 3.88098 16.1002C3.88098 16.5085 4.2115 16.839 4.61984 16.839H14.0147C14.423 16.839 14.7535 16.5085 14.7535 16.1002C14.7535 15.6918 14.423 15.3613 14.0147 15.3613Z" fill="#E21E22"/>
</svg>
