<svg width="21" height="21" viewBox="0 0 21 21" fill="none" xmlns="http://www.w3.org/2000/svg">
<path d="M17.6497 0H2.46733C1.10693 0 0 1.10693 0 2.46733V12.9162C0 14.2764 1.1067 15.3831 2.46733 15.3831H7.86145V19.5607H3.68049C3.4947 19.5607 3.34431 19.7111 3.34431 19.8969C3.34431 20.0827 3.4947 20.2331 3.68049 20.2331H8.19763H11.9191H16.4363C16.6221 20.2331 16.7724 20.0827 16.7724 19.8969C16.7724 19.7111 16.6221 19.5607 16.4363 19.5607H12.2553V15.3831H17.6494C19.0094 15.3831 20.1159 14.2764 20.1159 12.9162V2.46733C20.1161 1.10693 19.0096 0 17.6497 0ZM2.46733 0.672359H17.6497C18.6389 0.672359 19.4437 1.47762 19.4437 2.46733V10.39H0.672583V2.46733C0.672583 1.4774 1.47762 0.672359 2.46733 0.672359ZM11.5832 19.5607H8.53403V15.3831H11.5832V19.5607ZM17.6497 14.7108H11.9194H8.19785H2.46756C1.47785 14.7108 0.672583 13.9057 0.672583 12.9162V11.0626H19.4437V12.9162C19.4437 13.9057 18.6389 14.7108 17.6497 14.7108Z" fill="#E21E22"/>
<path d="M10.0585 11.6977C9.36436 11.6977 8.7998 12.262 8.7998 12.9555C8.7998 13.6489 9.36436 14.2132 10.0585 14.2132C10.7521 14.2132 11.3162 13.6489 11.3162 12.9555C11.3162 12.262 10.7521 11.6977 10.0585 11.6977ZM10.0585 13.5409C9.73528 13.5409 9.47216 13.2782 9.47216 12.9555C9.47216 12.6327 9.73506 12.3701 10.0585 12.3701C10.3812 12.3701 10.6439 12.6327 10.6439 12.9555C10.6439 13.2782 10.3812 13.5409 10.0585 13.5409Z" fill="#E21E22"/>
</svg>
