<svg width="31" height="37" viewBox="0 0 31 37" fill="none" xmlns="http://www.w3.org/2000/svg">
<path d="M30.3486 0H0.650923C0.29118 0 0 0.291179 0 0.650923V36.0572C0 36.4165 0.29118 36.7082 0.650923 36.7082H30.3491C30.7084 36.7082 31 36.4165 31 36.0572V0.650923C30.9996 0.291179 30.7079 0 30.3486 0ZM29.6977 35.4059H1.30185V1.30185H29.6982L29.6977 35.4059Z" fill="#E21E22"/>
<path d="M4.68449 14.0139H26.5121C26.8719 14.0139 27.163 13.7223 27.163 13.363V4.48485C27.163 4.1251 26.8719 3.83392 26.5121 3.83392H4.68449C4.32475 3.83392 4.03357 4.1251 4.03357 4.48485V13.3626C4.03357 13.7223 4.32475 14.0139 4.68449 14.0139ZM5.33542 5.1362H25.8612V12.7121H5.33542V5.1362Z" fill="#E21E22"/>
<path d="M9.33382 17.1822H4.91362C4.55387 17.1822 4.2627 17.4738 4.2627 17.8331V22.2537C4.2627 22.6131 4.55387 22.9047 4.91362 22.9047H9.33382C9.69356 22.9047 9.98474 22.6131 9.98474 22.2537V17.8331C9.98474 17.4738 9.69313 17.1822 9.33382 17.1822ZM8.6829 21.6028H5.56454V18.484H8.6829V21.6028Z" fill="#E21E22"/>
<path d="M9.33382 25.7475H4.91362C4.55387 25.7475 4.2627 26.0391 4.2627 26.3984V30.8186C4.2627 31.1779 4.55387 31.4695 4.91362 31.4695H9.33382C9.69356 31.4695 9.98474 31.1779 9.98474 30.8186V26.3984C9.98474 26.0387 9.69313 25.7475 9.33382 25.7475ZM8.6829 30.1677H5.56454V27.0489H8.6829V30.1677Z" fill="#E21E22"/>
<path d="M26.2825 17.1822H21.8627C21.503 17.1822 21.2118 17.4738 21.2118 17.8331V22.2537C21.2118 22.6131 21.503 22.9047 21.8627 22.9047H26.2829C26.6427 22.9047 26.9338 22.6131 26.9338 22.2537V17.8331C26.9334 17.4738 26.6422 17.1822 26.2825 17.1822ZM25.6316 21.6028H22.5136V18.484H25.632L25.6316 21.6028Z" fill="#E21E22"/>
<path d="M26.2825 25.7475H21.8627C21.503 25.7475 21.2118 26.0391 21.2118 26.3984V30.8186C21.2118 31.1779 21.503 31.4695 21.8627 31.4695H26.2829C26.6427 31.4695 26.9338 31.1779 26.9338 30.8186V26.3984C26.9334 26.0387 26.6422 25.7475 26.2825 25.7475ZM25.6316 30.1677H22.5136V27.0489H25.632L25.6316 30.1677Z" fill="#E21E22"/>
<path d="M17.9534 17.0368H13.5345C13.1747 17.0368 12.8835 17.3284 12.8835 17.6877V22.1084C12.8835 22.4677 13.1747 22.7593 13.5345 22.7593H17.9534C18.3131 22.7593 18.6043 22.4677 18.6043 22.1084V17.6877C18.6043 17.3284 18.3127 17.0368 17.9534 17.0368ZM17.3024 21.4574H14.1854V18.3387H17.3024V21.4574Z" fill="#E21E22"/>
<path d="M17.9534 25.6017H13.5345C13.1747 25.6017 12.8835 25.8933 12.8835 26.2526V30.6737C12.8835 31.033 13.1747 31.3246 13.5345 31.3246H17.9534C18.3131 31.3246 18.6043 31.033 18.6043 30.6737V26.2526C18.6043 25.8933 18.3127 25.6017 17.9534 25.6017ZM17.3024 30.0223H14.1854V26.9031H17.3024V30.0223Z" fill="#E21E22"/>
</svg>
