<svg width="19" height="27" viewBox="0 0 19 27" fill="none" xmlns="http://www.w3.org/2000/svg">
<path d="M15.9638 0H3.03625C1.37727 0 0 1.34597 0 3.00495V23.7266C0 25.3856 1.34597 26.7316 3.03625 26.7316H15.9638C17.6228 26.7316 19.0001 25.3856 19.0001 23.7266V3.00495C19.0001 1.34597 17.6541 0 15.9638 0ZM18.061 23.7266C18.061 24.8848 17.122 25.7925 15.9638 25.7925H3.03625C1.8781 25.7925 0.939048 24.8535 0.939048 23.7266V3.00495C0.939048 1.84679 1.8781 0.939048 3.03625 0.939048H15.9638C17.122 0.939048 18.061 1.8781 18.061 3.00495V23.7266Z" fill="#E21E22"/>
<path d="M13.3344 2.97366H5.60295C5.35253 2.97366 5.13342 3.19277 5.13342 3.44319C5.13342 3.6936 5.35253 3.91271 5.60295 3.91271H13.3344C13.5849 3.91271 13.804 3.6936 13.804 3.44319C13.804 3.19277 13.5849 2.97366 13.3344 2.97366Z" fill="#E21E22"/>
<path d="M9.48439 20.9095C8.60795 20.9095 7.91931 21.6294 7.91931 22.4746C7.91931 22.8815 8.07582 23.2884 8.38884 23.5701C8.67055 23.8518 9.07747 24.0083 9.48439 24.0083C10.3608 24.0083 11.0495 23.2884 11.0495 22.4433C11.0495 21.5981 10.3608 20.9095 9.48439 20.9095ZM9.51569 23.1006C9.35919 23.1006 9.20268 23.038 9.07747 22.9128C8.95226 22.7876 8.88966 22.6311 8.88966 22.4746C8.88966 22.1302 9.17138 21.8485 9.51569 21.8485C9.86001 21.8485 10.1417 22.1302 10.1417 22.4746C10.1417 22.8189 9.86001 23.1006 9.51569 23.1006Z" fill="#E21E22"/>
</svg>
