<svg width="31" height="44" viewBox="0 0 31 44" fill="none" xmlns="http://www.w3.org/2000/svg">
<path d="M26.0461 0H4.95387C2.24712 0 0 2.19605 0 4.9028V38.7117C0 41.4185 2.19605 43.6145 4.95387 43.6145H26.0461C28.7529 43.6145 31 41.4185 31 38.7117V4.9028C31 2.19605 28.804 0 26.0461 0ZM29.4679 38.7117C29.4679 40.6013 27.9358 42.0824 26.0461 42.0824H4.95387C3.06425 42.0824 1.53213 40.5502 1.53213 38.7117V4.9028C1.53213 3.01318 3.06425 1.53213 4.95387 1.53213H26.0461C27.9358 1.53213 29.4679 3.06425 29.4679 4.9028V38.7117Z" fill="#E21E22"/>
<path d="M21.7562 4.85175H9.14167C8.73311 4.85175 8.37561 5.20924 8.37561 5.61781C8.37561 6.02637 8.73311 6.38387 9.14167 6.38387H21.7562C22.1647 6.38387 22.5222 6.02637 22.5222 5.61781C22.5222 5.20924 22.1647 4.85175 21.7562 4.85175Z" fill="#E21E22"/>
<path d="M15.4744 34.1153C14.0445 34.1153 12.9209 35.2899 12.9209 36.6688C12.9209 37.3328 13.1763 37.9967 13.687 38.4563C14.1466 38.916 14.8105 39.1713 15.4744 39.1713C16.9044 39.1713 18.028 37.9967 18.028 36.6178C18.028 35.2389 16.9044 34.1153 15.4744 34.1153ZM15.5255 37.6903C15.2702 37.6903 15.0148 37.5881 14.8105 37.3838C14.6062 37.1795 14.5041 36.9242 14.5041 36.6688C14.5041 36.1071 14.9637 35.6474 15.5255 35.6474C16.0873 35.6474 16.5469 36.1071 16.5469 36.6688C16.5469 37.2306 16.0873 37.6903 15.5255 37.6903Z" fill="#E21E22"/>
</svg>
