<svg width="32" height="29" viewBox="0 0 32 29" fill="none" xmlns="http://www.w3.org/2000/svg">
<path d="M30.7005 16.8257C30.1758 16.301 29.4782 16.012 28.7359 16.012C28.7307 16.012 28.7255 16.012 28.7203 16.0124C28.6943 16.0113 26.367 16.0448 25.2596 13.4431C24.9431 12.6993 24.842 11.8622 24.8103 11.4725C25.4842 10.7176 25.852 9.75515 25.852 8.73583C25.852 6.63062 24.2637 4.89245 22.2224 4.64924V0.55782C22.2224 0.249531 21.9725 0 21.6646 0H0.55782C0.249531 0 0 0.249531 0 0.55782V27.8348C0 28.1428 0.249531 28.3927 0.55782 28.3927H21.6646C21.9725 28.3927 22.2224 28.1428 22.2224 27.8348V23.7531H30.026C30.3339 23.7531 30.5838 23.5032 30.5838 23.1953V21.514H30.9557C31.2636 21.514 31.5135 21.2641 31.5135 20.9562V18.79C31.5142 18.0481 31.2253 17.3508 30.7005 16.8257ZM24.7363 8.73583C24.7363 9.54207 24.4202 10.2996 23.8464 10.8682C23.7375 10.9764 23.6776 11.124 23.6813 11.2776C23.6828 11.3338 23.72 12.6729 24.2332 13.8797C25.6095 17.1147 28.5243 17.1269 28.7407 17.1273C29.1829 17.1288 29.599 17.3017 29.9114 17.6145C30.2253 17.9283 30.3982 18.3456 30.3978 18.7892V20.398H30.1476C30.1085 20.3894 30.068 20.3839 30.026 20.3839C29.9839 20.3839 29.9438 20.3894 29.9044 20.398H13.0671V18.7892C13.0671 17.8781 13.8042 17.1355 14.7134 17.1269C15.0414 17.1452 17.7435 17.1838 19.17 13.9674C19.6591 12.8656 19.7606 11.3449 19.7647 11.2806C19.7747 11.1214 19.716 10.9653 19.6033 10.8522C19.0399 10.2858 18.7297 9.53388 18.7297 8.73546C18.7297 7.07948 20.0767 5.73253 21.7323 5.73253C23.389 5.7329 24.7363 7.07985 24.7363 8.73583ZM21.1068 27.277H1.11564V1.11564H21.1068V4.67007C19.1325 4.97315 17.6141 6.67822 17.6141 8.73583C17.6141 9.74177 17.973 10.6938 18.6301 11.4442C18.5851 11.8771 18.4575 12.8228 18.15 13.5152C16.9923 16.1258 14.8588 16.0187 14.7722 16.0131C14.7577 16.012 14.7428 16.0113 14.7283 16.0113C13.1969 16.0113 11.9507 17.2575 11.9507 18.7892V20.9558C11.9507 21.2637 12.2003 21.5136 12.5086 21.5136H12.9481L12.9619 23.1994C12.9645 23.5058 13.2133 23.7527 13.5197 23.7527H21.106V27.277H21.1068ZM29.4685 22.6374H21.8015C21.7576 22.6263 21.7122 22.6185 21.6646 22.6185C21.617 22.6185 21.572 22.6263 21.5278 22.6374H14.0738L14.0645 21.514H29.4685V22.6374Z" fill="#E21E22"/>
<path d="M10.5807 5.78052H3.48787C3.17959 5.78052 2.93005 6.03005 2.93005 6.33834C2.93005 6.64663 3.17959 6.89616 3.48787 6.89616H10.5807C10.889 6.89616 11.1386 6.64663 11.1386 6.33834C11.1386 6.03005 10.889 5.78052 10.5807 5.78052Z" fill="#E21E22"/>
<path d="M10.5807 8.63794H3.48787C3.17959 8.63794 2.93005 8.88747 2.93005 9.19576C2.93005 9.50405 3.17959 9.75358 3.48787 9.75358H10.5807C10.889 9.75358 11.1386 9.50405 11.1386 9.19576C11.1386 8.88747 10.889 8.63794 10.5807 8.63794Z" fill="#E21E22"/>
<path d="M10.5807 11.5974H3.48787C3.17959 11.5974 2.93005 11.8469 2.93005 12.1552C2.93005 12.4635 3.17959 12.7131 3.48787 12.7131H10.5807C10.889 12.7131 11.1386 12.4635 11.1386 12.1552C11.1386 11.8469 10.889 11.5974 10.5807 11.5974Z" fill="#E21E22"/>
</svg>
