<svg width="42" height="28" viewBox="0 0 42 28" fill="none" xmlns="http://www.w3.org/2000/svg">
<path d="M38.7452 0H3.25521C1.46043 0 0 1.46043 0 3.25521V5.43075V10.1189V24.2144C0 26.0092 1.46043 27.4692 3.25521 27.4692H38.7452C40.54 27.4692 42 26.0092 42 24.2144V10.1189V5.43075V3.25521C42 1.46043 40.54 0 38.7452 0ZM1.35138 3.25521C1.35183 2.20528 2.20528 1.35183 3.25476 1.35183H38.7448C39.7943 1.35183 40.6477 2.20574 40.6477 3.25521V4.75484H1.35138V3.25521ZM40.6482 24.214C40.6482 25.263 39.7943 26.1169 38.7452 26.1169H3.25521C2.20574 26.1169 1.35183 25.263 1.35183 24.214V10.7944H40.6482V24.214ZM40.6482 9.44253H1.35183V6.10622H40.6482V9.44253Z" fill="#E21E22"/>
<path d="M6.53251 23.4525C7.83252 23.4525 8.88965 22.3958 8.88965 21.0971C8.88965 19.7976 7.83252 18.74 6.53251 18.74C5.2334 18.74 4.17627 19.7976 4.17627 21.0971C4.17627 22.3958 5.2334 23.4525 6.53251 23.4525ZM6.53251 20.0918C7.08676 20.0918 7.53782 20.5429 7.53782 21.0971C7.53782 21.6505 7.08676 22.1006 6.53251 22.1006C5.97871 22.1006 5.5281 21.6505 5.5281 21.0971C5.5281 20.5429 5.97871 20.0918 6.53251 20.0918Z" fill="#E21E22"/>
<path d="M11.573 21.8523H30.6176C30.9911 21.8523 31.2935 21.55 31.2935 21.1764C31.2935 20.8028 30.9911 20.5005 30.6176 20.5005H11.573C11.1995 20.5005 10.8971 20.8028 10.8971 21.1764C10.8971 21.55 11.1995 21.8523 11.573 21.8523Z" fill="#E21E22"/>
</svg>
