<svg width="45" height="30" viewBox="0 0 45 30" fill="none" xmlns="http://www.w3.org/2000/svg">
<path d="M18.3531 25.794C22.0253 25.794 25.013 22.8063 25.013 19.1341C25.013 15.4619 22.0253 12.4741 18.3531 12.4741C14.6809 12.4741 11.6931 15.4619 11.6931 19.1341C11.6931 22.8063 14.6809 25.794 18.3531 25.794ZM18.3531 13.9588C21.2067 13.9588 23.5283 16.2805 23.5283 19.1341C23.5283 21.9877 21.2067 24.3093 18.3531 24.3093C15.4994 24.3093 13.1778 21.9877 13.1778 19.1341C13.1778 16.2805 15.4994 13.9588 18.3531 13.9588Z" fill="#E21E22"/>
<path d="M4.3958 25.7941C4.80608 25.7941 5.13816 25.4615 5.13816 25.0517V13.216C5.13816 12.8057 4.80608 12.4736 4.3958 12.4736C3.98552 12.4736 3.65344 12.8057 3.65344 13.216V25.0517C3.65344 25.4615 3.98552 25.7941 4.3958 25.7941Z" fill="#E21E22"/>
<path d="M32.0864 25.7941C32.4961 25.7941 32.8287 25.4615 32.8287 25.0517V13.216C32.8287 12.8057 32.4961 12.4736 32.0864 12.4736C31.6766 12.4736 31.344 12.8057 31.344 13.216V25.0517C31.344 25.4615 31.6766 25.7941 32.0864 25.7941Z" fill="#E21E22"/>
<path d="M43.7983 0H8.89793C8.48765 0 8.15557 0.332083 8.15557 0.74236V4.23937H4.99015C4.57987 4.23937 4.24779 4.57146 4.24779 4.98173V8.87368H0.74236C0.332083 8.87368 0 9.20576 0 9.61604V28.6526C0 29.0624 0.332083 29.395 0.74236 29.395H35.6437C36.0535 29.395 36.3861 29.0624 36.3861 28.6526V24.7617H39.891C40.3008 24.7617 40.6334 24.4291 40.6334 24.0193V20.5208H43.7983C44.2081 20.5208 44.5406 20.1882 44.5406 19.7785V0.74236C44.5406 0.332083 44.2081 0 43.7983 0ZM34.9013 27.9108H1.48472V10.3584H34.9013V27.9108ZM39.1486 23.277H36.3861V9.61604C36.3861 9.20576 36.0535 8.87368 35.6437 8.87368H5.73251V5.72409H39.1491V23.277H39.1486ZM43.0559 19.0361H40.6334V4.98173C40.6334 4.57146 40.3008 4.23937 39.891 4.23937H9.64029V1.48472H43.0559V19.0361Z" fill="#E21E22"/>
</svg>
