<svg width="18" height="18" viewBox="0 0 18 18" fill="none" xmlns="http://www.w3.org/2000/svg">
<path d="M8.6968 1.66565C4.81954 1.66565 1.66528 4.82012 1.66528 8.69717C1.66528 12.5742 4.81975 15.7287 8.6968 15.7287C12.5741 15.7287 15.7285 12.5742 15.7285 8.69717C15.7285 4.82012 12.5741 1.66565 8.6968 1.66565ZM8.6968 14.975C5.23516 14.975 2.41879 12.1588 2.41879 8.69717C2.41879 5.23553 5.23516 2.41916 8.6968 2.41916C12.1584 2.41916 14.9746 5.23553 14.9746 8.69717C14.9746 12.1588 12.1584 14.975 8.6968 14.975Z" fill="#E21E22"/>
<path d="M10.4737 7.55469L8.95709 9.07133V3.6768C8.95709 3.46868 8.78825 3.30005 8.58013 3.30005C8.372 3.30005 8.20337 3.46868 8.20337 3.6768V9.98093C8.20337 10.0058 8.20588 10.0307 8.21089 10.0551C8.21298 10.0658 8.21695 10.0756 8.22009 10.086C8.22385 10.0992 8.22698 10.1126 8.23241 10.1255C8.23764 10.1381 8.24474 10.1494 8.25122 10.1613C8.25645 10.1711 8.26083 10.1811 8.2671 10.1905C8.29468 10.2319 8.33042 10.2674 8.37179 10.2952C8.37952 10.3004 8.38788 10.3038 8.39582 10.3082C8.4092 10.3157 8.42215 10.3236 8.43657 10.3297C8.44785 10.3343 8.45976 10.337 8.47126 10.3406C8.48317 10.3441 8.49445 10.3487 8.50678 10.351C8.53102 10.3558 8.55568 10.3585 8.58033 10.3585C8.60499 10.3585 8.62965 10.356 8.65389 10.351C8.66622 10.3485 8.67771 10.3441 8.68962 10.3403C8.70111 10.3368 8.71281 10.3343 8.7241 10.3297C8.73873 10.3236 8.7521 10.3155 8.76568 10.3077C8.77341 10.3034 8.78135 10.3002 8.78888 10.2952C8.80998 10.2812 8.82962 10.2653 8.84718 10.2474L11.0068 8.08775C11.1539 7.94064 11.1539 7.70201 11.0068 7.5549C10.8595 7.40737 10.621 7.40737 10.4737 7.55469Z" fill="#E21E22"/>
<path d="M8.69714 0C3.9015 0 0 3.9015 0 8.69735C0 13.4932 3.9015 17.3945 8.69714 17.3945C13.4928 17.3945 17.3945 13.493 17.3945 8.69735C17.3945 3.90171 13.4928 0 8.69714 0ZM8.69714 16.6406C4.31712 16.6406 0.753511 13.0772 0.753511 8.69714C0.753511 4.31712 4.31691 0.753511 8.69714 0.753511C13.0774 0.753511 16.6406 4.31712 16.6406 8.69714C16.6406 13.0772 13.0772 16.6406 8.69714 16.6406Z" fill="#E21E22"/>
</svg>
