<svg width="21" height="17" viewBox="0 0 21 17" fill="none" xmlns="http://www.w3.org/2000/svg">
<path d="M14.939 11.9647C14.9379 11.9647 14.9366 11.9647 14.9354 11.9647C14.818 11.9633 14.7097 11.9011 14.6495 11.8002L11.4469 6.42179C11.4379 6.40674 11.4303 6.39124 11.4238 6.37507C11.0244 5.71942 10.8137 4.96807 10.8137 4.19786C10.8178 1.88184 12.7036 0 15.0185 0C15.0203 0 15.0219 0 15.0237 0C16.1475 0.00157232 17.2025 0.440473 17.9945 1.23562C18.786 2.03009 19.2209 3.08623 19.2193 4.20909C19.2193 4.96785 19.0095 5.71515 18.612 6.37485C18.6043 6.39641 18.5942 6.41707 18.5819 6.43707L15.225 11.8065C15.163 11.9047 15.0549 11.9647 14.939 11.9647ZM12.057 6.12912L14.946 10.9811L17.9729 6.13945C17.9806 6.11878 17.9902 6.09857 18.0021 6.07948C18.3575 5.51187 18.5453 4.86497 18.5453 4.20887C18.5453 4.20864 18.5453 4.20864 18.5453 4.20842C18.5468 3.26503 18.1816 2.37824 17.517 1.71091C16.8521 1.04357 15.9662 0.675198 15.0228 0.673626C15.0215 0.673626 15.0199 0.673626 15.0183 0.673626C13.0743 0.673626 11.4907 2.2538 11.4876 4.19831C11.4876 4.86183 11.6742 5.50917 12.0271 6.06982C12.0392 6.08846 12.0491 6.10845 12.057 6.12912Z" fill="#E21E22"/>
<path d="M15.0196 5.77621C15.0184 5.77621 15.0173 5.77621 15.016 5.77621C14.5416 5.77621 14.0948 5.5909 13.759 5.25443C13.4228 4.9175 13.2381 4.47006 13.239 3.9941C13.2395 3.51971 13.425 3.0734 13.7615 2.73782C14.0975 2.40292 14.5436 2.21851 15.0182 2.21851C15.0187 2.21851 15.0193 2.21851 15.02 2.21851C16.0005 2.21963 16.7976 3.01882 16.7967 4.00017C16.7963 4.47523 16.6107 4.92177 16.2743 5.25735C15.9385 5.59202 15.493 5.77621 15.0196 5.77621ZM15.018 2.89236C14.7233 2.89236 14.4459 3.00691 14.2372 3.21513C14.0283 3.42335 13.9131 3.70053 13.9129 3.99522C13.9124 4.29104 14.0272 4.56912 14.2361 4.77846C14.4445 4.98736 14.7219 5.10236 15.0166 5.10236C15.0173 5.10236 15.018 5.10236 15.0189 5.10236C15.3136 5.10236 15.5901 4.98803 15.7985 4.78026C16.0074 4.57204 16.1226 4.29464 16.1229 3.99972C16.1233 3.39011 15.6283 2.89325 15.0191 2.89258C15.0189 2.89236 15.0184 2.89236 15.018 2.89236ZM16.4598 3.99994H16.462H16.4598Z" fill="#E21E22"/>
<path d="M20.5205 16.7441H0.336848C0.223641 16.7441 0.118071 16.6873 0.0556277 16.5927C-0.0065911 16.4984 -0.0173727 16.3789 0.0271014 16.2746L3.69846 7.68485C3.75147 7.56086 3.87344 7.48022 4.00821 7.48022H12.6712C12.8574 7.48022 13.0082 7.63094 13.0082 7.81715C13.0082 8.00336 12.8574 8.15407 12.6712 8.15407H4.23058L0.847177 16.07H20.0099L16.7309 8.39936C16.6577 8.2282 16.7372 8.03031 16.9084 7.95709C17.0789 7.88409 17.2774 7.96315 17.3507 8.13453L20.8302 16.2744C20.8747 16.3786 20.8639 16.4981 20.8017 16.5925C20.7392 16.6873 20.6337 16.7441 20.5205 16.7441Z" fill="#E21E22"/>
<path d="M14.9788 16.6837C14.8099 16.6837 14.6641 16.557 14.6446 16.3849C14.6426 16.3683 14.4274 14.7106 12.1064 14.3169C11.8906 14.2803 11.5462 14.2468 11.1473 14.2084C8.95077 13.9959 6.94719 13.7201 6.56085 12.6929C6.31152 12.0303 6.67585 11.5251 6.9683 11.1192C7.2886 10.6749 7.39417 10.4809 7.23065 10.2021C7.1271 10.0256 6.79737 9.88182 6.47841 9.74279C5.85398 9.47055 4.99864 9.09769 4.99414 8.07568C4.99325 7.88947 5.14351 7.73808 5.3295 7.73718C5.32995 7.73718 5.33062 7.73718 5.33107 7.73718C5.5166 7.73718 5.6671 7.887 5.66799 8.07254C5.67047 8.61611 6.0777 8.83286 6.74795 9.12509C7.16574 9.30725 7.59768 9.49548 7.81219 9.86138C8.21313 10.5451 7.80972 11.1049 7.51524 11.5134C7.23896 11.8966 7.07544 12.1471 7.19179 12.4557C7.46246 13.1752 9.99524 13.42 11.2124 13.5379C11.6242 13.5777 11.9797 13.612 12.2192 13.6527C15.0341 14.1304 15.3041 16.2201 15.3142 16.3088C15.3353 16.4936 15.2025 16.6605 15.0177 16.6816C15.0046 16.683 14.9916 16.6837 14.9788 16.6837Z" fill="#E21E22"/>
</svg>
