<svg width="13" height="18" viewBox="0 0 13 18" fill="none" xmlns="http://www.w3.org/2000/svg">
<path d="M10.6097 0H2.01793C0.915348 0 0 0.894544 0 1.99712V15.7689C0 16.8715 0.894544 17.7661 2.01793 17.7661H10.6097C11.7123 17.7661 12.6276 16.8715 12.6276 15.7689V1.99712C12.6276 0.894544 11.7331 0 10.6097 0ZM12.0035 15.7689C12.0035 16.5387 11.3794 17.142 10.6097 17.142H2.01793C1.2482 17.142 0.624101 16.5179 0.624101 15.7689V1.99712C0.624101 1.2274 1.2482 0.6241 2.01793 0.6241H10.6097C11.3794 0.6241 12.0035 1.2482 12.0035 1.99712V15.7689Z" fill="#E21E22"/>
<path d="M8.86234 1.97632H3.72392C3.55749 1.97632 3.41187 2.12194 3.41187 2.28837C3.41187 2.4548 3.55749 2.60042 3.72392 2.60042H8.86234C9.02877 2.60042 9.17439 2.4548 9.17439 2.28837C9.17439 2.12194 9.02877 1.97632 8.86234 1.97632Z" fill="#E21E22"/>
<path d="M6.30335 13.8967C5.72086 13.8967 5.26318 14.3752 5.26318 14.9369C5.26318 15.2073 5.3672 15.4778 5.57523 15.665C5.76246 15.8522 6.03291 15.9563 6.30335 15.9563C6.88585 15.9563 7.34352 15.4778 7.34352 14.9161C7.34352 14.3544 6.88585 13.8967 6.30335 13.8967ZM6.32415 15.353C6.22014 15.353 6.11612 15.3114 6.03291 15.2281C5.94969 15.1449 5.90809 15.0409 5.90809 14.9369C5.90809 14.7081 6.09532 14.5208 6.32415 14.5208C6.55299 14.5208 6.74022 14.7081 6.74022 14.9369C6.74022 15.1657 6.55299 15.353 6.32415 15.353Z" fill="#E21E22"/>
</svg>
