<svg width="22" height="37" viewBox="0 0 22 37" fill="none" xmlns="http://www.w3.org/2000/svg">
<path d="M14.1652 26.666L20.3054 16.7928C20.3255 16.7609 20.3423 16.7273 20.3554 16.6925C21.4157 14.9634 21.9755 12.9882 21.9755 10.9716C21.9755 4.92186 17.0537 0 11.0039 0C4.95421 0 0.0319438 4.92186 0.0319438 10.9716C0.0319438 12.9886 0.592605 14.9646 1.65372 16.6949C1.66601 16.7252 1.68034 16.7547 1.69755 16.7834L7.61745 26.6906C3.022 27.3401 0 29.2297 0 31.5219C0 34.3621 4.82644 36.5863 10.9876 36.5863C17.1487 36.5863 21.9751 34.3617 21.9751 31.5219C21.9755 29.2191 18.8127 27.2873 14.1652 26.666ZM2.75662 16.1416C1.77781 14.5837 1.26057 12.7961 1.26057 10.9716C1.26057 5.59924 5.63118 1.22862 11.0039 1.22862C16.3763 1.22862 20.7469 5.59924 20.7469 10.9716C20.7469 12.7969 20.2297 14.5846 19.2513 16.1416C19.2308 16.1744 19.214 16.2084 19.2005 16.2436L12.7134 26.6734C12.6159 26.8229 12.5966 26.8568 12.4775 27.0526L10.8393 29.6868L2.8115 16.2522C2.79716 16.2141 2.77873 16.1768 2.75662 16.1416ZM10.988 35.3577C5.23679 35.3577 1.22903 33.3358 1.22903 31.5219C1.22903 29.8756 4.24734 28.3242 8.30712 27.8438L10.3016 31.182C10.4117 31.3659 10.6091 31.4793 10.8233 31.481C10.825 31.481 10.827 31.481 10.8287 31.481C11.0408 31.481 11.2382 31.3712 11.3504 31.191L13.4473 27.8197C17.5717 28.2665 20.7465 29.8571 20.7465 31.5219C20.7469 33.3362 16.7391 35.3577 10.988 35.3577Z" fill="#E21E22"/>
<path d="M14.9773 10.9716C14.9773 8.77199 13.1876 6.9823 10.988 6.9823C8.78835 6.9823 6.99866 8.77199 6.99866 10.9716C6.99866 13.1713 8.78835 14.961 10.988 14.961C13.1876 14.961 14.9773 13.1713 14.9773 10.9716ZM8.22728 10.9716C8.22728 9.44937 9.46573 8.21092 10.988 8.21092C12.5103 8.21092 13.7487 9.44937 13.7487 10.9716C13.7487 12.4939 12.5107 13.7323 10.988 13.7323C9.46532 13.7323 8.22728 12.4939 8.22728 10.9716Z" fill="#E21E22"/>
</svg>
