<svg width="53" height="35" viewBox="0 0 53 35" fill="none" xmlns="http://www.w3.org/2000/svg">
<path d="M52.2149 19.3099H48.1564V12.4354C48.1564 12.0002 47.8049 11.6479 47.3718 11.6479H34.6609V4.78752C34.6609 4.35228 34.3094 4 33.8763 4H5.7846C5.35098 4 5 4.35228 5 4.78752V30.6104C5 31.0451 5.35098 31.3979 5.7846 31.3979H12.3428C12.6148 33.4281 14.3472 35 16.4425 35C18.5379 35 20.2703 33.4281 20.5423 31.3979H33.8763H38.9427C39.2146 33.4281 40.9481 35 43.0456 35C45.1431 35 46.8765 33.4281 47.149 31.3979H52.2154C52.6485 31.3979 53 31.0451 53 30.6104V20.0975C52.9995 19.6622 52.648 19.3099 52.2149 19.3099ZM16.4425 33.425C15.0245 33.425 13.8706 32.2662 13.8706 30.8419C13.8706 29.4175 15.0245 28.2588 16.4425 28.2588C17.8606 28.2588 19.0144 29.4175 19.0144 30.8419C19.0144 32.2662 17.8611 33.425 16.4425 33.425ZM16.4425 26.6838C14.5098 26.6838 12.8873 28.022 12.4327 29.8228H6.56919V5.57504H33.0917V12.4354V20.0975V29.8223H20.4529C19.9983 28.022 18.3753 26.6838 16.4425 26.6838ZM43.0456 33.425C41.6255 33.425 40.4705 32.2662 40.4705 30.8419C40.4705 29.4175 41.6255 28.2588 43.0456 28.2588C44.4657 28.2588 45.6211 29.4175 45.6211 30.8419C45.6211 32.2662 44.4652 33.425 43.0456 33.425ZM51.4303 29.8223H47.059C46.604 28.0215 44.9799 26.6832 43.0456 26.6832C41.1113 26.6832 39.4872 28.0215 39.0326 29.8223H34.6614V20.0975V13.2229H46.5878V20.0975C46.5878 20.5322 46.9393 20.885 47.3724 20.885H51.4308V29.8223H51.4303Z" fill="#E21E22"/>
<line x1="0.57134" y1="34.3245" x2="52.5713" y2="1.32454" stroke="#E21E22" stroke-width="1.6"/>
</svg>
