<svg width="36" height="30" viewBox="0 0 36 30" fill="none" xmlns="http://www.w3.org/2000/svg">
<path d="M35.3024 0H6.92124C6.75742 0 6.5936 0.0819081 6.47074 0.20477L0.163816 6.71647C0.122862 6.75742 0.0819083 6.83933 0.0409542 6.92124C1.55617e-07 7.00314 0 7.08505 0 7.12601V29.2002C0 29.5279 0.286678 29.8145 0.614311 29.8145H32.1489C32.4766 29.8145 32.7632 29.5279 32.7632 29.2002V26.702H35.3024C35.63 26.702 35.9167 26.4154 35.9167 26.0877V18.675V18.6341C35.9167 18.5931 35.9167 18.5931 35.9167 18.5522V9.58325V0.61431C35.9167 0.286678 35.63 0 35.3024 0ZM7.16696 1.22862H34.6471V9.37848L32.7223 11.7538V7.16696C32.7223 6.83933 32.4356 6.55265 32.108 6.55265H2.0477L7.16696 1.22862ZM31.5346 28.6269H1.22862V7.78127H31.5346V12.8596H24.4905C21.6237 12.8596 19.3303 15.194 19.3303 18.0198C19.3303 20.8866 21.6647 23.18 24.4905 23.18H31.5346V28.6269ZM31.9442 21.9514H24.4905C22.32 21.9514 20.5589 20.1903 20.5589 18.0198C20.5589 15.8492 22.32 14.0882 24.4905 14.0882H32.1489C32.3537 14.0882 32.5175 14.0063 32.6404 13.8425L34.6881 11.3443V18.4703L31.9442 21.9514ZM34.6881 25.4734H32.7632V22.9343L34.6881 20.477V25.4734Z" fill="#E21E22"/>
<path d="M10.8528 4.42308H26.4154C26.743 4.42308 27.0297 4.1364 27.0297 3.80877C27.0297 3.48114 26.743 3.19446 26.4154 3.19446H10.8528C10.5252 3.19446 10.2385 3.48114 10.2385 3.80877C10.2385 4.1364 10.4842 4.42308 10.8528 4.42308Z" fill="#E21E22"/>
</svg>
