<svg width="39" height="42" viewBox="0 0 39 42" fill="none" xmlns="http://www.w3.org/2000/svg">
<path d="M38.8542 11.851V11.8492C38.8542 11.8473 38.8538 11.8459 38.8538 11.8441C38.8533 11.7943 38.8464 11.7446 38.8354 11.6957C38.8317 11.68 38.8266 11.6653 38.822 11.6501C38.8118 11.6164 38.7989 11.5833 38.7833 11.5505C38.775 11.5335 38.7662 11.5164 38.7565 11.5003C38.7501 11.4892 38.7455 11.4768 38.7386 11.4662C38.7261 11.4478 38.7109 11.4326 38.6971 11.4155C38.686 11.4017 38.6759 11.3878 38.6639 11.3749C38.6284 11.3372 38.5902 11.3035 38.5482 11.2754C38.5478 11.2749 38.5473 11.2745 38.5469 11.274L38.5464 11.2736C38.545 11.2726 38.5436 11.2717 38.5427 11.2708L21.7814 0.11579C21.5491 -0.0385966 21.2473 -0.0385966 21.015 0.11579L15.1151 4.04919L15.1147 4.04965L9.69363 7.66322C9.61943 7.69594 9.54984 7.74064 9.48993 7.79917L0.31292 13.9175C0.268678 13.9465 0.228123 13.9825 0.190333 14.0221C0.178351 14.035 0.168212 14.0488 0.157152 14.0627C0.143326 14.0797 0.128118 14.0945 0.115675 14.1133C0.108301 14.1239 0.104153 14.1359 0.097701 14.147C0.0880231 14.1636 0.0788062 14.1806 0.0705108 14.1986C0.0553026 14.2304 0.0428594 14.2631 0.0327205 14.2963C0.0276511 14.3124 0.0225819 14.3276 0.018895 14.3438C0.00829534 14.3908 0.00184332 14.4382 0.00138247 14.4862C0.00138247 14.4899 0 14.4931 0 14.4963V14.5V14.5005V30.0594C0 30.2907 0.115675 30.5069 0.308312 30.635L17.0728 41.7932C17.0751 41.7946 17.0775 41.7951 17.0798 41.7965C17.1281 41.8278 17.1811 41.8513 17.2364 41.8702C17.2503 41.8748 17.2636 41.8794 17.2775 41.8831C17.3346 41.8983 17.3936 41.9089 17.4554 41.9089C17.5171 41.9089 17.5761 41.8983 17.6332 41.8826C17.6471 41.879 17.6609 41.8743 17.6743 41.8697C17.7309 41.8508 17.7853 41.8269 17.8342 41.7946C17.8356 41.7937 17.8369 41.7932 17.8383 41.7928L17.8411 41.7909C17.8415 41.7909 17.8416 41.7905 17.842 41.7905L38.5455 27.9879C38.7376 27.8597 38.8533 27.6441 38.8533 27.4127V11.8542C38.8542 11.8533 38.8542 11.8519 38.8542 11.851ZM21.3989 1.5214L36.9159 11.8496L32.0082 15.1217L16.7221 4.63954L21.3989 1.5214ZM17.4558 24.8236L1.9379 14.4954L9.97752 9.13565L25.2641 19.6178L17.4558 24.8236ZM15.4824 5.46586L30.7685 15.948L26.5033 18.7915L11.2168 8.30934L15.4824 5.46586ZM27.1748 20.0054L31.2787 17.2693L31.1326 23.783L27.1748 26.3795V20.0054ZM1.38257 15.7863L16.7645 26.0246V39.9268L1.38257 29.6889V15.7863ZM18.1471 39.9258V26.0242L25.7922 20.9271V27.6597C25.7922 27.9137 25.9319 28.1473 26.1549 28.2681C26.2581 28.3234 26.3711 28.351 26.4835 28.351C26.6158 28.351 26.748 28.3132 26.8628 28.2376L32.1949 24.7393C32.3848 24.6144 32.5014 24.4042 32.5069 24.1766L32.6825 16.3333L37.4717 13.1405V27.0426L18.1471 39.9258Z" fill="#E21E22"/>
<path d="M15.4999 29.4589C15.7234 29.4589 15.9428 29.3511 16.0759 29.1506C16.2875 28.8331 16.2013 28.4035 15.8838 28.192L7.96351 22.9203C7.64552 22.7087 7.216 22.7945 7.00493 23.1129C6.7934 23.4304 6.87958 23.86 7.19711 24.0715L15.1178 29.3432C15.2353 29.4216 15.3685 29.4589 15.4999 29.4589Z" fill="#E21E22"/>
<path d="M15.8838 31.7982L11.348 28.7792C11.03 28.5676 10.6005 28.6538 10.3895 28.9718C10.1779 29.2893 10.2641 29.7188 10.5816 29.9304L15.1174 32.9494C15.2349 33.0278 15.3681 33.0651 15.4999 33.0651C15.7234 33.0651 15.9428 32.9573 16.0759 32.7568C16.2875 32.4388 16.2013 32.0097 15.8838 31.7982Z" fill="#E21E22"/>
</svg>
