<svg width="34" height="38" viewBox="0 0 34 38" fill="none" xmlns="http://www.w3.org/2000/svg">
<path d="M33.8424 11.3035L30.2236 0.447015C30.1347 0.179939 29.8851 0 29.6036 0H4.27235C3.99089 0 3.74125 0.179939 3.65236 0.447015L0.0335482 11.3035C0.0113281 11.3701 0 11.4398 0 11.51V36.8413C0 37.202 0.292346 37.4948 0.653531 37.4948H33.2224C33.5832 37.4948 33.876 37.202 33.876 36.8413V11.51C33.876 11.4398 33.8647 11.3701 33.8424 11.3035ZM32.4038 11.12C31.0641 12.0999 29.5662 12.5648 27.7171 12.5648C26.0436 12.5648 24.4285 12.0441 23.02 11.0665V1.30706H29.1327L32.4038 11.12ZM12.1635 1.30706H21.7125V11.0678C20.3052 12.0446 18.6901 12.5652 17.0162 12.5652C15.2778 12.5652 13.6082 12.0027 12.1635 10.9479V1.30706ZM4.74333 1.30706H10.8565V10.9479C9.41171 12.0027 7.74259 12.5652 6.00377 12.5652C4.36515 12.5652 2.8006 12.0912 1.44605 11.1993L4.74333 1.30706ZM1.30706 36.1877V12.6423C2.73568 13.4453 4.33639 13.8723 6.00377 13.8723C7.97438 13.8723 9.86788 13.2601 11.51 12.0964C13.1521 13.2601 15.0456 13.8723 17.0162 13.8723C18.9215 13.8723 20.7614 13.2998 22.3664 12.2119C23.9728 13.2998 25.8123 13.8723 27.7167 13.8723C29.5605 13.8723 31.156 13.4427 32.5689 12.5796V36.1877H1.30706Z" fill="#E21E22"/>
<path d="M23.389 16.9561H10.487C10.1258 16.9561 9.8335 17.2484 9.8335 17.6096V29.6036C9.8335 29.9644 10.1258 30.2571 10.487 30.2571H23.389C23.7498 30.2571 24.0426 29.9644 24.0426 29.6036V17.6096C24.0426 17.2484 23.7498 16.9561 23.389 16.9561ZM11.1406 18.2631H16.3509V28.9501H11.1406V18.2631ZM22.7355 28.9501H17.6576V18.2631H22.7351V28.9501H22.7355Z" fill="#E21E22"/>
</svg>
