<svg width="47" height="31" viewBox="0 0 47 31" fill="none" xmlns="http://www.w3.org/2000/svg">
<path d="M19.1673 26.9383C23.0024 26.9383 26.1227 23.818 26.1227 19.9829C26.1227 16.1478 23.0024 13.0275 19.1673 13.0275C15.3322 13.0275 12.2119 16.1478 12.2119 19.9829C12.2119 23.818 15.3322 26.9383 19.1673 26.9383ZM19.1673 14.5781C22.1475 14.5781 24.5721 17.0027 24.5721 19.9829C24.5721 22.9631 22.1475 25.3877 19.1673 25.3877C16.1871 25.3877 13.7625 22.9631 13.7625 19.9829C13.7625 17.0027 16.1871 14.5781 19.1673 14.5781Z" fill="#E21E22"/>
<path d="M4.59078 26.9383C5.01926 26.9383 5.36607 26.591 5.36607 26.163V13.8023C5.36607 13.3738 5.01926 13.027 4.59078 13.027C4.1623 13.027 3.81549 13.3738 3.81549 13.8023V26.163C3.81549 26.591 4.1623 26.9383 4.59078 26.9383Z" fill="#E21E22"/>
<path d="M33.5097 26.9383C33.9376 26.9383 34.285 26.591 34.285 26.163V13.8023C34.285 13.3738 33.9376 13.027 33.5097 13.027C33.0817 13.027 32.7344 13.3738 32.7344 13.8023V26.163C32.7344 26.591 33.0817 26.9383 33.5097 26.9383Z" fill="#E21E22"/>
<path d="M45.7412 0H9.29265C8.86417 0 8.51736 0.346814 8.51736 0.775292V4.42743H5.21151C4.78303 4.42743 4.43622 4.77425 4.43622 5.20273V9.26732H0.775292C0.346814 9.26732 0 9.61414 0 10.0426V29.9237C0 30.3516 0.346814 30.699 0.775292 30.699H37.2249C37.6528 30.699 38.0002 30.3516 38.0002 29.9237V25.8601H41.6606C42.0885 25.8601 42.4359 25.5128 42.4359 25.0848V21.4311H45.7412C46.1692 21.4311 46.5165 21.0838 46.5165 20.6558V0.775292C46.5165 0.346814 46.1692 0 45.7412 0ZM36.4496 29.1489H1.55058V10.8179H36.4496V29.1489ZM40.8853 24.3095H38.0002V10.0426C38.0002 9.61414 37.6528 9.26732 37.2249 9.26732H5.9868V5.97802H40.8858V24.3095H40.8853ZM44.9659 19.8806H42.4359V5.20273C42.4359 4.77425 42.0885 4.42743 41.6606 4.42743H10.0679V1.55058H44.9659V19.8806Z" fill="#E21E22"/>
</svg>
