<svg width="48" height="31" viewBox="0 0 48 31" fill="none" xmlns="http://www.w3.org/2000/svg">
<path d="M47.2149 15.3099H43.1564V8.4354C43.1564 8.00017 42.8049 7.64788 42.3718 7.64788H29.6609V0.787521C29.6609 0.352285 29.3094 0 28.8763 0H0.784596C0.350976 0 0 0.352285 0 0.787521V26.6104C0 27.0451 0.350976 27.3979 0.784596 27.3979H7.34277C7.61476 29.4281 9.34715 31 11.4425 31C13.5379 31 15.2703 29.4281 15.5423 27.3979H28.8763H33.9427C34.2146 29.4281 35.9481 31 38.0456 31C40.1431 31 41.8765 29.4281 42.149 27.3979H47.2154C47.6485 27.3979 48 27.0451 48 26.6104V16.0975C47.9995 15.6622 47.648 15.3099 47.2149 15.3099ZM11.4425 29.425C10.0245 29.425 8.87064 28.2662 8.87064 26.8419C8.87064 25.4175 10.0245 24.2588 11.4425 24.2588C12.8606 24.2588 14.0144 25.4175 14.0144 26.8419C14.0144 28.2662 12.8611 29.425 11.4425 29.425ZM11.4425 22.6838C9.50982 22.6838 7.88728 24.022 7.43274 25.8228H1.56919V1.57504H28.0917V8.4354V16.0975V25.8223H15.4529C14.9983 24.022 13.3753 22.6838 11.4425 22.6838ZM38.0456 29.425C36.6255 29.425 35.4705 28.2662 35.4705 26.8419C35.4705 25.4175 36.6255 24.2588 38.0456 24.2588C39.4657 24.2588 40.6211 25.4175 40.6211 26.8419C40.6211 28.2662 39.4652 29.425 38.0456 29.425ZM46.4303 25.8223H42.059C41.604 24.0215 39.9799 22.6832 38.0456 22.6832C36.1113 22.6832 34.4872 24.0215 34.0326 25.8223H29.6614V16.0975V9.22293H41.5878V16.0975C41.5878 16.5322 41.9393 16.885 42.3724 16.885H46.4308V25.8223H46.4303Z" fill="#E21E22"/>
</svg>
