<svg width="38" height="43" viewBox="0 0 38 43" fill="none" xmlns="http://www.w3.org/2000/svg">
<path d="M21.5309 6.38276V4.45919H23.3233C23.673 4.45919 23.9791 4.15317 23.9791 3.80343V0.655763C23.9791 0.306023 23.673 0 23.3233 0H15.6727C15.323 0 15.017 0.306023 15.017 0.655763V3.80343C15.017 4.15317 15.323 4.45919 15.6727 4.45919H17.4652V6.38276C13.2246 6.86365 9.46484 8.83094 6.6232 11.7163L5.88001 10.9731L7.1041 9.74901C7.3664 9.4867 7.3664 9.09325 7.1041 8.83094L4.56848 6.29532C4.30618 6.03302 3.91272 6.03302 3.65041 6.29532L0.196729 9.66157C-0.0655763 9.92388 -0.0655763 10.3173 0.196729 10.5796L2.73235 13.1153C2.8635 13.2464 3.03837 13.2901 3.21324 13.2901C3.38811 13.2901 3.56298 13.2464 3.69413 13.1153L4.96194 11.8475L5.79257 12.6781C3.16952 15.782 1.59569 19.804 1.59569 24.1758C1.59569 34.056 9.63971 42.1 19.5199 42.1C29.4 42.1 37.4441 34.056 37.4441 24.1758C37.4003 14.9951 30.4493 7.38826 21.5309 6.38276ZM3.21324 11.76L1.59569 10.0987L4.04387 7.65057L5.66142 9.26812L4.69963 10.2299C4.56848 10.3611 4.39361 10.5359 4.21874 10.7108L3.21324 11.76ZM18.1209 3.14766H16.3285V1.31153H22.6675V3.14766H20.8751C20.5254 3.14766 20.2194 3.45369 20.2194 3.80343V6.29532C20.0008 6.29532 19.7385 6.29532 19.5199 6.29532C19.3013 6.29532 19.039 6.29532 18.8204 6.29532V3.80343C18.7767 3.40997 18.4707 3.14766 18.1209 3.14766ZM19.4762 40.7885C10.3392 40.7885 2.8635 33.3565 2.8635 24.1758C2.8635 14.9951 10.2955 7.56313 19.4762 7.56313C19.8259 7.56313 20.1756 7.56313 20.5254 7.60685C20.7002 7.60685 20.8751 7.65057 21.05 7.65057C29.4875 8.43748 36.0888 15.5634 36.0888 24.1758C36.0888 33.3565 28.6568 40.7885 19.4762 40.7885Z" fill="#E21E22"/>
<path d="M28.9191 13.4213C28.8754 13.3776 28.8317 13.3338 28.788 13.2901C26.2961 11.148 23.061 9.88016 19.5199 9.88016C11.607 9.88016 5.22424 16.3066 5.22424 24.1758C5.22424 32.0449 11.607 38.5151 19.4762 38.5151C27.3453 38.5151 33.7718 32.0887 33.7718 24.2195C33.8155 19.8915 31.8919 16.0443 28.9191 13.4213ZM19.4762 37.2036C12.3065 37.2036 6.49205 31.3892 6.49205 24.2195C6.49205 17.0498 12.3065 11.2354 19.4762 11.2354C22.4927 11.2354 25.2469 12.2846 27.4327 13.9896L20.3505 22.1211C20.0882 22.0336 19.7822 21.9462 19.5199 21.9462C18.2958 21.9462 17.2903 22.9517 17.2903 24.1758C17.2903 25.3999 18.2958 26.4054 19.5199 26.4054C20.744 26.4054 21.7058 25.3999 21.7058 24.1758C21.7058 23.7386 21.5746 23.3014 21.356 22.9517L28.482 14.7765C30.9739 17.1373 32.504 20.4598 32.504 24.1758C32.504 31.3455 26.6458 37.2036 19.4762 37.2036ZM20.3942 24.1758C20.3942 24.7004 20.0008 25.0939 19.4762 25.0939C18.9515 25.0939 18.5581 24.7004 18.5581 24.1758C18.5581 23.6949 18.9515 23.2577 19.4762 23.2577C20.0008 23.2577 20.3942 23.6949 20.3942 24.1758Z" fill="#E21E22"/>
</svg>
